SplineFontDB: 3.0
FontName: Lohit-Tamil
FullName: Lohit Tamil
FamilyName: Lohit Tamil
Weight: Book
Copyright: Copyright (c) 2003, Automatic Control Equipments, Pune, INDIA.\n  Copyright 2006 Modular Infotech Pvt Ltd.\n  Copyright 2009 Red Hat, Inc.\n\n  Licensed under the GNU General Public License, version 2 (see file COPYING) along with the following exception:\n\n  As a special exception, if you create a document which uses this font, and embed this font or unaltered portions of this font into the document, this font does not by itself cause the resulting document to be covered by the GNU General Public License. This exception does not however invalidate any other reasons why the document might be covered by the GNU General Public License. If you modify this font, you may extend this exception to your version of the font, but you are not obligated to do so. If you do not wish to do so, delete this exception statement from your version.
Version: 2.4.4
ItalicAngle: 0
UnderlinePosition: -300
UnderlineWidth: 20
Ascent: 666
Descent: 167
LayerCount: 2
Layer: 0 1 "Back"  1
Layer: 1 1 "Fore"  0
NeedsXUIDChange: 1
XUID: [1021 140 1710970845 9878666]
FSType: 0
OS2Version: 1
OS2_WeightWidthSlopeOnly: 0
OS2_UseTypoMetrics: 1
CreationTime: 1160992028
ModificationTime: 1253375125
PfmFamily: 17
TTFWeight: 400
TTFWidth: 5
LineGap: 200
VLineGap: 0
Panose: 2 0 6 0 0 0 0 0 0 0
OS2TypoAscent: 34
OS2TypoAOffset: 1
OS2TypoDescent: -157
OS2TypoDOffset: 1
OS2TypoLinegap: 0
OS2WinAscent: 4
OS2WinAOffset: 1
OS2WinDescent: 0
OS2WinDOffset: 1
HheadAscent: 4
HheadAOffset: 1
HheadDescent: 215
HheadDOffset: 1
OS2SubXSize: 700
OS2SubYSize: 650
OS2SubXOff: 0
OS2SubYOff: 200
OS2SupXSize: 700
OS2SupYSize: 650
OS2SupXOff: 0
OS2SupYOff: 500
OS2StrikeYSize: 50
OS2StrikeYPos: 250
OS2Vendor: 'ACE '
Lookup: 4 0 0 "'abvs' Above Base Substitutions in Tamil lookup 0"  {"'abvs' Above Base Substitutions in Tamil lookup 0 subtable"  } ['abvs' ('taml' <'dflt' > ) ]

StartChar: .notdef
Encoding: 65536 -1 0
Width: 800
GlyphClass: 2
Flags: W
LayerCount: 2
Fore
SplineSet
100 0 m 1,0,-1
 100 700 l 1,1,-1
 700 700 l 1,2,-1
 700 0 l 1,3,-1
 100 0 l 1,4,-1
 100 0 l 1,0,-1
150 50 m 1,5,-1
 650 50 l 1,6,-1
 650 650 l 1,7,-1
 150 650 l 1,8,-1
 150 50 l 1,9,-1
 150 50 l 1,5,-1
EndSplineSet
EndChar

StartChar: exclam
Encoding: 33 33 4
Width: 230
GlyphClass: 2
Flags: W
LayerCount: 2
Fore
SplineSet
75 10 m 1,0,1
 75 27 75 27 86.5 38.5 c 128,-1,2
 98 50 98 50 115 50 c 256,3,4
 132 50 132 50 143.5 38.5 c 128,-1,5
 155 27 155 27 155 10 c 256,6,7
 155 -7 155 -7 143.5 -18.5 c 128,-1,8
 132 -30 132 -30 115 -30 c 256,9,10
 98 -30 98 -30 86.5 -18.5 c 128,-1,11
 75 -7 75 -7 75 10 c 1,12,-1
 75 10 l 1,0,1
75 470 m 1,13,14
 75 495 75 495 86.5 512.5 c 128,-1,15
 98 530 98 530 115 530 c 256,16,17
 132 530 132 530 143.5 512.5 c 128,-1,18
 155 495 155 495 155 470 c 0,19,20
 155 405 155 405 140 275 c 128,-1,21
 125 145 125 145 125 80 c 1,22,-1
 105 80 l 1,23,24
 105 145 105 145 90 275 c 128,-1,25
 75 405 75 405 75 470 c 1,26,-1
 75 470 l 1,13,14
EndSplineSet
EndChar

StartChar: quotedbl
Encoding: 34 34 5
Width: 340
GlyphClass: 2
Flags: W
LayerCount: 2
Fore
SplineSet
75 500 m 1,0,-1
 75 700 l 1,1,-1
 140 700 l 1,2,-1
 140 500 l 1,3,-1
 75 500 l 1,4,-1
 75 500 l 1,0,-1
205 500 m 1,5,-1
 205 700 l 1,6,-1
 265 700 l 1,7,-1
 265 500 l 1,8,-1
 205 500 l 1,9,-1
 205 500 l 1,5,-1
EndSplineSet
EndChar

StartChar: numbersign
Encoding: 35 35 6
Width: 787
GlyphClass: 2
Flags: W
LayerCount: 2
Fore
SplineSet
148 -20 m 1,0,-1
 177 115 l 1,1,-1
 75 115 l 1,2,-1
 83 175 l 1,3,-1
 191 175 l 1,4,-1
 253 445 l 1,5,-1
 104 445 l 1,6,-1
 112 505 l 1,7,-1
 267 505 l 1,8,-1
 308 680 l 1,9,-1
 368 680 l 1,10,-1
 327 505 l 1,11,-1
 527 505 l 1,12,-1
 568 680 l 1,13,-1
 628 680 l 1,14,-1
 587 505 l 1,15,-1
 712 505 l 1,16,-1
 704 445 l 1,17,-1
 573 445 l 1,18,-1
 511 175 l 1,19,-1
 683 175 l 1,20,-1
 675 115 l 1,21,-1
 497 115 l 1,22,-1
 468 -20 l 1,23,-1
 408 -20 l 1,24,-1
 437 115 l 1,25,-1
 237 115 l 1,26,-1
 208 -20 l 1,27,-1
 148 -20 l 1,28,-1
 148 -20 l 1,0,-1
313 445 m 1,29,-1
 251 175 l 1,30,-1
 451 175 l 1,31,-1
 513 445 l 1,32,-1
 313 445 l 1,33,-1
 313 445 l 1,29,-1
EndSplineSet
EndChar

StartChar: dollar
Encoding: 36 36 7
Width: 463
GlyphClass: 2
Flags: W
LayerCount: 2
Fore
SplineSet
198 -46 m 1,0,-1
 198 4 l 1,1,2
 170 4 170 4 138 20.5 c 128,-1,3
 106 37 106 37 75 68 c 1,4,-1
 107 112 l 1,5,6
 124 88 124 88 147.5 71 c 128,-1,7
 171 54 171 54 198 47 c 1,8,-1
 198 256 l 1,9,10
 142 282 142 282 108.5 319.5 c 128,-1,11
 75 357 75 357 75 393 c 0,12,13
 75 440 75 440 111 473.5 c 128,-1,14
 147 507 147 507 198 507 c 1,15,-1
 198 542 l 1,16,-1
 240 542 l 1,17,-1
 240 507 l 1,18,19
 274 504 274 504 303.5 489.5 c 128,-1,20
 333 475 333 475 353 451 c 1,21,-1
 327 415 l 1,22,23
 314 436 314 436 290.5 447.5 c 128,-1,24
 267 459 267 459 240 459 c 1,25,-1
 240 297 l 1,26,27
 308 265 308 265 348 217.5 c 128,-1,28
 388 170 388 170 388 122 c 0,29,30
 388 73 388 73 344.5 38 c 128,-1,31
 301 3 301 3 240 3 c 1,32,-1
 240 -46 l 1,33,-1
 198 -46 l 1,34,-1
 198 -46 l 1,0,-1
240 46 m 1,35,36
 279 43 279 43 307.5 66 c 128,-1,37
 336 89 336 89 336 123 c 0,38,39
 336 153 336 153 310.5 184.5 c 128,-1,40
 285 216 285 216 240 242 c 1,41,-1
 240 46 l 1,42,-1
 240 46 l 1,35,36
198 306 m 1,43,-1
 198 460 l 1,44,45
 166 454 166 454 145.5 435.5 c 128,-1,46
 125 417 125 417 125 394 c 0,47,48
 125 369 125 369 145 345.5 c 128,-1,49
 165 322 165 322 198 306 c 1,50,-1
 198 306 l 1,43,-1
EndSplineSet
EndChar

StartChar: percent
Encoding: 37 37 8
Width: 650
GlyphClass: 2
Flags: W
LayerCount: 2
Fore
SplineSet
75 0 m 1,0,-1
 535 600 l 1,1,-1
 575 600 l 1,2,-1
 115 0 l 1,3,-1
 75 0 l 1,4,-1
 75 0 l 1,0,-1
75 400 m 1,5,-1
 75 500 l 2,6,7
 75 541 75 541 104.5 570.5 c 128,-1,8
 134 600 134 600 175 600 c 2,9,-1
 225 600 l 2,10,11
 266 600 266 600 295.5 570.5 c 128,-1,12
 325 541 325 541 325 500 c 2,13,-1
 325 400 l 2,14,15
 325 359 325 359 295.5 329.5 c 128,-1,16
 266 300 266 300 225 300 c 2,17,-1
 175 300 l 2,18,19
 134 300 134 300 104.5 329.5 c 128,-1,20
 75 359 75 359 75 400 c 1,21,-1
 75 400 l 1,5,-1
125 400 m 1,22,23
 125 375 125 375 139.5 357.5 c 128,-1,24
 154 340 154 340 175 340 c 2,25,-1
 225 340 l 2,26,27
 246 340 246 340 260.5 357.5 c 128,-1,28
 275 375 275 375 275 400 c 2,29,-1
 275 500 l 2,30,31
 275 525 275 525 260.5 542.5 c 128,-1,32
 246 560 246 560 225 560 c 2,33,-1
 175 560 l 2,34,35
 154 560 154 560 139.5 542.5 c 128,-1,36
 125 525 125 525 125 500 c 2,37,-1
 125 400 l 1,38,-1
 125 400 l 1,22,23
325 100 m 1,39,-1
 325 200 l 2,40,41
 325 241 325 241 354.5 270.5 c 128,-1,42
 384 300 384 300 425 300 c 2,43,-1
 475 300 l 2,44,45
 516 300 516 300 545.5 270.5 c 128,-1,46
 575 241 575 241 575 200 c 2,47,-1
 575 100 l 2,48,49
 575 59 575 59 545.5 29.5 c 128,-1,50
 516 0 516 0 475 0 c 2,51,-1
 425 0 l 2,52,53
 384 0 384 0 354.5 29.5 c 128,-1,54
 325 59 325 59 325 100 c 1,55,-1
 325 100 l 1,39,-1
375 100 m 1,56,57
 375 75 375 75 389.5 57.5 c 128,-1,58
 404 40 404 40 425 40 c 2,59,-1
 475 40 l 2,60,61
 496 40 496 40 510.5 57.5 c 128,-1,62
 525 75 525 75 525 100 c 2,63,-1
 525 200 l 2,64,65
 525 225 525 225 510.5 242.5 c 128,-1,66
 496 260 496 260 475 260 c 2,67,-1
 425 260 l 2,68,69
 404 260 404 260 389.5 242.5 c 128,-1,70
 375 225 375 225 375 200 c 2,71,-1
 375 100 l 1,72,-1
 375 100 l 1,56,57
EndSplineSet
EndChar

StartChar: ampersand
Encoding: 38 38 9
Width: 653
GlyphClass: 2
Flags: W
LayerCount: 2
Fore
SplineSet
226 -1 m 1,0,1
 163 -1 163 -1 119 37.5 c 128,-1,2
 75 76 75 76 75 131 c 0,3,4
 75 177 75 177 110 224 c 128,-1,5
 145 271 145 271 206 306 c 1,6,7
 188 337 188 337 179 364 c 128,-1,8
 170 391 170 391 170 412 c 0,9,10
 170 463 170 463 209 499.5 c 128,-1,11
 248 536 248 536 304 536 c 0,12,13
 342 536 342 536 369 507 c 128,-1,14
 396 478 396 478 396 437 c 0,15,16
 396 400 396 400 360.5 361.5 c 128,-1,17
 325 323 325 323 266 295 c 1,18,19
 280 272 280 272 317 206.5 c 128,-1,20
 354 141 354 141 371 121 c 1,21,22
 418 168 418 168 443 219.5 c 128,-1,23
 468 271 468 271 468 320 c 1,24,-1
 515 320 l 1,25,26
 501 241 501 241 471 180 c 128,-1,27
 441 119 441 119 399 84 c 1,28,29
 418 57 418 57 438.5 42 c 128,-1,30
 459 27 459 27 476 27 c 0,31,32
 495 27 495 27 514.5 41 c 128,-1,33
 534 55 534 55 548 80 c 1,34,-1
 578 55 l 1,35,36
 560 24 560 24 533 6.5 c 128,-1,37
 506 -11 506 -11 476 -11 c 0,38,39
 447 -11 447 -11 418.5 7.5 c 128,-1,40
 390 26 390 26 367 58 c 1,41,42
 339 30 339 30 302 14.5 c 128,-1,43
 265 -1 265 -1 226 -1 c 1,44,-1
 226 -1 l 1,0,1
228 40 m 1,45,46
 255 40 255 40 285.5 53.5 c 128,-1,47
 316 67 316 67 346 92 c 1,48,49
 329 112 329 112 302 155 c 128,-1,50
 275 198 275 198 231 275 c 1,51,52
 180 246 180 246 151 207.5 c 128,-1,53
 122 169 122 169 122 131 c 256,54,55
 122 93 122 93 153 66.5 c 128,-1,56
 184 40 184 40 228 40 c 1,57,-1
 228 40 l 1,45,46
247 321 m 1,58,59
 296 344 296 344 325.5 375.5 c 128,-1,60
 355 407 355 407 355 437 c 0,61,62
 355 463 355 463 339 481 c 128,-1,63
 323 499 323 499 301 499 c 0,64,65
 264 499 264 499 237.5 473.5 c 128,-1,66
 211 448 211 448 211 412 c 0,67,68
 211 393 211 393 220 369.5 c 128,-1,69
 229 346 229 346 247 321 c 1,70,-1
 247 321 l 1,58,59
EndSplineSet
EndChar

StartChar: quotesingle
Encoding: 39 39 10
Width: 215
GlyphClass: 2
Flags: W
LayerCount: 2
Fore
SplineSet
75 500 m 1,0,-1
 75 700 l 1,1,-1
 140 700 l 1,2,-1
 140 500 l 1,3,-1
 75 500 l 1,4,-1
 75 500 l 1,0,-1
EndSplineSet
EndChar

StartChar: parenleft
Encoding: 40 40 11
Width: 350
GlyphClass: 2
Flags: W
LayerCount: 2
Fore
SplineSet
75 200 m 1,0,1
 75 325 75 325 116.5 434 c 128,-1,2
 158 543 158 543 235 620 c 1,3,-1
 275 600 l 1,4,5
 203 528 203 528 164 424 c 128,-1,6
 125 320 125 320 125 200 c 256,7,8
 125 80 125 80 164 -24 c 128,-1,9
 203 -128 203 -128 275 -200 c 1,10,-1
 235 -220 l 1,11,12
 158 -143 158 -143 116.5 -34 c 128,-1,13
 75 75 75 75 75 200 c 1,14,-1
 75 200 l 1,0,1
EndSplineSet
EndChar

StartChar: parenright
Encoding: 41 41 12
Width: 350
GlyphClass: 2
Flags: W
LayerCount: 2
Fore
SplineSet
75 -200 m 1,0,1
 152 -123 152 -123 193.5 -19 c 128,-1,2
 235 85 235 85 235 200 c 256,3,4
 235 315 235 315 193.5 419 c 128,-1,5
 152 523 152 523 75 600 c 1,6,-1
 115 620 l 1,7,8
 192 543 192 543 233.5 434 c 128,-1,9
 275 325 275 325 275 200 c 256,10,11
 275 75 275 75 233.5 -34 c 128,-1,12
 192 -143 192 -143 115 -220 c 1,13,-1
 75 -200 l 1,14,-1
 75 -200 l 1,0,1
EndSplineSet
EndChar

StartChar: asterisk
Encoding: 42 42 13
Width: 850
GlyphClass: 2
Flags: W
LayerCount: 2
Fore
SplineSet
75 200 m 1,0,-1
 275 320 l 1,1,-1
 275 500 l 1,2,-1
 425 410 l 1,3,-1
 575 500 l 1,4,-1
 575 320 l 1,5,-1
 775 200 l 1,6,-1
 575 80 l 1,7,-1
 575 -100 l 1,8,-1
 425 -10 l 1,9,-1
 275 -100 l 1,10,-1
 275 80 l 1,11,-1
 75 200 l 1,12,-1
 75 200 l 1,0,-1
EndSplineSet
EndChar

StartChar: plus
Encoding: 43 43 14
Width: 500
GlyphClass: 2
Flags: W
LayerCount: 2
Fore
SplineSet
75 180 m 1,0,-1
 75 220 l 1,1,-1
 225 220 l 1,2,-1
 225 350 l 1,3,-1
 275 350 l 1,4,-1
 275 220 l 1,5,-1
 425 220 l 1,6,-1
 425 180 l 1,7,-1
 275 180 l 1,8,-1
 275 50 l 1,9,-1
 225 50 l 1,10,-1
 225 180 l 1,11,-1
 75 180 l 1,12,-1
 75 180 l 1,0,-1
EndSplineSet
EndChar

StartChar: comma
Encoding: 44 44 15
Width: 230
GlyphClass: 2
Flags: W
LayerCount: 2
Fore
SplineSet
75 30 m 1,0,1
 75 47 75 47 86.5 58.5 c 128,-1,2
 98 70 98 70 115 70 c 256,3,4
 132 70 132 70 143.5 49.5 c 128,-1,5
 155 29 155 29 155 0 c 0,6,7
 155 -37 155 -37 132.5 -65.5 c 128,-1,8
 110 -94 110 -94 75 -100 c 1,9,-1
 75 -70 l 1,10,11
 94 -59 94 -59 104.5 -40.5 c 128,-1,12
 115 -22 115 -22 115 0 c 1,13,14
 98 0 98 0 86.5 9 c 128,-1,15
 75 18 75 18 75 30 c 1,16,-1
 75 30 l 1,0,1
EndSplineSet
EndChar

StartChar: hyphen
Encoding: 45 45 16
Width: 400
GlyphClass: 2
Flags: W
LayerCount: 2
Fore
SplineSet
75 200 m 1,0,-1
 75 240 l 1,1,-1
 325 240 l 1,2,-1
 325 200 l 1,3,-1
 75 200 l 1,4,-1
 75 200 l 1,0,-1
EndSplineSet
EndChar

StartChar: period
Encoding: 46 46 17
Width: 230
GlyphClass: 2
Flags: W
LayerCount: 2
Fore
SplineSet
75 30 m 1,0,1
 75 47 75 47 86.5 58.5 c 128,-1,2
 98 70 98 70 115 70 c 256,3,4
 132 70 132 70 143.5 58.5 c 128,-1,5
 155 47 155 47 155 30 c 256,6,7
 155 13 155 13 143.5 1.5 c 128,-1,8
 132 -10 132 -10 115 -10 c 256,9,10
 98 -10 98 -10 86.5 1.5 c 128,-1,11
 75 13 75 13 75 30 c 1,12,-1
 75 30 l 1,0,1
EndSplineSet
EndChar

StartChar: slash
Encoding: 47 47 18
Width: 400
GlyphClass: 2
Flags: W
LayerCount: 2
Fore
SplineSet
75 -100 m 1,0,-1
 275 650 l 1,1,-1
 325 650 l 1,2,-1
 125 -100 l 1,3,-1
 75 -100 l 1,4,-1
 75 -100 l 1,0,-1
EndSplineSet
EndChar

StartChar: zero
Encoding: 48 48 19
Width: 500
GlyphClass: 2
Flags: W
LayerCount: 2
Fore
SplineSet
50 300 m 1,0,1
 50 437 50 437 108.5 533.5 c 128,-1,2
 167 630 167 630 250 630 c 256,3,4
 333 630 333 630 391.5 533.5 c 128,-1,5
 450 437 450 437 450 300 c 0,6,7
 450 172 450 172 391.5 81 c 128,-1,8
 333 -10 333 -10 250 -10 c 256,9,10
 167 -10 167 -10 108.5 81 c 128,-1,11
 50 172 50 172 50 300 c 1,12,-1
 50 300 l 1,0,1
100 300 m 1,13,14
 100 188 100 188 144 109 c 128,-1,15
 188 30 188 30 250 30 c 256,16,17
 312 30 312 30 356 109 c 128,-1,18
 400 188 400 188 400 300 c 0,19,20
 400 420 400 420 356 505 c 128,-1,21
 312 590 312 590 250 590 c 256,22,23
 188 590 188 590 144 505 c 128,-1,24
 100 420 100 420 100 300 c 1,25,-1
 100 300 l 1,13,14
EndSplineSet
EndChar

StartChar: one
Encoding: 49 49 20
Width: 500
GlyphClass: 2
Flags: W
LayerCount: 2
Fore
SplineSet
85 0 m 1,0,-1
 85 40 l 1,1,-1
 225 40 l 1,2,-1
 225 530 l 1,3,4
 196 506 196 506 160 493 c 128,-1,5
 124 480 124 480 85 480 c 1,6,-1
 85 520 l 1,7,8
 135 520 135 520 176 550 c 128,-1,9
 217 580 217 580 235 630 c 1,10,-1
 275 630 l 1,11,-1
 275 40 l 1,12,-1
 415 40 l 1,13,-1
 415 0 l 1,14,-1
 85 0 l 1,15,-1
 85 0 l 1,0,-1
EndSplineSet
EndChar

StartChar: two
Encoding: 50 50 21
Width: 500
GlyphClass: 2
Flags: W
LayerCount: 2
Fore
SplineSet
55 0 m 1,0,-1
 55 40 l 2,1,2
 55 100 55 100 106 164.5 c 128,-1,3
 157 229 157 229 245 280 c 0,4,5
 310 318 310 318 347.5 370 c 128,-1,6
 385 422 385 422 385 475 c 0,7,8
 385 527 385 527 344 563.5 c 128,-1,9
 303 600 303 600 245 600 c 256,10,11
 187 600 187 600 146 556 c 128,-1,12
 105 512 105 512 105 450 c 0,13,14
 105 433 105 433 110 415 c 128,-1,15
 115 397 115 397 125 380 c 1,16,-1
 85 360 l 1,17,18
 70 386 70 386 62.5 408.5 c 128,-1,19
 55 431 55 431 55 450 c 0,20,21
 55 529 55 529 110.5 584.5 c 128,-1,22
 166 640 166 640 245 640 c 256,23,24
 324 640 324 640 379.5 591.5 c 128,-1,25
 435 543 435 543 435 475 c 0,26,27
 435 412 435 412 384 346.5 c 128,-1,28
 333 281 333 281 245 230 c 0,29,30
 180 192 180 192 142.5 141.5 c 128,-1,31
 105 91 105 91 105 40 c 1,32,-1
 445 40 l 1,33,-1
 445 0 l 1,34,-1
 55 0 l 1,35,-1
 55 0 l 1,0,-1
EndSplineSet
EndChar

StartChar: three
Encoding: 51 51 22
Width: 500
GlyphClass: 2
Flags: W
LayerCount: 2
Fore
SplineSet
50 190 m 1,0,-1
 100 190 l 1,1,2
 111 125 111 125 153.5 82.5 c 128,-1,3
 196 40 196 40 250 40 c 0,4,5
 312 40 312 40 356 84 c 128,-1,6
 400 128 400 128 400 190 c 0,7,8
 400 248 400 248 356 289 c 128,-1,9
 312 330 312 330 250 330 c 2,10,-1
 200 330 l 1,11,-1
 200 360 l 1,12,-1
 370 580 l 1,13,-1
 50 580 l 1,14,-1
 50 620 l 1,15,-1
 410 620 l 1,16,-1
 430 590 l 1,17,-1
 270 370 l 1,18,19
 345 370 345 370 397.5 317.5 c 128,-1,20
 450 265 450 265 450 190 c 0,21,22
 450 107 450 107 391.5 48.5 c 128,-1,23
 333 -10 333 -10 250 -10 c 0,24,25
 173 -10 173 -10 115 47.5 c 128,-1,26
 57 105 57 105 50 190 c 1,27,-1
 50 190 l 1,0,-1
EndSplineSet
EndChar

StartChar: four
Encoding: 52 52 23
Width: 500
GlyphClass: 2
Flags: W
LayerCount: 2
Fore
SplineSet
50 140 m 1,0,-1
 50 170 l 1,1,-1
 310 620 l 1,2,-1
 350 620 l 1,3,-1
 350 180 l 1,4,-1
 450 180 l 1,5,-1
 450 140 l 1,6,-1
 350 140 l 1,7,-1
 350 40 l 1,8,-1
 400 40 l 1,9,-1
 400 0 l 1,10,-1
 250 0 l 1,11,-1
 250 40 l 1,12,-1
 300 40 l 1,13,-1
 300 140 l 1,14,-1
 50 140 l 1,15,-1
 50 140 l 1,0,-1
110 180 m 1,16,-1
 300 180 l 1,17,-1
 300 510 l 1,18,-1
 110 180 l 1,19,-1
 110 180 l 1,16,-1
EndSplineSet
EndChar

StartChar: five
Encoding: 53 53 24
Width: 500
GlyphClass: 2
Flags: W
LayerCount: 2
Fore
SplineSet
60 120 m 1,0,-1
 100 140 l 1,1,2
 118 90 118 90 156.5 60 c 128,-1,3
 195 30 195 30 240 30 c 0,4,5
 302 30 302 30 346 80 c 128,-1,6
 390 130 390 130 390 200 c 256,7,8
 390 270 390 270 346 320 c 128,-1,9
 302 370 302 370 240 370 c 0,10,11
 203 370 203 370 166.5 350.5 c 128,-1,12
 130 331 130 331 100 295 c 1,13,-1
 60 310 l 1,14,-1
 110 620 l 1,15,-1
 430 620 l 1,16,-1
 430 580 l 1,17,-1
 150 580 l 1,18,-1
 120 370 l 1,19,20
 149 394 149 394 180 407 c 128,-1,21
 211 420 211 420 240 420 c 0,22,23
 323 420 323 420 381.5 355.5 c 128,-1,24
 440 291 440 291 440 200 c 0,25,26
 440 113 440 113 381.5 51.5 c 128,-1,27
 323 -10 323 -10 240 -10 c 0,28,29
 180 -10 180 -10 130.5 25.5 c 128,-1,30
 81 61 81 61 60 120 c 1,31,-1
 60 120 l 1,0,-1
EndSplineSet
EndChar

StartChar: six
Encoding: 54 54 25
Width: 500
GlyphClass: 2
Flags: W
LayerCount: 2
Fore
SplineSet
55 320 m 1,0,1
 55 448 55 448 118 539 c 128,-1,2
 181 630 181 630 270 630 c 0,3,4
 327 630 327 630 375.5 594.5 c 128,-1,5
 424 559 424 559 445 500 c 1,6,-1
 405 485 l 1,7,8
 393 531 393 531 355 560.5 c 128,-1,9
 317 590 317 590 270 590 c 0,10,11
 202 590 202 590 153.5 511 c 128,-1,12
 105 432 105 432 105 320 c 1,13,14
 129 362 129 362 169.5 386 c 128,-1,15
 210 410 210 410 255 410 c 0,16,17
 334 410 334 410 389.5 348.5 c 128,-1,18
 445 287 445 287 445 200 c 256,19,20
 445 113 445 113 389.5 51.5 c 128,-1,21
 334 -10 334 -10 255 -10 c 0,22,23
 164 -10 164 -10 109.5 80 c 128,-1,24
 55 170 55 170 55 320 c 1,25,-1
 55 320 l 1,0,1
105 260 m 1,26,27
 105 165 105 165 149 97.5 c 128,-1,28
 193 30 193 30 255 30 c 0,29,30
 313 30 313 30 354 80 c 128,-1,31
 395 130 395 130 395 200 c 256,32,33
 395 270 395 270 354 320 c 128,-1,34
 313 370 313 370 255 370 c 0,35,36
 215 370 215 370 174.5 340.5 c 128,-1,37
 134 311 134 311 105 260 c 1,38,-1
 105 260 l 1,26,27
EndSplineSet
EndChar

StartChar: seven
Encoding: 55 55 26
Width: 499
GlyphClass: 2
Flags: W
LayerCount: 2
Fore
SplineSet
67 500 m 1,0,-1
 67 620 l 1,1,-1
 407 620 l 1,2,-1
 432 570 l 1,3,-1
 287 260 l 2,4,5
 262 217 262 217 249.5 151 c 128,-1,6
 237 85 237 85 237 0 c 1,7,-1
 187 0 l 1,8,9
 187 87 187 87 202.5 158 c 128,-1,10
 218 229 218 229 247 280 c 2,11,-1
 382 580 l 1,12,-1
 117 580 l 1,13,-1
 117 500 l 1,14,-1
 67 500 l 1,15,-1
 67 500 l 1,0,-1
EndSplineSet
EndChar

StartChar: eight
Encoding: 56 56 27
Width: 500
GlyphClass: 2
Flags: W
LayerCount: 2
Fore
SplineSet
50 170 m 1,0,1
 50 224 50 224 80 268 c 128,-1,2
 110 312 110 312 160 330 c 1,3,4
 123 351 123 351 101.5 386 c 128,-1,5
 80 421 80 421 80 460 c 0,6,7
 80 530 80 530 130 580 c 128,-1,8
 180 630 180 630 250 630 c 256,9,10
 320 630 320 630 370 580 c 128,-1,11
 420 530 420 530 420 460 c 0,12,13
 420 421 420 421 398.5 386 c 128,-1,14
 377 351 377 351 340 330 c 1,15,16
 390 312 390 312 420 268 c 128,-1,17
 450 224 450 224 450 170 c 0,18,19
 450 95 450 95 391.5 42.5 c 128,-1,20
 333 -10 333 -10 250 -10 c 256,21,22
 167 -10 167 -10 108.5 42.5 c 128,-1,23
 50 95 50 95 50 170 c 1,24,-1
 50 170 l 1,0,1
100 170 m 1,25,26
 100 112 100 112 144 71 c 128,-1,27
 188 30 188 30 250 30 c 256,28,29
 312 30 312 30 356 71 c 128,-1,30
 400 112 400 112 400 170 c 256,31,32
 400 228 400 228 356 269 c 128,-1,33
 312 310 312 310 250 310 c 256,34,35
 188 310 188 310 144 269 c 128,-1,36
 100 228 100 228 100 170 c 1,37,-1
 100 170 l 1,25,26
130 460 m 1,38,39
 130 414 130 414 165 382 c 128,-1,40
 200 350 200 350 250 350 c 256,41,42
 300 350 300 350 335 382 c 128,-1,43
 370 414 370 414 370 460 c 0,44,45
 370 514 370 514 335 552 c 128,-1,46
 300 590 300 590 250 590 c 256,47,48
 200 590 200 590 165 552 c 128,-1,49
 130 514 130 514 130 460 c 1,50,-1
 130 460 l 1,38,39
EndSplineSet
EndChar

StartChar: nine
Encoding: 57 57 28
Width: 500
GlyphClass: 2
Flags: W
LayerCount: 2
Fore
SplineSet
55 420 m 1,0,1
 55 507 55 507 107.5 568.5 c 128,-1,2
 160 630 160 630 235 630 c 0,3,4
 322 630 322 630 383.5 536.5 c 128,-1,5
 445 443 445 443 445 310 c 256,6,7
 445 177 445 177 380.5 83.5 c 128,-1,8
 316 -10 316 -10 225 -10 c 0,9,10
 170 -10 170 -10 123 25.5 c 128,-1,11
 76 61 76 61 55 120 c 1,12,-1
 95 140 l 1,13,14
 113 90 113 90 148.5 60 c 128,-1,15
 184 30 184 30 225 30 c 0,16,17
 295 30 295 30 345 112 c 128,-1,18
 395 194 395 194 395 310 c 1,19,20
 371 268 371 268 330.5 244 c 128,-1,21
 290 220 290 220 245 220 c 0,22,23
 166 220 166 220 110.5 278.5 c 128,-1,24
 55 337 55 337 55 420 c 1,25,-1
 55 420 l 1,0,1
105 420 m 1,26,27
 105 354 105 354 146 307 c 128,-1,28
 187 260 187 260 245 260 c 0,29,30
 283 260 283 260 322 289.5 c 128,-1,31
 361 319 361 319 390 370 c 1,32,33
 382 463 382 463 337.5 526.5 c 128,-1,34
 293 590 293 590 235 590 c 0,35,36
 181 590 181 590 143 540 c 128,-1,37
 105 490 105 490 105 420 c 1,38,-1
 105 420 l 1,26,27
EndSplineSet
EndChar

StartChar: colon
Encoding: 58 58 29
Width: 230
GlyphClass: 2
Flags: W
LayerCount: 2
Fore
SplineSet
75 340 m 1,0,1
 75 357 75 357 86.5 368.5 c 128,-1,2
 98 380 98 380 115 380 c 256,3,4
 132 380 132 380 143.5 368.5 c 128,-1,5
 155 357 155 357 155 340 c 256,6,7
 155 323 155 323 143.5 311.5 c 128,-1,8
 132 300 132 300 115 300 c 256,9,10
 98 300 98 300 86.5 311.5 c 128,-1,11
 75 323 75 323 75 340 c 1,12,-1
 75 340 l 1,0,1
75 30 m 1,13,14
 75 47 75 47 86.5 58.5 c 128,-1,15
 98 70 98 70 115 70 c 256,16,17
 132 70 132 70 143.5 58.5 c 128,-1,18
 155 47 155 47 155 30 c 256,19,20
 155 13 155 13 143.5 1.5 c 128,-1,21
 132 -10 132 -10 115 -10 c 256,22,23
 98 -10 98 -10 86.5 1.5 c 128,-1,24
 75 13 75 13 75 30 c 1,25,-1
 75 30 l 1,13,14
EndSplineSet
EndChar

StartChar: semicolon
Encoding: 59 59 30
Width: 230
GlyphClass: 2
Flags: W
LayerCount: 2
Fore
SplineSet
75 340 m 1,0,1
 75 357 75 357 86.5 368.5 c 128,-1,2
 98 380 98 380 115 380 c 256,3,4
 132 380 132 380 143.5 368.5 c 128,-1,5
 155 357 155 357 155 340 c 256,6,7
 155 323 155 323 143.5 311.5 c 128,-1,8
 132 300 132 300 115 300 c 256,9,10
 98 300 98 300 86.5 311.5 c 128,-1,11
 75 323 75 323 75 340 c 1,12,-1
 75 340 l 1,0,1
75 30 m 1,13,14
 75 47 75 47 86.5 58.5 c 128,-1,15
 98 70 98 70 115 70 c 256,16,17
 132 70 132 70 143.5 49.5 c 128,-1,18
 155 29 155 29 155 0 c 0,19,20
 155 -37 155 -37 132.5 -65.5 c 128,-1,21
 110 -94 110 -94 75 -100 c 1,22,-1
 75 -70 l 1,23,24
 94 -59 94 -59 104.5 -40.5 c 128,-1,25
 115 -22 115 -22 115 0 c 1,26,27
 98 0 98 0 86.5 9 c 128,-1,28
 75 18 75 18 75 30 c 1,29,-1
 75 30 l 1,13,14
EndSplineSet
EndChar

StartChar: less
Encoding: 60 60 31
Width: 551
GlyphClass: 2
Flags: W
LayerCount: 2
Fore
SplineSet
475 5 m 1,0,-1
 476 -60 l 1,1,-1
 75 138 l 1,2,-1
 75 213 l 1,3,-1
 475 423 l 1,4,-1
 475 353 l 1,5,-1
 135 178 l 1,6,-1
 475 5 l 1,7,-1
 475 5 l 1,0,-1
EndSplineSet
EndChar

StartChar: equal
Encoding: 61 61 32
Width: 400
GlyphClass: 2
Flags: W
LayerCount: 2
Fore
SplineSet
75 300 m 1,0,-1
 325 300 l 1,1,-1
 325 260 l 1,2,-1
 75 260 l 1,3,-1
 75 300 l 1,4,-1
 75 300 l 1,0,-1
75 100 m 1,5,-1
 75 140 l 1,6,-1
 325 140 l 1,7,-1
 325 100 l 1,8,-1
 75 100 l 1,9,-1
 75 100 l 1,5,-1
EndSplineSet
EndChar

StartChar: greater
Encoding: 62 62 33
Width: 551
GlyphClass: 2
Flags: W
LayerCount: 2
Fore
SplineSet
76 5 m 1,0,-1
 416 178 l 1,1,-1
 76 353 l 1,2,-1
 76 423 l 1,3,-1
 476 213 l 1,4,-1
 476 138 l 1,5,-1
 75 -60 l 1,6,-1
 76 5 l 1,7,-1
 76 5 l 1,0,-1
EndSplineSet
EndChar

StartChar: question
Encoding: 63 63 34
Width: 500
GlyphClass: 2
Flags: W
LayerCount: 2
Fore
SplineSet
205 10 m 1,0,1
 205 27 205 27 216.5 38.5 c 128,-1,2
 228 50 228 50 245 50 c 256,3,4
 262 50 262 50 273.5 38.5 c 128,-1,5
 285 27 285 27 285 10 c 256,6,7
 285 -7 285 -7 273.5 -18.5 c 128,-1,8
 262 -30 262 -30 245 -30 c 256,9,10
 228 -30 228 -30 216.5 -18.5 c 128,-1,11
 205 -7 205 -7 205 10 c 1,12,-1
 205 10 l 1,0,1
75 370 m 1,13,14
 75 445 75 445 125 497.5 c 128,-1,15
 175 550 175 550 245 550 c 0,16,17
 320 550 320 550 372.5 497.5 c 128,-1,18
 425 445 425 445 425 370 c 0,19,20
 425 317 425 317 400.5 276 c 128,-1,21
 376 235 376 235 335 220 c 0,22,23
 306 209 306 209 288 179 c 128,-1,24
 270 149 270 149 270 110 c 2,25,-1
 270 80 l 1,26,-1
 220 80 l 1,27,-1
 220 110 l 2,28,29
 220 161 220 161 240.5 199.5 c 128,-1,30
 261 238 261 238 295 250 c 0,31,32
 331 263 331 263 353 296 c 128,-1,33
 375 329 375 329 375 370 c 0,34,35
 375 428 375 428 337 469 c 128,-1,36
 299 510 299 510 245 510 c 0,37,38
 195 510 195 510 160 469 c 128,-1,39
 125 428 125 428 125 370 c 1,40,-1
 75 370 l 1,41,-1
 75 370 l 1,13,14
EndSplineSet
EndChar

StartChar: at
Encoding: 64 64 35
Width: 842
GlyphClass: 2
Flags: W
LayerCount: 2
Fore
SplineSet
429 -187 m 1,0,1
 282 -187 282 -187 178.5 -80 c 128,-1,2
 75 27 75 27 75 178 c 0,3,4
 75 331 75 331 180 439 c 128,-1,5
 285 547 285 547 434 547 c 0,6,7
 572 547 572 547 669.5 447.5 c 128,-1,8
 767 348 767 348 767 207 c 0,9,10
 767 120 767 120 722 58 c 128,-1,11
 677 -4 677 -4 613 -4 c 0,12,13
 581 -4 581 -4 556.5 8 c 128,-1,14
 532 20 532 20 525 40 c 1,15,16
 505 20 505 20 479 9 c 128,-1,17
 453 -2 453 -2 425 -2 c 0,18,19
 357 -2 357 -2 309 49.5 c 128,-1,20
 261 101 261 101 261 173 c 0,21,22
 261 250 261 250 309 305 c 128,-1,23
 357 360 357 360 425 360 c 0,24,25
 446 360 446 360 467 352 c 128,-1,26
 488 344 488 344 506 329 c 1,27,-1
 506 351 l 1,28,-1
 553 351 l 1,29,-1
 553 83 l 2,30,31
 553 62 553 62 571 47 c 128,-1,32
 589 32 589 32 614 32 c 0,33,34
 659 32 659 32 690.5 83.5 c 128,-1,35
 722 135 722 135 722 207 c 0,36,37
 722 332 722 332 637.5 420.5 c 128,-1,38
 553 509 553 509 434 509 c 0,39,40
 306 509 306 509 215 412 c 128,-1,41
 124 315 124 315 124 178 c 0,42,43
 124 45 124 45 212.5 -49.5 c 128,-1,44
 301 -144 301 -144 426 -144 c 0,45,46
 513 -144 513 -144 585.5 -110 c 128,-1,47
 658 -76 658 -76 700 -16 c 1,48,-1
 729 -41 l 1,49,50
 681 -110 681 -110 601.5 -148.5 c 128,-1,51
 522 -187 522 -187 429 -187 c 1,52,-1
 429 -187 l 1,0,1
426 45 m 1,53,54
 448 45 448 45 469 55.5 c 128,-1,55
 490 66 490 66 506 85 c 1,56,-1
 506 283 l 1,57,58
 496 300 496 300 475.5 310 c 128,-1,59
 455 320 455 320 430 320 c 0,60,61
 379 320 379 320 343.5 276.5 c 128,-1,62
 308 233 308 233 308 171 c 0,63,64
 308 119 308 119 342.5 82 c 128,-1,65
 377 45 377 45 426 45 c 1,66,-1
 426 45 l 1,53,54
EndSplineSet
EndChar

StartChar: bracketleft
Encoding: 91 91 36
Width: 395
GlyphClass: 2
Flags: W
LayerCount: 2
Fore
SplineSet
75 -148 m 1,0,-1
 75 534 l 1,1,-1
 320 534 l 1,2,-1
 320 494 l 1,3,-1
 129 494 l 1,4,-1
 129 -106 l 1,5,-1
 320 -106 l 1,6,-1
 320 -148 l 1,7,-1
 75 -148 l 1,8,-1
 75 -148 l 1,0,-1
EndSplineSet
EndChar

StartChar: backslash
Encoding: 92 92 37
Width: 594
GlyphClass: 2
Flags: W
LayerCount: 2
Fore
SplineSet
519 -120 m 1,0,-1
 475 -150 l 1,1,-1
 75 543 l 1,2,-1
 119 573 l 1,3,-1
 519 -120 l 1,4,-1
 519 -120 l 1,0,-1
EndSplineSet
EndChar

StartChar: bracketright
Encoding: 93 93 38
Width: 395
GlyphClass: 2
Flags: W
LayerCount: 2
Fore
SplineSet
75 -168 m 1,0,-1
 75 -126 l 1,1,-1
 271 -126 l 1,2,-1
 271 474 l 1,3,-1
 75 474 l 1,4,-1
 75 514 l 1,5,-1
 320 514 l 1,6,-1
 320 -168 l 1,7,-1
 75 -168 l 1,8,-1
 75 -168 l 1,0,-1
EndSplineSet
EndChar

StartChar: asciicircum
Encoding: 94 94 39
Width: 470
GlyphClass: 2
Flags: W
LayerCount: 2
Fore
SplineSet
75 460 m 1,0,-1
 75 528 l 1,1,-1
 235 700 l 1,2,-1
 395 520 l 1,3,-1
 395 460 l 1,4,-1
 235 632 l 1,5,-1
 75 460 l 1,6,-1
 75 460 l 1,0,-1
EndSplineSet
EndChar

StartChar: underscore
Encoding: 95 95 40
Width: 623
GlyphClass: 2
Flags: W
LayerCount: 2
Fore
SplineSet
548 -110 m 1,0,-1
 548 -160 l 1,1,-1
 75 -160 l 1,2,-1
 75 -110 l 1,3,-1
 548 -110 l 1,4,-1
 548 -110 l 1,0,-1
EndSplineSet
EndChar

StartChar: grave
Encoding: 96 96 41
Width: 306
GlyphClass: 2
Flags: W
LayerCount: 2
Fore
SplineSet
231 495 m 1,0,-1
 202 480 l 1,1,-1
 82 638 l 2,2,3
 73 652 73 652 76 668.5 c 128,-1,4
 79 685 79 685 92 694 c 0,5,6
 107 704 107 704 126.5 696.5 c 128,-1,7
 146 689 146 689 156 668 c 2,8,-1
 231 495 l 1,9,-1
 231 495 l 1,0,-1
EndSplineSet
EndChar

StartChar: braceleft
Encoding: 123 123 42
Width: 450
GlyphClass: 2
Flags: W
LayerCount: 2
Fore
SplineSet
75 185 m 1,0,1
 116 185 116 185 145.5 209.5 c 128,-1,2
 175 234 175 234 175 268 c 2,3,-1
 175 365 l 2,4,5
 175 440 175 440 233.5 492.5 c 128,-1,6
 292 545 292 545 375 545 c 1,7,-1
 375 519 l 1,8,9
 313 519 313 519 269 474 c 128,-1,10
 225 429 225 429 225 365 c 2,11,-1
 225 282 l 2,12,13
 225 236 225 236 195.5 203 c 128,-1,14
 166 170 166 170 125 170 c 1,15,16
 166 170 166 170 195.5 137 c 128,-1,17
 225 104 225 104 225 58 c 2,18,-1
 225 -25 l 2,19,20
 225 -89 225 -89 269 -134 c 128,-1,21
 313 -179 313 -179 375 -179 c 1,22,-1
 375 -205 l 1,23,24
 292 -205 292 -205 233.5 -152.5 c 128,-1,25
 175 -100 175 -100 175 -25 c 2,26,-1
 175 72 l 2,27,28
 175 106 175 106 145.5 130.5 c 128,-1,29
 116 155 116 155 75 155 c 1,30,-1
 75 185 l 1,31,-1
 75 185 l 1,0,1
EndSplineSet
EndChar

StartChar: bar
Encoding: 124 124 43
Width: 210
GlyphClass: 2
Flags: W
LayerCount: 2
Fore
SplineSet
75 -60 m 1,0,-1
 75 460 l 1,1,-1
 135 460 l 1,2,-1
 135 -60 l 1,3,-1
 75 -60 l 1,4,-1
 75 -60 l 1,0,-1
EndSplineSet
EndChar

StartChar: braceright
Encoding: 125 125 44
Width: 450
GlyphClass: 2
Flags: W
LayerCount: 2
Fore
SplineSet
375 185 m 1,0,-1
 375 155 l 1,1,2
 334 155 334 155 304.5 130.5 c 128,-1,3
 275 106 275 106 275 72 c 2,4,-1
 275 -25 l 2,5,6
 275 -100 275 -100 216.5 -152.5 c 128,-1,7
 158 -205 158 -205 75 -205 c 1,8,-1
 75 -179 l 1,9,10
 137 -179 137 -179 181 -134 c 128,-1,11
 225 -89 225 -89 225 -25 c 2,12,-1
 225 58 l 2,13,14
 225 104 225 104 254.5 137 c 128,-1,15
 284 170 284 170 325 170 c 1,16,17
 284 170 284 170 254.5 203 c 128,-1,18
 225 236 225 236 225 282 c 2,19,-1
 225 365 l 2,20,21
 225 429 225 429 181 474 c 128,-1,22
 137 519 137 519 75 519 c 1,23,-1
 75 545 l 1,24,25
 158 545 158 545 216.5 492.5 c 128,-1,26
 275 440 275 440 275 365 c 2,27,-1
 275 268 l 2,28,29
 275 234 275 234 304.5 209.5 c 128,-1,30
 334 185 334 185 375 185 c 1,31,-1
 375 185 l 1,0,-1
EndSplineSet
EndChar

StartChar: asciitilde
Encoding: 126 126 45
Width: 645
GlyphClass: 2
Flags: W
LayerCount: 2
Fore
SplineSet
75 220 m 1,0,1
 103 253 103 253 141 271.5 c 128,-1,2
 179 290 179 290 220 290 c 0,3,4
 255 290 255 290 320 265 c 128,-1,5
 385 240 385 240 420 240 c 0,6,7
 461 240 461 240 494 252 c 128,-1,8
 527 264 527 264 545 285 c 1,9,-1
 570 250 l 1,10,11
 546 221 546 221 506.5 205.5 c 128,-1,12
 467 190 467 190 420 190 c 0,13,14
 385 190 385 190 320 215 c 128,-1,15
 255 240 255 240 220 240 c 0,16,17
 187 240 187 240 157 225.5 c 128,-1,18
 127 211 127 211 105 185 c 1,19,-1
 75 220 l 1,20,-1
 75 220 l 1,0,1
EndSplineSet
EndChar

StartChar: cent
Encoding: 162 162 46
Width: 452
GlyphClass: 2
Flags: W
LayerCount: 2
Fore
SplineSet
51 225 m 1,0,1
 51 327 51 327 102.5 388.5 c 128,-1,2
 154 450 154 450 239 450 c 0,3,4
 256 450 256 450 271 448.5 c 128,-1,5
 286 447 286 447 298 444 c 1,6,-1
 339 544 l 1,7,-1
 384 544 l 1,8,-1
 338 426 l 1,9,10
 373 402 373 402 394.5 369.5 c 128,-1,11
 416 337 416 337 419 302 c 1,12,-1
 368 302 l 1,13,14
 366 322 366 322 354 343.5 c 128,-1,15
 342 365 342 365 322 385 c 1,16,-1
 192 48 l 1,17,18
 205 44 205 44 217 42 c 128,-1,19
 229 40 229 40 239 40 c 0,20,21
 296 40 296 40 332.5 71 c 128,-1,22
 369 102 369 102 374 154 c 1,23,-1
 422 154 l 1,24,25
 416 83 416 83 366 40.5 c 128,-1,26
 316 -2 316 -2 239 -2 c 0,27,28
 223 -2 223 -2 207.5 0.5 c 128,-1,29
 192 3 192 3 176 7 c 1,30,-1
 140 -85 l 1,31,-1
 95 -85 l 1,32,-1
 138 25 l 1,33,34
 97 55 97 55 74 108 c 128,-1,35
 51 161 51 161 51 225 c 1,36,-1
 51 225 l 1,0,1
285 402 m 1,37,38
 269 405 269 405 257.5 407 c 128,-1,39
 246 409 246 409 239 409 c 0,40,41
 175 409 175 409 137 358.5 c 128,-1,42
 99 308 99 308 99 225 c 0,43,44
 99 179 99 179 113 138.5 c 128,-1,45
 127 98 127 98 153 68 c 1,46,-1
 285 402 l 1,47,-1
 285 402 l 1,37,38
EndSplineSet
EndChar

StartChar: multiply
Encoding: 215 215 47
Width: 433
GlyphClass: 2
Flags: W
LayerCount: 2
Fore
SplineSet
110 59 m 1,0,-1
 75 94 l 1,1,-1
 181 200 l 1,2,-1
 75 306 l 1,3,-1
 110 342 l 1,4,-1
 216 236 l 1,5,-1
 322 342 l 1,6,-1
 358 306 l 1,7,-1
 252 200 l 1,8,-1
 358 94 l 1,9,-1
 322 59 l 1,10,-1
 216 165 l 1,11,-1
 110 59 l 1,12,-1
 110 59 l 1,0,-1
EndSplineSet
EndChar

StartChar: divide
Encoding: 247 247 48
Width: 480
GlyphClass: 2
Flags: W
LayerCount: 2
Fore
SplineSet
200 70 m 1,0,1
 200 87 200 87 211.5 98.5 c 128,-1,2
 223 110 223 110 240 110 c 256,3,4
 257 110 257 110 268.5 98.5 c 128,-1,5
 280 87 280 87 280 70 c 256,6,7
 280 53 280 53 268.5 41.5 c 128,-1,8
 257 30 257 30 240 30 c 256,9,10
 223 30 223 30 211.5 41.5 c 128,-1,11
 200 53 200 53 200 70 c 1,12,-1
 200 70 l 1,0,1
75 180 m 1,13,-1
 75 220 l 1,14,-1
 405 220 l 1,15,-1
 405 180 l 1,16,-1
 75 180 l 1,17,-1
 75 180 l 1,13,-1
200 330 m 1,18,19
 200 347 200 347 211.5 358.5 c 128,-1,20
 223 370 223 370 240 370 c 256,21,22
 257 370 257 370 268.5 358.5 c 128,-1,23
 280 347 280 347 280 330 c 256,24,25
 280 313 280 313 268.5 301.5 c 128,-1,26
 257 290 257 290 240 290 c 256,27,28
 223 290 223 290 211.5 301.5 c 128,-1,29
 200 313 200 313 200 330 c 1,30,-1
 200 330 l 1,18,19
EndSplineSet
EndChar

StartChar: uni0964
Encoding: 2404 2404 49
Width: 275
GlyphClass: 2
Flags: W
LayerCount: 2
Fore
SplineSet
150 0 m 1,0,-1
 150 500 l 1,1,-1
 200 500 l 1,2,-1
 200 0 l 1,3,-1
 150 0 l 1,4,-1
 150 0 l 1,0,-1
EndSplineSet
EndChar

StartChar: uni0965
Encoding: 2405 2405 50
Width: 435
GlyphClass: 2
Flags: W
LayerCount: 2
Fore
SplineSet
150 0 m 1,0,-1
 150 500 l 1,1,-1
 200 500 l 1,2,-1
 200 0 l 1,3,-1
 150 0 l 1,4,-1
 150 0 l 1,0,-1
310 0 m 1,5,-1
 310 500 l 1,6,-1
 360 500 l 1,7,-1
 360 0 l 1,8,-1
 310 0 l 1,9,-1
 310 0 l 1,5,-1
EndSplineSet
EndChar

StartChar: u0b82
Encoding: 2946 2946 51
Width: 0
GlyphClass: 4
Flags: W
AnchorPoint: "Anchor-0" -100 437 mark 0
LayerCount: 2
Fore
SplineSet
-203 550 m 1,0,1
 -203 591 -203 591 -173.5 620.5 c 128,-1,2
 -144 650 -144 650 -103 650 c 256,3,4
 -62 650 -62 650 -32.5 620.5 c 128,-1,5
 -3 591 -3 591 -3 550 c 256,6,7
 -3 509 -3 509 -32.5 479.5 c 128,-1,8
 -62 450 -62 450 -103 450 c 256,9,10
 -144 450 -144 450 -173.5 479.5 c 128,-1,11
 -203 509 -203 509 -203 550 c 1,12,-1
 -203 550 l 1,0,1
-163 550 m 1,13,14
 -163 525 -163 525 -145.5 507.5 c 128,-1,15
 -128 490 -128 490 -103 490 c 256,16,17
 -78 490 -78 490 -60.5 507.5 c 128,-1,18
 -43 525 -43 525 -43 550 c 256,19,20
 -43 575 -43 575 -60.5 592.5 c 128,-1,21
 -78 610 -78 610 -103 610 c 256,22,23
 -128 610 -128 610 -145.5 592.5 c 128,-1,24
 -163 575 -163 575 -163 550 c 1,25,-1
 -163 550 l 1,13,14
EndSplineSet
EndChar

StartChar: u0B83
Encoding: 2947 2947 52
Width: 654
GlyphClass: 2
Flags: W
LayerCount: 2
Fore
SplineSet
227 550 m 1,0,1
 227 591 227 591 256.5 620.5 c 128,-1,2
 286 650 286 650 327 650 c 256,3,4
 368 650 368 650 397.5 620.5 c 128,-1,5
 427 591 427 591 427 550 c 256,6,7
 427 509 427 509 397.5 479.5 c 128,-1,8
 368 450 368 450 327 450 c 256,9,10
 286 450 286 450 256.5 479.5 c 128,-1,11
 227 509 227 509 227 550 c 1,12,-1
 227 550 l 1,0,1
267 550 m 1,13,14
 267 525 267 525 284.5 507.5 c 128,-1,15
 302 490 302 490 327 490 c 256,16,17
 352 490 352 490 369.5 507.5 c 128,-1,18
 387 525 387 525 387 550 c 256,19,20
 387 575 387 575 369.5 592.5 c 128,-1,21
 352 610 352 610 327 610 c 256,22,23
 302 610 302 610 284.5 592.5 c 128,-1,24
 267 575 267 575 267 550 c 1,25,-1
 267 550 l 1,13,14
27 90 m 1,26,27
 27 131 27 131 56.5 160.5 c 128,-1,28
 86 190 86 190 127 190 c 256,29,30
 168 190 168 190 197.5 160.5 c 128,-1,31
 227 131 227 131 227 90 c 256,32,33
 227 49 227 49 197.5 19.5 c 128,-1,34
 168 -10 168 -10 127 -10 c 256,35,36
 86 -10 86 -10 56.5 19.5 c 128,-1,37
 27 49 27 49 27 90 c 1,38,-1
 27 90 l 1,26,27
67 90 m 1,39,40
 67 65 67 65 84.5 47.5 c 128,-1,41
 102 30 102 30 127 30 c 256,42,43
 152 30 152 30 169.5 47.5 c 128,-1,44
 187 65 187 65 187 90 c 256,45,46
 187 115 187 115 169.5 132.5 c 128,-1,47
 152 150 152 150 127 150 c 256,48,49
 102 150 102 150 84.5 132.5 c 128,-1,50
 67 115 67 115 67 90 c 1,51,-1
 67 90 l 1,39,40
427 90 m 1,52,53
 427 131 427 131 456.5 160.5 c 128,-1,54
 486 190 486 190 527 190 c 256,55,56
 568 190 568 190 597.5 160.5 c 128,-1,57
 627 131 627 131 627 90 c 256,58,59
 627 49 627 49 597.5 19.5 c 128,-1,60
 568 -10 568 -10 527 -10 c 256,61,62
 486 -10 486 -10 456.5 19.5 c 128,-1,63
 427 49 427 49 427 90 c 1,64,-1
 427 90 l 1,52,53
467 90 m 1,65,66
 467 65 467 65 484.5 47.5 c 128,-1,67
 502 30 502 30 527 30 c 256,68,69
 552 30 552 30 569.5 47.5 c 128,-1,70
 587 65 587 65 587 90 c 256,71,72
 587 115 587 115 569.5 132.5 c 128,-1,73
 552 150 552 150 527 150 c 256,74,75
 502 150 502 150 484.5 132.5 c 128,-1,76
 467 115 467 115 467 90 c 1,77,-1
 467 90 l 1,65,66
EndSplineSet
EndChar

StartChar: u0B85
Encoding: 2949 2949 53
Width: 926
GlyphClass: 2
Flags: W
AnchorPoint: "Anchor-0" 468 420 basechar 0
LayerCount: 2
Fore
SplineSet
21 90 m 1,0,1
 21 115 21 115 41.5 132.5 c 128,-1,2
 62 150 62 150 91 150 c 2,3,-1
 661 150 l 1,4,5
 666 164 666 164 668.5 179 c 128,-1,6
 671 194 671 194 671 210 c 0,7,8
 671 268 671 268 630 313.5 c 128,-1,9
 589 359 589 359 526 370 c 1,10,11
 543 356 543 356 552 335 c 128,-1,12
 561 314 561 314 561 290 c 0,13,14
 561 249 561 249 529 219.5 c 128,-1,15
 497 190 497 190 451 190 c 0,16,17
 410 190 410 190 380.5 222 c 128,-1,18
 351 254 351 254 351 300 c 256,19,20
 351 346 351 346 392 378 c 128,-1,21
 433 410 433 410 491 410 c 0,22,23
 586 410 586 410 653.5 351.5 c 128,-1,24
 721 293 721 293 721 210 c 0,25,26
 721 194 721 194 718.5 179 c 128,-1,27
 716 164 716 164 711 150 c 1,28,-1
 801 150 l 1,29,-1
 801 400 l 1,30,-1
 851 400 l 1,31,-1
 851 -100 l 1,32,-1
 801 -100 l 1,33,-1
 801 110 l 1,34,-1
 701 110 l 1,35,36
 671 29 671 29 582 -20.5 c 128,-1,37
 493 -70 493 -70 376 -70 c 0,38,39
 299 -70 299 -70 224 -49.5 c 128,-1,40
 149 -29 149 -29 81 10 c 0,41,42
 53 26 53 26 37 47.5 c 128,-1,43
 21 69 21 69 21 90 c 1,44,-1
 21 90 l 1,0,1
391 290 m 1,45,46
 391 265 391 265 410 247.5 c 128,-1,47
 429 230 429 230 456 230 c 256,48,49
 483 230 483 230 502 247.5 c 128,-1,50
 521 265 521 265 521 290 c 0,51,52
 521 319 521 319 502 339.5 c 128,-1,53
 483 360 483 360 456 360 c 256,54,55
 429 360 429 360 410 339.5 c 128,-1,56
 391 319 391 319 391 290 c 1,57,-1
 391 290 l 1,45,46
71 90 m 1,58,59
 71 85 71 85 76 77.5 c 128,-1,60
 81 70 81 70 91 60 c 0,61,62
 134 17 134 17 207 -6.5 c 128,-1,63
 280 -30 280 -30 371 -30 c 0,64,65
 474 -30 474 -30 551 8.5 c 128,-1,66
 628 47 628 47 651 110 c 1,67,-1
 91 110 l 2,68,69
 83 110 83 110 77 104 c 128,-1,70
 71 98 71 98 71 90 c 1,71,-1
 71 90 l 1,58,59
EndSplineSet
EndChar

StartChar: u0B86
Encoding: 2950 2950 54
Width: 1054
GlyphClass: 2
Flags: W
AnchorPoint: "Anchor-0" 521 437 basechar 0
LayerCount: 2
Fore
SplineSet
21 100 m 1,0,1
 21 121 21 121 38.5 135.5 c 128,-1,2
 56 150 56 150 81 150 c 2,3,-1
 661 150 l 1,4,5
 666 164 666 164 668.5 179 c 128,-1,6
 671 194 671 194 671 210 c 0,7,8
 671 268 671 268 630 313.5 c 128,-1,9
 589 359 589 359 526 370 c 1,10,11
 542 358 542 358 551.5 337 c 128,-1,12
 561 316 561 316 561 290 c 0,13,14
 561 249 561 249 529 219.5 c 128,-1,15
 497 190 497 190 451 190 c 0,16,17
 410 190 410 190 380.5 222 c 128,-1,18
 351 254 351 254 351 300 c 256,19,20
 351 346 351 346 392 378 c 128,-1,21
 433 410 433 410 491 410 c 0,22,23
 586 410 586 410 653.5 351.5 c 128,-1,24
 721 293 721 293 721 210 c 0,25,26
 721 194 721 194 718.5 179 c 128,-1,27
 716 164 716 164 711 150 c 1,28,-1
 801 150 l 1,29,-1
 801 400 l 1,30,-1
 851 400 l 1,31,-1
 851 60 l 1,32,33
 867 79 867 79 890.5 89.5 c 128,-1,34
 914 100 914 100 941 100 c 0,35,36
 982 100 982 100 1011.5 68 c 128,-1,37
 1041 36 1041 36 1041 -10 c 0,38,39
 1041 -105 1041 -105 944.5 -172.5 c 128,-1,40
 848 -240 848 -240 711 -240 c 0,41,42
 632 -240 632 -240 576.5 -212 c 128,-1,43
 521 -184 521 -184 521 -145 c 0,44,45
 521 -112 521 -112 556 -88.5 c 128,-1,46
 591 -65 591 -65 641 -65 c 0,47,48
 672 -65 672 -65 701 -72.5 c 128,-1,49
 730 -80 730 -80 756 -95 c 1,50,-1
 726 -130 l 1,51,52
 705 -118 705 -118 683 -111.5 c 128,-1,53
 661 -105 661 -105 641 -105 c 0,54,55
 612 -105 612 -105 591.5 -115.5 c 128,-1,56
 571 -126 571 -126 571 -140 c 0,57,58
 571 -165 571 -165 615 -182.5 c 128,-1,59
 659 -200 659 -200 721 -200 c 0,60,61
 833 -200 833 -200 912 -144.5 c 128,-1,62
 991 -89 991 -89 991 -10 c 0,63,64
 991 17 991 17 973.5 36 c 128,-1,65
 956 55 956 55 931 55 c 256,66,67
 906 55 906 55 884 36 c 128,-1,68
 862 17 862 17 851 -15 c 1,69,-1
 851 -130 l 1,70,-1
 801 -130 l 1,71,-1
 801 110 l 1,72,-1
 701 110 l 1,73,74
 671 29 671 29 582 -20.5 c 128,-1,75
 493 -70 493 -70 376 -70 c 0,76,77
 299 -70 299 -70 224 -49.5 c 128,-1,78
 149 -29 149 -29 81 10 c 0,79,80
 53 26 53 26 37 50 c 128,-1,81
 21 74 21 74 21 100 c 1,82,-1
 21 100 l 1,0,1
391 290 m 1,83,84
 391 265 391 265 410 247.5 c 128,-1,85
 429 230 429 230 456 230 c 256,86,87
 483 230 483 230 502 247.5 c 128,-1,88
 521 265 521 265 521 290 c 0,89,90
 521 319 521 319 502 339.5 c 128,-1,91
 483 360 483 360 456 360 c 256,92,93
 429 360 429 360 410 339.5 c 128,-1,94
 391 319 391 319 391 290 c 1,95,-1
 391 290 l 1,83,84
71 90 m 1,96,97
 71 85 71 85 76 77.5 c 128,-1,98
 81 70 81 70 91 60 c 0,99,100
 134 17 134 17 207 -6.5 c 128,-1,101
 280 -30 280 -30 371 -30 c 0,102,103
 474 -30 474 -30 551 8.5 c 128,-1,104
 628 47 628 47 651 110 c 1,105,-1
 91 110 l 2,106,107
 83 110 83 110 77 104 c 128,-1,108
 71 98 71 98 71 90 c 1,109,-1
 71 90 l 1,96,97
EndSplineSet
EndChar

StartChar: u0B87
Encoding: 2951 2951 55
Width: 811
GlyphClass: 2
Flags: W
AnchorPoint: "Anchor-0" 415 667 basechar 0
LayerCount: 2
Fore
SplineSet
266 270 m 1,0,1
 266 241 266 241 283.5 220.5 c 128,-1,2
 301 200 301 200 326 200 c 256,3,4
 351 200 351 200 368.5 220.5 c 128,-1,5
 386 241 386 241 386 270 c 256,6,7
 386 299 386 299 368.5 319.5 c 128,-1,8
 351 340 351 340 326 340 c 256,9,10
 301 340 301 340 283.5 319.5 c 128,-1,11
 266 299 266 299 266 270 c 1,12,-1
 266 270 l 1,0,1
6 -140 m 1,13,14
 6 -92 6 -92 38.5 -49 c 128,-1,15
 71 -6 71 -6 126 20 c 1,16,17
 92 80 92 80 74 146 c 128,-1,18
 56 212 56 212 56 280 c 0,19,20
 56 433 56 433 161.5 541.5 c 128,-1,21
 267 650 267 650 416 650 c 0,22,23
 549 650 549 650 642.5 550.5 c 128,-1,24
 736 451 736 451 736 310 c 2,25,-1
 736 0 l 1,26,-1
 686 0 l 1,27,-1
 686 310 l 2,28,29
 686 434 686 434 607 522 c 128,-1,30
 528 610 528 610 416 610 c 0,31,32
 288 610 288 610 197 513.5 c 128,-1,33
 106 417 106 417 106 280 c 0,34,35
 106 218 106 218 121.5 159.5 c 128,-1,36
 137 101 137 101 166 50 c 1,37,38
 209 75 209 75 264.5 87.5 c 128,-1,39
 320 100 320 100 386 100 c 0,40,41
 413 100 413 100 441 95 c 128,-1,42
 469 90 469 90 496 80 c 1,43,44
 503 108 503 108 507 140.5 c 128,-1,45
 511 173 511 173 511 210 c 0,46,47
 511 276 511 276 474.5 323 c 128,-1,48
 438 370 438 370 386 370 c 2,49,-1
 356 370 l 1,50,51
 388 359 388 359 407 331.5 c 128,-1,52
 426 304 426 304 426 270 c 0,53,54
 426 224 426 224 396.5 192 c 128,-1,55
 367 160 367 160 326 160 c 256,56,57
 285 160 285 160 255.5 192 c 128,-1,58
 226 224 226 224 226 270 c 0,59,60
 226 328 226 328 273 369 c 128,-1,61
 320 410 320 410 386 410 c 0,62,63
 456 410 456 410 506 351.5 c 128,-1,64
 556 293 556 293 556 210 c 0,65,66
 556 168 556 168 551 132.5 c 128,-1,67
 546 97 546 97 536 70 c 1,68,69
 599 47 599 47 637.5 -8 c 128,-1,70
 676 -63 676 -63 676 -130 c 0,71,72
 676 -180 676 -180 635 -215 c 128,-1,73
 594 -250 594 -250 536 -250 c 0,74,75
 480 -250 480 -250 428 -232 c 128,-1,76
 376 -214 376 -214 336 -180 c 1,77,78
 296 -214 296 -214 239 -232 c 128,-1,79
 182 -250 182 -250 116 -250 c 0,80,81
 70 -250 70 -250 38 -218 c 128,-1,82
 6 -186 6 -186 6 -140 c 1,83,-1
 6 -140 l 1,13,14
56 -140 m 1,84,85
 56 -169 56 -169 73.5 -189.5 c 128,-1,86
 91 -210 91 -210 116 -210 c 0,87,88
 163 -210 163 -210 208 -196 c 128,-1,89
 253 -182 253 -182 291 -155 c 1,90,91
 240 -119 240 -119 203.5 -82.5 c 128,-1,92
 167 -46 167 -46 146 -10 c 1,93,94
 105 -31 105 -31 80.5 -66 c 128,-1,95
 56 -101 56 -101 56 -140 c 1,96,-1
 56 -140 l 1,84,85
196 10 m 1,97,98
 219 -30 219 -30 254.5 -64.5 c 128,-1,99
 290 -99 290 -99 336 -125 c 1,100,101
 388 -88 388 -88 424 -46 c 128,-1,102
 460 -4 460 -4 476 40 c 1,103,104
 449 50 449 50 426 55 c 128,-1,105
 403 60 403 60 386 60 c 0,106,107
 335 60 335 60 287 47.5 c 128,-1,108
 239 35 239 35 196 10 c 1,109,-1
 196 10 l 1,97,98
376 -155 m 1,110,111
 423 -182 423 -182 463.5 -196 c 128,-1,112
 504 -210 504 -210 536 -210 c 0,113,114
 573 -210 573 -210 599.5 -186.5 c 128,-1,115
 626 -163 626 -163 626 -130 c 0,116,117
 626 -76 626 -76 596 -32 c 128,-1,118
 566 12 566 12 516 30 c 1,119,120
 495 -27 495 -27 459.5 -74.5 c 128,-1,121
 424 -122 424 -122 376 -155 c 1,122,-1
 376 -155 l 1,110,111
EndSplineSet
EndChar

StartChar: u0B88
Encoding: 2952 2952 56
Width: 588
GlyphClass: 2
Flags: W
AnchorPoint: "Anchor-0" 322 412 basechar 0
LayerCount: 2
Fore
SplineSet
75 400 m 1,0,-1
 575 400 l 1,1,-1
 575 360 l 1,2,-1
 395 360 l 1,3,-1
 395 0 l 1,4,-1
 345 0 l 1,5,-1
 345 360 l 1,6,-1
 125 360 l 1,7,-1
 125 0 l 1,8,-1
 75 0 l 1,9,-1
 75 400 l 1,10,-1
 75 400 l 1,0,-1
465 200 m 1,11,12
 465 217 465 217 476.5 228.5 c 128,-1,13
 488 240 488 240 505 240 c 256,14,15
 522 240 522 240 533.5 228.5 c 128,-1,16
 545 217 545 217 545 200 c 256,17,18
 545 183 545 183 533.5 171.5 c 128,-1,19
 522 160 522 160 505 160 c 256,20,21
 488 160 488 160 476.5 171.5 c 128,-1,22
 465 183 465 183 465 200 c 1,23,-1
 465 200 l 1,11,12
195 200 m 1,24,25
 195 217 195 217 206.5 228.5 c 128,-1,26
 218 240 218 240 235 240 c 256,27,28
 252 240 252 240 263.5 228.5 c 128,-1,29
 275 217 275 217 275 200 c 256,30,31
 275 183 275 183 263.5 171.5 c 128,-1,32
 252 160 252 160 235 160 c 256,33,34
 218 160 218 160 206.5 171.5 c 128,-1,35
 195 183 195 183 195 200 c 1,36,-1
 195 200 l 1,24,25
EndSplineSet
EndChar

StartChar: u0B89
Encoding: 2953 2953 57
Width: 756
GlyphClass: 2
Flags: W
AnchorPoint: "Anchor-0" 385 425 basechar 0
LayerCount: 2
Fore
SplineSet
88 280 m 1,0,1
 88 259 88 259 102.5 244.5 c 128,-1,2
 117 230 117 230 138 230 c 256,3,4
 159 230 159 230 173.5 244.5 c 128,-1,5
 188 259 188 259 188 280 c 0,6,7
 188 305 188 305 173.5 322.5 c 128,-1,8
 159 340 159 340 138 340 c 256,9,10
 117 340 117 340 102.5 322.5 c 128,-1,11
 88 305 88 305 88 280 c 1,12,-1
 88 280 l 1,0,1
48 290 m 1,13,14
 48 340 48 340 98 375 c 128,-1,15
 148 410 148 410 218 410 c 0,16,17
 301 410 301 410 359.5 363 c 128,-1,18
 418 316 418 316 418 250 c 0,19,20
 418 188 418 188 368 144 c 128,-1,21
 318 100 318 100 248 100 c 2,22,-1
 138 100 l 2,23,24
 121 100 121 100 109.5 91 c 128,-1,25
 98 82 98 82 98 70 c 256,26,27
 98 58 98 58 109.5 49 c 128,-1,28
 121 40 121 40 138 40 c 2,29,-1
 748 40 l 1,30,-1
 748 0 l 1,31,-1
 138 0 l 2,32,33
 101 0 101 0 74.5 20.5 c 128,-1,34
 48 41 48 41 48 70 c 256,35,36
 48 99 48 99 74.5 119.5 c 128,-1,37
 101 140 101 140 138 140 c 2,38,-1
 248 140 l 2,39,40
 298 140 298 140 333 172 c 128,-1,41
 368 204 368 204 368 250 c 0,42,43
 368 300 368 300 324 335 c 128,-1,44
 280 370 280 370 218 370 c 2,45,-1
 158 370 l 1,46,47
 190 359 190 359 209 334 c 128,-1,48
 228 309 228 309 228 280 c 0,49,50
 228 243 228 243 201.5 216.5 c 128,-1,51
 175 190 175 190 138 190 c 256,52,53
 101 190 101 190 74.5 219.5 c 128,-1,54
 48 249 48 249 48 290 c 1,55,-1
 48 290 l 1,13,14
EndSplineSet
EndChar

StartChar: u0B8A
Encoding: 2954 2954 58
Width: 1049
GlyphClass: 2
Flags: W
AnchorPoint: "Anchor-0" 518 419 basechar 0
LayerCount: 2
Fore
SplineSet
88 280 m 1,0,1
 88 259 88 259 102.5 244.5 c 128,-1,2
 117 230 117 230 138 230 c 256,3,4
 159 230 159 230 173.5 244.5 c 128,-1,5
 188 259 188 259 188 280 c 0,6,7
 188 305 188 305 173.5 322.5 c 128,-1,8
 159 340 159 340 138 340 c 256,9,10
 117 340 117 340 102.5 322.5 c 128,-1,11
 88 305 88 305 88 280 c 1,12,-1
 88 280 l 1,0,1
538 170 m 1,13,14
 538 149 538 149 555.5 134.5 c 128,-1,15
 573 120 573 120 598 120 c 0,16,17
 619 120 619 120 633.5 134.5 c 128,-1,18
 648 149 648 149 648 170 c 256,19,20
 648 191 648 191 633.5 205.5 c 128,-1,21
 619 220 619 220 598 220 c 0,22,23
 573 220 573 220 555.5 205.5 c 128,-1,24
 538 191 538 191 538 170 c 1,25,-1
 538 170 l 1,13,14
48 290 m 1,26,27
 48 340 48 340 98 375 c 128,-1,28
 148 410 148 410 218 410 c 0,29,30
 301 410 301 410 359.5 363 c 128,-1,31
 418 316 418 316 418 250 c 0,32,33
 418 188 418 188 368 144 c 128,-1,34
 318 100 318 100 248 100 c 2,35,-1
 138 100 l 2,36,37
 121 100 121 100 109.5 91 c 128,-1,38
 98 82 98 82 98 70 c 256,39,40
 98 58 98 58 109.5 49 c 128,-1,41
 121 40 121 40 138 40 c 2,42,-1
 1008 40 l 1,43,-1
 1008 0 l 1,44,-1
 138 0 l 2,45,46
 101 0 101 0 74.5 20.5 c 128,-1,47
 48 41 48 41 48 70 c 256,48,49
 48 99 48 99 74.5 119.5 c 128,-1,50
 101 140 101 140 138 140 c 2,51,-1
 248 140 l 2,52,53
 298 140 298 140 333 172 c 128,-1,54
 368 204 368 204 368 250 c 0,55,56
 368 300 368 300 324 335 c 128,-1,57
 280 370 280 370 218 370 c 2,58,-1
 158 370 l 1,59,60
 190 359 190 359 209 334 c 128,-1,61
 228 309 228 309 228 280 c 0,62,63
 228 243 228 243 201.5 216.5 c 128,-1,64
 175 190 175 190 138 190 c 256,65,66
 101 190 101 190 74.5 219.5 c 128,-1,67
 48 249 48 249 48 290 c 1,68,-1
 48 290 l 1,26,27
478 240 m 1,69,70
 478 310 478 310 525 360 c 128,-1,71
 572 410 572 410 638 410 c 0,72,73
 670 410 670 410 699 397 c 128,-1,74
 728 384 728 384 748 360 c 1,75,-1
 748 400 l 1,76,-1
 1038 400 l 1,77,-1
 1038 360 l 1,78,-1
 938 360 l 1,79,-1
 938 80 l 1,80,-1
 888 80 l 1,81,-1
 888 360 l 1,82,-1
 798 360 l 1,83,-1
 798 80 l 1,84,-1
 748 80 l 1,85,-1
 748 240 l 2,86,87
 748 294 748 294 716 332 c 128,-1,88
 684 370 684 370 638 370 c 0,89,90
 588 370 588 370 553 332 c 128,-1,91
 518 294 518 294 518 240 c 2,92,-1
 518 210 l 1,93,94
 538 234 538 234 559 247 c 128,-1,95
 580 260 580 260 598 260 c 0,96,97
 635 260 635 260 661.5 233.5 c 128,-1,98
 688 207 688 207 688 170 c 256,99,100
 688 133 688 133 658.5 106.5 c 128,-1,101
 629 80 629 80 588 80 c 0,102,103
 542 80 542 80 510 127 c 128,-1,104
 478 174 478 174 478 240 c 1,105,-1
 478 240 l 1,69,70
EndSplineSet
EndChar

StartChar: u0B8E
Encoding: 2958 2958 59
Width: 650
GlyphClass: 2
Flags: W
AnchorPoint: "Anchor-0" 354 412 basechar 0
LayerCount: 2
Fore
SplineSet
174 110 m 1,0,1
 174 77 174 77 191.5 53.5 c 128,-1,2
 209 30 209 30 234 30 c 256,3,4
 259 30 259 30 276.5 53.5 c 128,-1,5
 294 77 294 77 294 110 c 0,6,7
 294 139 294 139 276.5 159.5 c 128,-1,8
 259 180 259 180 234 180 c 256,9,10
 209 180 209 180 191.5 159.5 c 128,-1,11
 174 139 174 139 174 110 c 1,12,-1
 174 110 l 1,0,1
454 360 m 1,13,-1
 254 360 l 2,14,15
 184 360 184 360 134 307.5 c 128,-1,16
 84 255 84 255 84 180 c 0,17,18
 84 136 84 136 105.5 98.5 c 128,-1,19
 127 61 127 61 164 40 c 1,20,21
 149 57 149 57 141.5 75 c 128,-1,22
 134 93 134 93 134 110 c 0,23,24
 134 156 134 156 163.5 188 c 128,-1,25
 193 220 193 220 234 220 c 0,26,27
 280 220 280 220 312 188 c 128,-1,28
 344 156 344 156 344 110 c 0,29,30
 344 60 344 60 306 25 c 128,-1,31
 268 -10 268 -10 214 -10 c 0,32,33
 144 -10 144 -10 94 45.5 c 128,-1,34
 44 101 44 101 44 180 c 0,35,36
 44 271 44 271 105.5 335.5 c 128,-1,37
 167 400 167 400 254 400 c 2,38,-1
 644 400 l 1,39,-1
 644 360 l 1,40,-1
 504 360 l 1,41,-1
 504 0 l 1,42,-1
 454 0 l 1,43,-1
 454 360 l 1,44,-1
 454 360 l 1,13,-1
EndSplineSet
EndChar

StartChar: u0B8F
Encoding: 2959 2959 60
Width: 649
GlyphClass: 2
Flags: W
AnchorPoint: "Anchor-0" 358 412 basechar 0
LayerCount: 2
Fore
SplineSet
173 110 m 1,0,1
 173 77 173 77 190.5 53.5 c 128,-1,2
 208 30 208 30 233 30 c 256,3,4
 258 30 258 30 275.5 53.5 c 128,-1,5
 293 77 293 77 293 110 c 0,6,7
 293 139 293 139 275.5 159.5 c 128,-1,8
 258 180 258 180 233 180 c 256,9,10
 208 180 208 180 190.5 159.5 c 128,-1,11
 173 139 173 139 173 110 c 1,12,-1
 173 110 l 1,0,1
453 360 m 1,13,-1
 253 360 l 2,14,15
 183 360 183 360 133 307.5 c 128,-1,16
 83 255 83 255 83 180 c 0,17,18
 83 141 83 141 104 103.5 c 128,-1,19
 125 66 125 66 163 40 c 1,20,21
 148 57 148 57 140.5 75 c 128,-1,22
 133 93 133 93 133 110 c 0,23,24
 133 156 133 156 162.5 188 c 128,-1,25
 192 220 192 220 233 220 c 0,26,27
 279 220 279 220 311 188 c 128,-1,28
 343 156 343 156 343 110 c 0,29,30
 343 56 343 56 309 23 c 128,-1,31
 275 -10 275 -10 218 -10 c 0,32,33
 146 -10 146 -10 94.5 45.5 c 128,-1,34
 43 101 43 101 43 180 c 0,35,36
 43 271 43 271 104.5 335.5 c 128,-1,37
 166 400 166 400 253 400 c 2,38,-1
 643 400 l 1,39,-1
 643 360 l 1,40,-1
 503 360 l 1,41,-1
 503 0 l 1,42,43
 452 -19 452 -19 408 -57.5 c 128,-1,44
 364 -96 364 -96 333 -150 c 1,45,-1
 288 -120 l 1,46,47
 320 -65 320 -65 362.5 -26.5 c 128,-1,48
 405 12 405 12 453 30 c 1,49,-1
 453 360 l 1,50,-1
 453 360 l 1,13,-1
EndSplineSet
EndChar

StartChar: u0B90
Encoding: 2960 2960 61
Width: 669
GlyphClass: 2
Flags: W
AnchorPoint: "Anchor-0" 344 410 basechar 0
LayerCount: 2
Fore
SplineSet
33 -60 m 1,0,1
 33 6 33 6 77 53 c 128,-1,2
 121 100 121 100 183 100 c 2,3,-1
 433 100 l 2,4,5
 495 100 495 100 539 138 c 128,-1,6
 583 176 583 176 583 230 c 0,7,8
 583 288 583 288 553.5 329 c 128,-1,9
 524 370 524 370 483 370 c 0,10,11
 437 370 437 370 405 340.5 c 128,-1,12
 373 311 373 311 373 270 c 2,13,-1
 373 140 l 1,14,-1
 323 140 l 1,15,-1
 323 270 l 2,16,17
 323 311 323 311 288 340.5 c 128,-1,18
 253 370 253 370 203 370 c 0,19,20
 165 370 165 370 134.5 351 c 128,-1,21
 104 332 104 332 93 300 c 1,22,23
 107 312 107 312 125.5 318.5 c 128,-1,24
 144 325 144 325 163 325 c 0,25,26
 200 325 200 325 226.5 300 c 128,-1,27
 253 275 253 275 253 240 c 0,28,29
 253 199 253 199 223.5 169.5 c 128,-1,30
 194 140 194 140 153 140 c 0,31,32
 107 140 107 140 75 172 c 128,-1,33
 43 204 43 204 43 250 c 0,34,35
 43 316 43 316 90 363 c 128,-1,36
 137 410 137 410 203 410 c 0,37,38
 250 410 250 410 289 390 c 128,-1,39
 328 370 328 370 348 335 c 1,40,41
 368 370 368 370 404 390 c 128,-1,42
 440 410 440 410 483 410 c 0,43,44
 543 410 543 410 585.5 357.5 c 128,-1,45
 628 305 628 305 628 230 c 0,46,47
 628 160 628 160 571 110 c 128,-1,48
 514 60 514 60 433 60 c 2,49,-1
 183 60 l 2,50,51
 142 60 142 60 112.5 25 c 128,-1,52
 83 -10 83 -10 83 -60 c 0,53,54
 83 -114 83 -114 115 -152 c 128,-1,55
 147 -190 147 -190 193 -190 c 0,56,57
 247 -190 247 -190 285 -152 c 128,-1,58
 323 -114 323 -114 323 -60 c 2,59,-1
 323 10 l 1,60,-1
 373 10 l 1,61,-1
 373 -60 l 2,62,63
 373 -114 373 -114 405 -152 c 128,-1,64
 437 -190 437 -190 483 -190 c 0,65,66
 524 -190 524 -190 553.5 -163.5 c 128,-1,67
 583 -137 583 -137 583 -100 c 0,68,69
 583 -72 583 -72 567 -46.5 c 128,-1,70
 551 -21 551 -21 523 -5 c 1,71,-1
 543 35 l 1,72,73
 581 21 581 21 604.5 -16 c 128,-1,74
 628 -53 628 -53 628 -100 c 0,75,76
 628 -154 628 -154 588.5 -192 c 128,-1,77
 549 -230 549 -230 493 -230 c 0,78,79
 442 -230 442 -230 402 -211 c 128,-1,80
 362 -192 362 -192 343 -160 c 1,81,82
 324 -192 324 -192 284 -211 c 128,-1,83
 244 -230 244 -230 193 -230 c 0,84,85
 127 -230 127 -230 80 -180 c 128,-1,86
 33 -130 33 -130 33 -60 c 1,87,-1
 33 -60 l 1,0,1
83 240 m 1,88,89
 83 215 83 215 103.5 197.5 c 128,-1,90
 124 180 124 180 153 180 c 0,91,92
 178 180 178 180 195.5 197.5 c 128,-1,93
 213 215 213 215 213 240 c 0,94,95
 213 261 213 261 195.5 275.5 c 128,-1,96
 178 290 178 290 153 290 c 0,97,98
 124 290 124 290 103.5 275.5 c 128,-1,99
 83 261 83 261 83 240 c 1,100,-1
 83 240 l 1,88,89
EndSplineSet
EndChar

StartChar: u0B92
Encoding: 2962 2962 62
Width: 698
GlyphClass: 2
Flags: W
AnchorPoint: "Anchor-0" 348 422 basechar 0
LayerCount: 2
Fore
SplineSet
40 150 m 1,0,1
 40 262 40 262 128 341 c 128,-1,2
 216 420 216 420 340 420 c 0,3,4
 473 420 473 420 566.5 341 c 128,-1,5
 660 262 660 262 660 150 c 0,6,7
 660 100 660 100 625 65 c 128,-1,8
 590 30 590 30 540 30 c 0,9,10
 494 30 494 30 462 59.5 c 128,-1,11
 430 89 430 89 430 130 c 0,12,13
 430 138 430 138 436.5 153.5 c 128,-1,14
 443 169 443 169 455 190 c 1,15,16
 425 173 425 173 407.5 146 c 128,-1,17
 390 119 390 119 390 90 c 0,18,19
 390 44 390 44 431 12 c 128,-1,20
 472 -20 472 -20 530 -20 c 2,21,-1
 640 -20 l 1,22,-1
 640 -60 l 1,23,-1
 490 -60 l 2,24,25
 469 -60 469 -60 449 -82.5 c 128,-1,26
 429 -105 429 -105 420 -140 c 0,27,28
 407 -189 407 -189 365 -219.5 c 128,-1,29
 323 -250 323 -250 270 -250 c 0,30,31
 216 -250 216 -250 178 -218 c 128,-1,32
 140 -186 140 -186 140 -140 c 0,33,34
 140 -99 140 -99 166.5 -69.5 c 128,-1,35
 193 -40 193 -40 230 -40 c 1,36,-1
 230 -80 l 1,37,38
 209 -80 209 -80 194.5 -97.5 c 128,-1,39
 180 -115 180 -115 180 -140 c 0,40,41
 180 -169 180 -169 206.5 -189.5 c 128,-1,42
 233 -210 233 -210 270 -210 c 0,43,44
 306 -210 306 -210 334 -190.5 c 128,-1,45
 362 -171 362 -171 370 -140 c 0,46,47
 380 -103 380 -103 401 -76.5 c 128,-1,48
 422 -50 422 -50 450 -40 c 1,49,50
 405 -24 405 -24 377.5 12 c 128,-1,51
 350 48 350 48 350 90 c 0,52,53
 350 148 350 148 397 189 c 128,-1,54
 444 230 444 230 510 230 c 1,55,56
 491 207 491 207 480.5 181 c 128,-1,57
 470 155 470 155 470 130 c 256,58,59
 470 105 470 105 490.5 87.5 c 128,-1,60
 511 70 511 70 540 70 c 256,61,62
 569 70 569 70 589.5 93.5 c 128,-1,63
 610 117 610 117 610 150 c 0,64,65
 610 245 610 245 531 312.5 c 128,-1,66
 452 380 452 380 340 380 c 0,67,68
 234 380 234 380 159.5 312.5 c 128,-1,69
 85 245 85 245 85 150 c 0,70,71
 85 144 85 144 88 134 c 128,-1,72
 91 124 91 124 100 100 c 1,73,74
 100 152 100 152 126.5 188.5 c 128,-1,75
 153 225 153 225 190 225 c 0,76,77
 231 225 231 225 260.5 194 c 128,-1,78
 290 163 290 163 290 120 c 0,79,80
 290 74 290 74 260.5 42 c 128,-1,81
 231 10 231 10 190 10 c 0,82,83
 128 10 128 10 84 51 c 128,-1,84
 40 92 40 92 40 150 c 1,85,-1
 40 150 l 1,0,1
140 120 m 1,86,87
 140 91 140 91 154.5 70.5 c 128,-1,88
 169 50 169 50 190 50 c 256,89,90
 211 50 211 50 225.5 70.5 c 128,-1,91
 240 91 240 91 240 120 c 0,92,93
 240 145 240 145 225.5 162.5 c 128,-1,94
 211 180 211 180 190 180 c 256,95,96
 169 180 169 180 154.5 162.5 c 128,-1,97
 140 145 140 145 140 120 c 1,98,-1
 140 120 l 1,86,87
EndSplineSet
EndChar

StartChar: u0B93
Encoding: 2963 2963 63
Width: 699
GlyphClass: 2
Flags: W
AnchorPoint: "Anchor-0" 340 430 basechar 0
LayerCount: 2
Fore
SplineSet
41 170 m 5,0,1
 41 274 41 274 129 347 c 132,-1,2
 217 420 217 420 341 420 c 4,3,4
 474 420 474 420 567.5 341 c 132,-1,5
 661 262 661 262 661 150 c 4,6,7
 661 100 661 100 626 65 c 132,-1,8
 591 30 591 30 541 30 c 4,9,10
 495 30 495 30 463 59.5 c 132,-1,11
 431 89 431 89 431 130 c 4,12,13
 431 138 431 138 437.5 153.5 c 132,-1,14
 444 169 444 169 456 190 c 5,15,16
 426 173 426 173 408.5 146 c 132,-1,17
 391 119 391 119 391 90 c 4,18,19
 391 44 391 44 432 12 c 132,-1,20
 473 -20 473 -20 531 -20 c 6,21,-1
 641 -20 l 5,22,-1
 641 -60 l 5,23,-1
 491 -60 l 6,24,25
 470 -60 470 -60 450 -82.5 c 132,-1,26
 430 -105 430 -105 421 -140 c 4,27,28
 408 -189 408 -189 371.5 -219.5 c 132,-1,29
 335 -250 335 -250 291 -250 c 4,30,31
 229 -250 229 -250 185 -218 c 132,-1,32
 141 -186 141 -186 141 -140 c 4,33,34
 141 -99 141 -99 167.5 -69.5 c 132,-1,35
 194 -40 194 -40 231 -40 c 4,36,37
 264 -40 264 -40 287.5 -63.5 c 132,-1,38
 311 -87 311 -87 311 -120 c 260,39,40
 311 -153 311 -153 290.5 -176.5 c 132,-1,41
 270 -200 270 -200 241 -200 c 5,42,43
 255 -205 255 -205 267.5 -207.5 c 132,-1,44
 280 -210 280 -210 291 -210 c 4,45,46
 318 -210 318 -210 340.5 -190.5 c 132,-1,47
 363 -171 363 -171 371 -140 c 4,48,49
 381 -103 381 -103 402 -76.5 c 132,-1,50
 423 -50 423 -50 451 -40 c 5,51,52
 406 -24 406 -24 378.5 12 c 132,-1,53
 351 48 351 48 351 90 c 4,54,55
 351 148 351 148 398 189 c 132,-1,56
 445 230 445 230 511 230 c 5,57,58
 492 207 492 207 481.5 181 c 132,-1,59
 471 155 471 155 471 130 c 260,60,61
 471 105 471 105 491.5 87.5 c 132,-1,62
 512 70 512 70 541 70 c 260,63,64
 570 70 570 70 590.5 93.5 c 132,-1,65
 611 117 611 117 611 150 c 4,66,67
 611 245 611 245 532 312.5 c 132,-1,68
 453 380 453 380 341 380 c 4,69,70
 233 380 233 380 157 318.5 c 132,-1,71
 81 257 81 257 81 170 c 4,72,73
 81 154 81 154 83.5 139 c 132,-1,74
 86 124 86 124 91 110 c 5,75,76
 91 158 91 158 120.5 191.5 c 132,-1,77
 150 225 150 225 191 225 c 260,78,79
 232 225 232 225 261.5 194 c 132,-1,80
 291 163 291 163 291 120 c 4,81,82
 291 74 291 74 261.5 42 c 132,-1,83
 232 10 232 10 191 10 c 4,84,85
 129 10 129 10 85 57 c 132,-1,86
 41 104 41 104 41 170 c 5,87,-1
 41 170 l 5,0,1
141 120 m 5,88,89
 141 91 141 91 155.5 70.5 c 132,-1,90
 170 50 170 50 191 50 c 260,91,92
 212 50 212 50 226.5 70.5 c 132,-1,93
 241 91 241 91 241 120 c 4,94,95
 241 145 241 145 226.5 162.5 c 132,-1,96
 212 180 212 180 191 180 c 260,97,98
 170 180 170 180 155.5 162.5 c 132,-1,99
 141 145 141 145 141 120 c 5,100,-1
 141 120 l 5,88,89
181 -140 m 5,101,102
 181 -152 181 -152 195.5 -161 c 132,-1,103
 210 -170 210 -170 231 -170 c 4,104,105
 248 -170 248 -170 259.5 -155.5 c 132,-1,106
 271 -141 271 -141 271 -120 c 4,107,108
 271 -103 271 -103 259.5 -91.5 c 132,-1,109
 248 -80 248 -80 231 -80 c 4,110,111
 210 -80 210 -80 195.5 -97.5 c 132,-1,112
 181 -115 181 -115 181 -140 c 5,113,-1
 181 -140 l 5,101,102
EndSplineSet
EndChar

StartChar: u0B94
Encoding: 2964 2964 64
Width: 1421
GlyphClass: 2
Flags: W
AnchorPoint: "Anchor-0" 715 418 basechar 0
LayerCount: 2
Fore
SplineSet
40 150 m 1,0,1
 40 262 40 262 128 341 c 128,-1,2
 216 420 216 420 340 420 c 0,3,4
 473 420 473 420 566.5 341 c 128,-1,5
 660 262 660 262 660 150 c 0,6,7
 660 100 660 100 625 65 c 128,-1,8
 590 30 590 30 540 30 c 0,9,10
 494 30 494 30 462 59.5 c 128,-1,11
 430 89 430 89 430 130 c 0,12,13
 430 138 430 138 436.5 153.5 c 128,-1,14
 443 169 443 169 455 190 c 1,15,16
 425 173 425 173 407.5 146 c 128,-1,17
 390 119 390 119 390 90 c 0,18,19
 390 44 390 44 431 12 c 128,-1,20
 472 -20 472 -20 530 -20 c 2,21,-1
 640 -20 l 1,22,-1
 640 -60 l 1,23,-1
 490 -60 l 2,24,25
 469 -60 469 -60 449 -82.5 c 128,-1,26
 429 -105 429 -105 420 -140 c 0,27,28
 407 -189 407 -189 365 -219.5 c 128,-1,29
 323 -250 323 -250 270 -250 c 0,30,31
 216 -250 216 -250 178 -218 c 128,-1,32
 140 -186 140 -186 140 -140 c 0,33,34
 140 -99 140 -99 166.5 -69.5 c 128,-1,35
 193 -40 193 -40 230 -40 c 1,36,-1
 230 -80 l 1,37,38
 209 -80 209 -80 194.5 -97.5 c 128,-1,39
 180 -115 180 -115 180 -140 c 0,40,41
 180 -169 180 -169 206.5 -189.5 c 128,-1,42
 233 -210 233 -210 270 -210 c 0,43,44
 306 -210 306 -210 334 -190.5 c 128,-1,45
 362 -171 362 -171 370 -140 c 0,46,47
 380 -103 380 -103 401 -76.5 c 128,-1,48
 422 -50 422 -50 450 -40 c 1,49,50
 405 -24 405 -24 377.5 12 c 128,-1,51
 350 48 350 48 350 90 c 0,52,53
 350 148 350 148 397 189 c 128,-1,54
 444 230 444 230 510 230 c 1,55,56
 491 207 491 207 480.5 181 c 128,-1,57
 470 155 470 155 470 130 c 256,58,59
 470 105 470 105 490.5 87.5 c 128,-1,60
 511 70 511 70 540 70 c 256,61,62
 569 70 569 70 589.5 93.5 c 128,-1,63
 610 117 610 117 610 150 c 0,64,65
 610 245 610 245 531 312.5 c 128,-1,66
 452 380 452 380 340 380 c 0,67,68
 234 380 234 380 159.5 312.5 c 128,-1,69
 85 245 85 245 85 150 c 0,70,71
 85 144 85 144 88 134 c 128,-1,72
 91 124 91 124 100 100 c 1,73,74
 100 152 100 152 126.5 188.5 c 128,-1,75
 153 225 153 225 190 225 c 0,76,77
 231 225 231 225 260.5 194 c 128,-1,78
 290 163 290 163 290 120 c 0,79,80
 290 74 290 74 260.5 42 c 128,-1,81
 231 10 231 10 190 10 c 0,82,83
 128 10 128 10 84 51 c 128,-1,84
 40 92 40 92 40 150 c 1,85,-1
 40 150 l 1,0,1
140 120 m 1,86,87
 140 91 140 91 154.5 70.5 c 128,-1,88
 169 50 169 50 190 50 c 256,89,90
 211 50 211 50 225.5 70.5 c 128,-1,91
 240 91 240 91 240 120 c 0,92,93
 240 145 240 145 225.5 162.5 c 128,-1,94
 211 180 211 180 190 180 c 256,95,96
 169 180 169 180 154.5 162.5 c 128,-1,97
 140 145 140 145 140 120 c 1,98,-1
 140 120 l 1,86,87
835 120 m 1,99,100
 835 87 835 87 852.5 63.5 c 128,-1,101
 870 40 870 40 895 40 c 256,102,103
 920 40 920 40 937.5 63.5 c 128,-1,104
 955 87 955 87 955 120 c 0,105,106
 955 149 955 149 937.5 169.5 c 128,-1,107
 920 190 920 190 895 190 c 256,108,109
 870 190 870 190 852.5 169.5 c 128,-1,110
 835 149 835 149 835 120 c 1,111,-1
 835 120 l 1,99,100
1065 400 m 1,112,-1
 1415 400 l 1,113,-1
 1415 360 l 1,114,-1
 1305 360 l 1,115,-1
 1305 0 l 1,116,-1
 1255 0 l 1,117,-1
 1255 360 l 1,118,-1
 1105 360 l 1,119,-1
 1105 0 l 1,120,-1
 1055 0 l 1,121,-1
 1055 200 l 2,122,123
 1055 270 1055 270 1011 320 c 128,-1,124
 967 370 967 370 905 370 c 256,125,126
 843 370 843 370 799 317.5 c 128,-1,127
 755 265 755 265 755 190 c 0,128,129
 755 152 755 152 770.5 118 c 128,-1,130
 786 84 786 84 815 60 c 1,131,132
 805 77 805 77 800 92.5 c 128,-1,133
 795 108 795 108 795 120 c 0,134,135
 795 166 795 166 824.5 198 c 128,-1,136
 854 230 854 230 895 230 c 256,137,138
 936 230 936 230 965.5 198 c 128,-1,139
 995 166 995 166 995 120 c 0,140,141
 995 66 995 66 960 28 c 128,-1,142
 925 -10 925 -10 875 -10 c 0,143,144
 809 -10 809 -10 762 48.5 c 128,-1,145
 715 107 715 107 715 190 c 0,146,147
 715 281 715 281 770.5 345.5 c 128,-1,148
 826 410 826 410 905 410 c 0,149,150
 958 410 958 410 1001 388.5 c 128,-1,151
 1044 367 1044 367 1065 330 c 1,152,-1
 1065 400 l 1,153,-1
 1065 400 l 1,112,-1
EndSplineSet
EndChar

StartChar: u0B95
Encoding: 2965 2965 65
Width: 533
GlyphClass: 2
Flags: W
AnchorPoint: "Anchor-0" 268 402 basechar 0
LayerCount: 2
Fore
SplineSet
178 220 m 1,0,-1
 278 220 l 1,1,-1
 278 360 l 1,2,-1
 178 360 l 1,3,-1
 178 220 l 1,4,-1
 178 220 l 1,0,-1
78 130 m 1,5,6
 78 89 78 89 110 59.5 c 128,-1,7
 142 30 142 30 188 30 c 0,8,9
 225 30 225 30 251.5 53.5 c 128,-1,10
 278 77 278 77 278 110 c 2,11,-1
 278 180 l 1,12,-1
 128 180 l 2,13,14
 107 180 107 180 92.5 165.5 c 128,-1,15
 78 151 78 151 78 130 c 1,16,-1
 78 130 l 1,5,6
128 400 m 1,17,-1
 478 400 l 1,18,-1
 478 360 l 1,19,-1
 328 360 l 1,20,-1
 328 220 l 1,21,-1
 388 220 l 2,22,23
 434 220 434 220 466 188 c 128,-1,24
 498 156 498 156 498 110 c 0,25,26
 498 60 498 60 468.5 25 c 128,-1,27
 439 -10 439 -10 398 -10 c 0,28,29
 387 -10 387 -10 374.5 -7.5 c 128,-1,30
 362 -5 362 -5 348 0 c 1,31,-1
 358 40 l 1,32,33
 367 35 367 35 377 32.5 c 128,-1,34
 387 30 387 30 398 30 c 0,35,36
 419 30 419 30 433.5 53.5 c 128,-1,37
 448 77 448 77 448 110 c 0,38,39
 448 139 448 139 430.5 159.5 c 128,-1,40
 413 180 413 180 388 180 c 2,41,-1
 328 180 l 1,42,-1
 328 110 l 2,43,44
 328 60 328 60 287 25 c 128,-1,45
 246 -10 246 -10 188 -10 c 0,46,47
 122 -10 122 -10 75 31 c 128,-1,48
 28 72 28 72 28 130 c 0,49,50
 28 167 28 167 57.5 193.5 c 128,-1,51
 87 220 87 220 128 220 c 1,52,-1
 128 400 l 1,53,-1
 128 400 l 1,17,-1
EndSplineSet
EndChar

StartChar: u0B99
Encoding: 2969 2969 66
Width: 730
GlyphClass: 2
Flags: W
AnchorPoint: "Anchor-0" 365 400 basechar 0
LayerCount: 2
Fore
SplineSet
245 40 m 1,0,-1
 355 40 l 2,1,2
 392 40 392 40 418.5 66.5 c 128,-1,3
 445 93 445 93 445 130 c 0,4,5
 445 159 445 159 421.5 179.5 c 128,-1,6
 398 200 398 200 365 200 c 0,7,8
 348 200 348 200 329.5 189.5 c 128,-1,9
 311 179 311 179 295 160 c 1,10,-1
 295 80 l 1,11,-1
 245 80 l 1,12,-1
 245 360 l 1,13,-1
 125 360 l 1,14,-1
 125 0 l 1,15,-1
 75 0 l 1,16,-1
 75 400 l 1,17,-1
 435 400 l 1,18,-1
 435 360 l 1,19,-1
 295 360 l 1,20,-1
 295 215 l 1,21,22
 315 232 315 232 335.5 241 c 128,-1,23
 356 250 356 250 375 250 c 0,24,25
 425 250 425 250 460 215 c 128,-1,26
 495 180 495 180 495 130 c 0,27,28
 495 103 495 103 484.5 79.5 c 128,-1,29
 474 56 474 56 455 40 c 1,30,-1
 605 40 l 1,31,-1
 605 400 l 1,32,-1
 655 400 l 1,33,-1
 655 0 l 1,34,-1
 245 0 l 1,35,-1
 245 40 l 1,36,-1
 245 40 l 1,0,-1
EndSplineSet
EndChar

StartChar: u0B9A
Encoding: 2970 2970 67
Width: 462
GlyphClass: 2
Flags: W
AnchorPoint: "Anchor-0" 244 403 basechar 0
LayerCount: 2
Fore
SplineSet
178 220 m 1,0,-1
 278 220 l 1,1,-1
 278 360 l 1,2,-1
 178 360 l 1,3,-1
 178 220 l 1,4,-1
 178 220 l 1,0,-1
78 130 m 1,5,6
 78 89 78 89 110 59.5 c 128,-1,7
 142 30 142 30 188 30 c 0,8,9
 225 30 225 30 251.5 53.5 c 128,-1,10
 278 77 278 77 278 110 c 2,11,-1
 278 180 l 1,12,-1
 128 180 l 2,13,14
 107 180 107 180 92.5 165.5 c 128,-1,15
 78 151 78 151 78 130 c 1,16,-1
 78 130 l 1,5,6
128 400 m 1,17,-1
 448 400 l 1,18,-1
 448 360 l 1,19,-1
 328 360 l 1,20,-1
 328 220 l 1,21,-1
 448 220 l 1,22,-1
 448 180 l 1,23,-1
 328 180 l 1,24,-1
 328 110 l 2,25,26
 328 60 328 60 287 25 c 128,-1,27
 246 -10 246 -10 188 -10 c 0,28,29
 122 -10 122 -10 75 31 c 128,-1,30
 28 72 28 72 28 130 c 0,31,32
 28 167 28 167 57.5 193.5 c 128,-1,33
 87 220 87 220 128 220 c 1,34,-1
 128 400 l 1,35,-1
 128 400 l 1,17,-1
EndSplineSet
EndChar

StartChar: u0B9C
Encoding: 2972 2972 68
Width: 695
GlyphClass: 2
Flags: W
AnchorPoint: "Anchor-0" 352 408 basechar 0
LayerCount: 2
Fore
SplineSet
82 200 m 1,0,1
 82 175 82 175 102.5 157.5 c 128,-1,2
 123 140 123 140 152 140 c 0,3,4
 177 140 177 140 194.5 157.5 c 128,-1,5
 212 175 212 175 212 200 c 256,6,7
 212 225 212 225 194.5 242.5 c 128,-1,8
 177 260 177 260 152 260 c 0,9,10
 123 260 123 260 102.5 242.5 c 128,-1,11
 82 225 82 225 82 200 c 1,12,-1
 82 200 l 1,0,1
357 320 m 1,13,14
 372 361 372 361 409 385.5 c 128,-1,15
 446 410 446 410 492 410 c 0,16,17
 558 410 558 410 605 354.5 c 128,-1,18
 652 299 652 299 652 220 c 256,19,20
 652 141 652 141 599.5 85.5 c 128,-1,21
 547 30 547 30 472 30 c 2,22,-1
 192 30 l 2,23,24
 151 30 151 30 121.5 -8 c 128,-1,25
 92 -46 92 -46 92 -100 c 0,26,27
 92 -158 92 -158 121.5 -199 c 128,-1,28
 151 -240 151 -240 192 -240 c 0,29,30
 226 -240 226 -240 260.5 -213 c 128,-1,31
 295 -186 295 -186 322 -140 c 0,32,33
 360 -75 360 -75 413.5 -37.5 c 128,-1,34
 467 0 467 0 522 0 c 0,35,36
 572 0 572 0 607 -44 c 128,-1,37
 642 -88 642 -88 642 -150 c 0,38,39
 642 -206 642 -206 612.5 -245.5 c 128,-1,40
 583 -285 583 -285 542 -285 c 0,41,42
 492 -285 492 -285 457 -242.5 c 128,-1,43
 422 -200 422 -200 422 -140 c 1,44,-1
 462 -140 l 1,45,46
 470 -183 470 -183 491 -211.5 c 128,-1,47
 512 -240 512 -240 537 -240 c 0,48,49
 560 -240 560 -240 576 -213.5 c 128,-1,50
 592 -187 592 -187 592 -150 c 0,51,52
 592 -104 592 -104 571.5 -72 c 128,-1,53
 551 -40 551 -40 522 -40 c 0,54,55
 480 -40 480 -40 438 -69.5 c 128,-1,56
 396 -99 396 -99 367 -150 c 0,57,58
 332 -210 332 -210 285 -245 c 128,-1,59
 238 -280 238 -280 192 -280 c 0,60,61
 130 -280 130 -280 86 -227.5 c 128,-1,62
 42 -175 42 -175 42 -100 c 0,63,64
 42 -30 42 -30 86 20 c 128,-1,65
 130 70 130 70 192 70 c 2,66,-1
 472 70 l 2,67,68
 526 70 526 70 564 114 c 128,-1,69
 602 158 602 158 602 220 c 256,70,71
 602 282 602 282 570 326 c 128,-1,72
 538 370 538 370 492 370 c 256,73,74
 446 370 446 370 414 338 c 128,-1,75
 382 306 382 306 382 260 c 2,76,-1
 382 110 l 1,77,-1
 332 110 l 1,78,-1
 332 260 l 2,79,80
 332 306 332 306 297 338 c 128,-1,81
 262 370 262 370 212 370 c 0,82,83
 168 370 168 370 132.5 345.5 c 128,-1,84
 97 321 97 321 82 280 c 1,85,86
 99 290 99 290 117 295 c 128,-1,87
 135 300 135 300 152 300 c 0,88,89
 193 300 193 300 222.5 270.5 c 128,-1,90
 252 241 252 241 252 200 c 256,91,92
 252 159 252 159 222.5 129.5 c 128,-1,93
 193 100 193 100 152 100 c 0,94,95
 102 100 102 100 72 138 c 128,-1,96
 42 176 42 176 42 240 c 0,97,98
 42 310 42 310 92 360 c 128,-1,99
 142 410 142 410 212 410 c 0,100,101
 255 410 255 410 294 386 c 128,-1,102
 333 362 333 362 357 320 c 1,103,-1
 357 320 l 1,13,14
EndSplineSet
EndChar

StartChar: u0B9E
Encoding: 2974 2974 69
Width: 895
GlyphClass: 2
Flags: W
AnchorPoint: "Anchor-0" 465 411 basechar 0
LayerCount: 2
Fore
SplineSet
309 110 m 1,0,1
 309 77 309 77 329.5 53.5 c 128,-1,2
 350 30 350 30 379 30 c 256,3,4
 408 30 408 30 428.5 53.5 c 128,-1,5
 449 77 449 77 449 110 c 256,6,7
 449 143 449 143 428.5 166.5 c 128,-1,8
 408 190 408 190 379 190 c 256,9,10
 350 190 350 190 329.5 166.5 c 128,-1,11
 309 143 309 143 309 110 c 1,12,-1
 309 110 l 1,0,1
59 160 m 1,13,14
 59 233 59 233 78.5 295 c 128,-1,15
 98 357 98 357 134 400 c 1,16,-1
 169 375 l 1,17,18
 138 337 138 337 121 282 c 128,-1,19
 104 227 104 227 104 160 c 0,20,21
 104 3 104 3 219.5 -108.5 c 128,-1,22
 335 -220 335 -220 499 -220 c 0,23,24
 627 -220 627 -220 718 -132 c 128,-1,25
 809 -44 809 -44 809 80 c 0,26,27
 809 126 809 126 782.5 158 c 128,-1,28
 756 190 756 190 719 190 c 0,29,30
 703 190 703 190 687 178 c 128,-1,31
 671 166 671 166 659 145 c 1,32,-1
 659 0 l 1,33,-1
 609 0 l 1,34,-1
 609 360 l 1,35,-1
 429 360 l 2,36,37
 344 360 344 360 284 304.5 c 128,-1,38
 224 249 224 249 224 170 c 0,39,40
 224 137 224 137 239.5 105.5 c 128,-1,41
 255 74 255 74 284 50 c 1,42,43
 277 63 277 63 273 78 c 128,-1,44
 269 93 269 93 269 110 c 0,45,46
 269 160 269 160 301 195 c 128,-1,47
 333 230 333 230 379 230 c 256,48,49
 425 230 425 230 457 195 c 128,-1,50
 489 160 489 160 489 110 c 256,51,52
 489 60 489 60 457 25 c 128,-1,53
 425 -10 425 -10 379 -10 c 0,54,55
 296 -10 296 -10 237.5 42.5 c 128,-1,56
 179 95 179 95 179 170 c 0,57,58
 179 265 179 265 252 332.5 c 128,-1,59
 325 400 325 400 429 400 c 2,60,-1
 819 400 l 1,61,-1
 819 360 l 1,62,-1
 659 360 l 1,63,-1
 659 200 l 1,64,65
 671 214 671 214 686.5 222 c 128,-1,66
 702 230 702 230 719 230 c 0,67,68
 777 230 777 230 818 186 c 128,-1,69
 859 142 859 142 859 80 c 0,70,71
 859 -61 859 -61 753.5 -160.5 c 128,-1,72
 648 -260 648 -260 499 -260 c 0,73,74
 317 -260 317 -260 188 -137 c 128,-1,75
 59 -14 59 -14 59 160 c 1,76,-1
 59 160 l 1,13,14
EndSplineSet
EndChar

StartChar: u0B9F
Encoding: 2975 2975 70
Width: 663
GlyphClass: 2
Flags: W
AnchorPoint: "Anchor-0" 344 408 basechar 0
LayerCount: 2
Fore
SplineSet
75 0 m 1,0,-1
 75 400 l 1,1,-1
 125 400 l 1,2,-1
 125 40 l 1,3,-1
 655 40 l 1,4,-1
 655 0 l 1,5,-1
 75 0 l 1,6,-1
 75 0 l 1,0,-1
EndSplineSet
EndChar

StartChar: u0BA3
Encoding: 2979 2979 71
Width: 1060
GlyphClass: 2
Flags: W
AnchorPoint: "Anchor-0" 549 420 basechar 0
LayerCount: 2
Fore
SplineSet
154 110 m 1,0,1
 154 77 154 77 171.5 53.5 c 128,-1,2
 189 30 189 30 214 30 c 256,3,4
 239 30 239 30 256.5 53.5 c 128,-1,5
 274 77 274 77 274 110 c 256,6,7
 274 143 274 143 256.5 166.5 c 128,-1,8
 239 190 239 190 214 190 c 256,9,10
 189 190 189 190 171.5 166.5 c 128,-1,11
 154 143 154 143 154 110 c 1,12,-1
 154 110 l 1,0,1
394 160 m 1,13,14
 394 106 394 106 408.5 68 c 128,-1,15
 423 30 423 30 444 30 c 256,16,17
 465 30 465 30 479.5 68 c 128,-1,18
 494 106 494 106 494 160 c 0,19,20
 494 197 494 197 481 231.5 c 128,-1,21
 468 266 468 266 444 295 c 1,22,23
 420 266 420 266 407 231.5 c 128,-1,24
 394 197 394 197 394 160 c 1,25,-1
 394 160 l 1,13,14
634 160 m 1,26,27
 634 106 634 106 648.5 68 c 128,-1,28
 663 30 663 30 684 30 c 256,29,30
 705 30 705 30 719.5 68 c 128,-1,31
 734 106 734 106 734 160 c 0,32,33
 734 199 734 199 721 235 c 128,-1,34
 708 271 708 271 684 300 c 1,35,36
 660 271 660 271 647 235 c 128,-1,37
 634 199 634 199 634 160 c 1,38,-1
 634 160 l 1,26,27
44 170 m 1,39,40
 44 269 44 269 117 339.5 c 128,-1,41
 190 410 190 410 294 410 c 0,42,43
 341 410 341 410 379.5 398.5 c 128,-1,44
 418 387 418 387 444 365 c 1,45,46
 470 387 470 387 501 398.5 c 128,-1,47
 532 410 532 410 564 410 c 0,48,49
 599 410 599 410 631 398.5 c 128,-1,50
 663 387 663 387 689 365 c 1,51,52
 709 382 709 382 736 391 c 128,-1,53
 763 400 763 400 794 400 c 2,54,-1
 1054 400 l 1,55,-1
 1054 360 l 1,56,-1
 934 360 l 1,57,-1
 934 0 l 1,58,-1
 884 0 l 1,59,-1
 884 360 l 1,60,-1
 794 360 l 2,61,62
 776 360 776 360 755.5 353.5 c 128,-1,63
 735 347 735 347 714 335 c 1,64,65
 748 295 748 295 766 249.5 c 128,-1,66
 784 204 784 204 784 160 c 0,67,68
 784 90 784 90 754.5 40 c 128,-1,69
 725 -10 725 -10 684 -10 c 256,70,71
 643 -10 643 -10 613.5 40 c 128,-1,72
 584 90 584 90 584 160 c 0,73,74
 584 217 584 217 601 263 c 128,-1,75
 618 309 618 309 649 335 c 1,76,77
 629 352 629 352 607 361 c 128,-1,78
 585 370 585 370 564 370 c 256,79,80
 543 370 543 370 520 359.5 c 128,-1,81
 497 349 497 349 474 330 c 1,82,83
 507 302 507 302 525.5 257.5 c 128,-1,84
 544 213 544 213 544 160 c 0,85,86
 544 90 544 90 514.5 40 c 128,-1,87
 485 -10 485 -10 444 -10 c 256,88,89
 403 -10 403 -10 373.5 40 c 128,-1,90
 344 90 344 90 344 160 c 0,91,92
 344 207 344 207 361 252 c 128,-1,93
 378 297 378 297 409 335 c 1,94,95
 389 352 389 352 359.5 361 c 128,-1,96
 330 370 330 370 294 370 c 0,97,98
 207 370 207 370 145.5 311.5 c 128,-1,99
 84 253 84 253 84 170 c 0,100,101
 84 125 84 125 98.5 88.5 c 128,-1,102
 113 52 113 52 139 30 c 1,103,104
 127 51 127 51 120.5 71.5 c 128,-1,105
 114 92 114 92 114 110 c 0,106,107
 114 160 114 160 143.5 195 c 128,-1,108
 173 230 173 230 214 230 c 256,109,110
 255 230 255 230 284.5 195 c 128,-1,111
 314 160 314 160 314 110 c 256,112,113
 314 60 314 60 279 25 c 128,-1,114
 244 -10 244 -10 194 -10 c 0,115,116
 132 -10 132 -10 88 42.5 c 128,-1,117
 44 95 44 95 44 170 c 1,118,-1
 44 170 l 1,39,40
EndSplineSet
EndChar

StartChar: u0BA4
Encoding: 2980 2980 72
Width: 543
GlyphClass: 2
Flags: W
AnchorPoint: "Anchor-0" 262 400 basechar 0
LayerCount: 2
Fore
SplineSet
178 360 m 1,0,-1
 178 220 l 1,1,-1
 278 220 l 1,2,-1
 278 360 l 1,3,-1
 178 360 l 1,4,-1
 178 360 l 1,0,-1
78 130 m 1,5,6
 78 89 78 89 110 59.5 c 128,-1,7
 142 30 142 30 188 30 c 0,8,9
 225 30 225 30 251.5 53.5 c 128,-1,10
 278 77 278 77 278 110 c 2,11,-1
 278 180 l 1,12,-1
 128 180 l 2,13,14
 107 180 107 180 92.5 165.5 c 128,-1,15
 78 151 78 151 78 130 c 1,16,-1
 78 130 l 1,5,6
128 400 m 1,17,-1
 468 400 l 1,18,-1
 468 360 l 1,19,-1
 328 360 l 1,20,-1
 328 220 l 1,21,-1
 368 220 l 2,22,23
 426 220 426 220 467 185 c 128,-1,24
 508 150 508 150 508 100 c 0,25,26
 508 17 508 17 452.5 -41.5 c 128,-1,27
 397 -100 397 -100 318 -100 c 2,28,-1
 128 -100 l 2,29,30
 103 -100 103 -100 85.5 -120.5 c 128,-1,31
 68 -141 68 -141 68 -170 c 0,32,33
 68 -190 68 -190 78.5 -208.5 c 128,-1,34
 89 -227 89 -227 108 -240 c 1,35,-1
 78 -275 l 1,36,37
 50 -259 50 -259 34 -231 c 128,-1,38
 18 -203 18 -203 18 -170 c 0,39,40
 18 -124 18 -124 50 -92 c 128,-1,41
 82 -60 82 -60 128 -60 c 2,42,-1
 318 -60 l 2,43,44
 376 -60 376 -60 417 -13 c 128,-1,45
 458 34 458 34 458 100 c 0,46,47
 458 133 458 133 431.5 156.5 c 128,-1,48
 405 180 405 180 368 180 c 2,49,-1
 328 180 l 1,50,-1
 328 110 l 2,51,52
 328 60 328 60 287 25 c 128,-1,53
 246 -10 246 -10 188 -10 c 0,54,55
 122 -10 122 -10 75 31 c 128,-1,56
 28 72 28 72 28 130 c 0,57,58
 28 167 28 167 57.5 193.5 c 128,-1,59
 87 220 87 220 128 220 c 1,60,-1
 128 400 l 1,61,-1
 128 400 l 1,17,-1
EndSplineSet
EndChar

StartChar: u0BA8
Encoding: 2984 2984 73
Width: 535
GlyphClass: 2
Flags: W
AnchorPoint: "Anchor-0" 252 406 basechar 0
LayerCount: 2
Fore
SplineSet
75 400 m 1,0,-1
 435 400 l 1,1,-1
 435 360 l 1,2,-1
 285 360 l 1,3,-1
 285 230 l 1,4,5
 294 248 294 248 315.5 259 c 128,-1,6
 337 270 337 270 365 270 c 0,7,8
 419 270 419 270 457 220 c 128,-1,9
 495 170 495 170 495 100 c 0,10,11
 495 17 495 17 439.5 -41.5 c 128,-1,12
 384 -100 384 -100 305 -100 c 2,13,-1
 115 -100 l 2,14,15
 90 -100 90 -100 72.5 -120.5 c 128,-1,16
 55 -141 55 -141 55 -170 c 0,17,18
 55 -188 55 -188 68 -209 c 128,-1,19
 81 -230 81 -230 105 -250 c 1,20,-1
 70 -280 l 1,21,22
 39 -254 39 -254 22 -225 c 128,-1,23
 5 -196 5 -196 5 -170 c 0,24,25
 5 -124 5 -124 37 -92 c 128,-1,26
 69 -60 69 -60 115 -60 c 2,27,-1
 305 -60 l 2,28,29
 363 -60 363 -60 404 -13 c 128,-1,30
 445 34 445 34 445 100 c 0,31,32
 445 150 445 150 421.5 185 c 128,-1,33
 398 220 398 220 365 220 c 0,34,35
 333 220 333 220 310 202.5 c 128,-1,36
 287 185 287 185 285 160 c 2,37,-1
 285 0 l 1,38,-1
 235 0 l 1,39,-1
 235 360 l 1,40,-1
 125 360 l 1,41,-1
 125 0 l 1,42,-1
 75 0 l 1,43,-1
 75 400 l 1,44,-1
 75 400 l 1,0,-1
EndSplineSet
EndChar

StartChar: u0BA9
Encoding: 2985 2985 74
Width: 808
GlyphClass: 2
Flags: W
AnchorPoint: "Anchor-0" 422 412 basechar 0
LayerCount: 2
Fore
SplineSet
152 110 m 1,0,1
 152 77 152 77 172.5 53.5 c 128,-1,2
 193 30 193 30 222 30 c 256,3,4
 251 30 251 30 271.5 53.5 c 128,-1,5
 292 77 292 77 292 110 c 256,6,7
 292 143 292 143 271.5 166.5 c 128,-1,8
 251 190 251 190 222 190 c 256,9,10
 193 190 193 190 172.5 166.5 c 128,-1,11
 152 143 152 143 152 110 c 1,12,-1
 152 110 l 1,0,1
422 160 m 1,13,14
 422 106 422 106 436.5 68 c 128,-1,15
 451 30 451 30 472 30 c 256,16,17
 493 30 493 30 507.5 68 c 128,-1,18
 522 106 522 106 522 160 c 0,19,20
 522 199 522 199 509 235 c 128,-1,21
 496 271 496 271 472 300 c 1,22,23
 448 271 448 271 435 235 c 128,-1,24
 422 199 422 199 422 160 c 1,25,-1
 422 160 l 1,13,14
592 400 m 1,26,-1
 802 400 l 1,27,-1
 802 360 l 1,28,-1
 722 360 l 1,29,-1
 722 0 l 1,30,-1
 672 0 l 1,31,-1
 672 360 l 1,32,-1
 592 360 l 2,33,34
 566 360 566 360 542.5 352.5 c 128,-1,35
 519 345 519 345 502 330 c 1,36,37
 535 302 535 302 553.5 257.5 c 128,-1,38
 572 213 572 213 572 160 c 0,39,40
 572 90 572 90 542.5 40 c 128,-1,41
 513 -10 513 -10 472 -10 c 256,42,43
 431 -10 431 -10 401.5 40 c 128,-1,44
 372 90 372 90 372 160 c 0,45,46
 372 211 372 211 390.5 254 c 128,-1,47
 409 297 409 297 442 325 c 1,48,49
 416 347 416 347 380 358.5 c 128,-1,50
 344 370 344 370 302 370 c 0,51,52
 211 370 211 370 146.5 311.5 c 128,-1,53
 82 253 82 253 82 170 c 0,54,55
 82 138 82 138 92.5 112 c 128,-1,56
 103 86 103 86 122 70 c 1,57,58
 117 79 117 79 114.5 89 c 128,-1,59
 112 99 112 99 112 110 c 0,60,61
 112 160 112 160 144 195 c 128,-1,62
 176 230 176 230 222 230 c 256,63,64
 268 230 268 230 300 195 c 128,-1,65
 332 160 332 160 332 110 c 256,66,67
 332 60 332 60 300 25 c 128,-1,68
 268 -10 268 -10 222 -10 c 0,69,70
 147 -10 147 -10 94.5 42.5 c 128,-1,71
 42 95 42 95 42 170 c 0,72,73
 42 269 42 269 118 339.5 c 128,-1,74
 194 410 194 410 302 410 c 0,75,76
 355 410 355 410 399 397 c 128,-1,77
 443 384 443 384 472 360 c 1,78,79
 495 379 495 379 526 389.5 c 128,-1,80
 557 400 557 400 592 400 c 1,81,-1
 592 400 l 1,26,-1
EndSplineSet
EndChar

StartChar: u0BAA
Encoding: 2986 2986 75
Width: 620
GlyphClass: 2
Flags: W
AnchorPoint: "Anchor-0" 304 402 basechar 0
LayerCount: 2
Fore
SplineSet
495 40 m 1,0,-1
 495 400 l 1,1,-1
 545 400 l 1,2,-1
 545 0 l 1,3,-1
 75 0 l 1,4,-1
 75 400 l 1,5,-1
 125 400 l 1,6,-1
 125 40 l 1,7,-1
 495 40 l 1,8,-1
 495 40 l 1,0,-1
EndSplineSet
EndChar

StartChar: u0BAE
Encoding: 2990 2990 76
Width: 671
GlyphClass: 2
Flags: W
AnchorPoint: "Anchor-0" 354 416 basechar 0
LayerCount: 2
Fore
SplineSet
365 300 m 1,0,-1
 365 40 l 1,1,-1
 505 40 l 2,2,3
 534 40 534 40 554.5 72 c 128,-1,4
 575 104 575 104 575 150 c 0,5,6
 575 241 575 241 531 305.5 c 128,-1,7
 487 370 487 370 425 370 c 0,8,9
 400 370 400 370 382.5 349.5 c 128,-1,10
 365 329 365 329 365 300 c 1,11,-1
 365 300 l 1,0,-1
425 410 m 1,12,13
 508 410 508 410 566.5 334 c 128,-1,14
 625 258 625 258 625 150 c 0,15,16
 625 88 625 88 590 44 c 128,-1,17
 555 0 555 0 505 0 c 2,18,-1
 75 0 l 1,19,-1
 75 400 l 1,20,-1
 125 400 l 1,21,-1
 125 40 l 1,22,-1
 315 40 l 1,23,-1
 315 300 l 2,24,25
 315 346 315 346 347 378 c 128,-1,26
 379 410 379 410 425 410 c 1,27,-1
 425 410 l 1,12,13
EndSplineSet
EndChar

StartChar: u0BAF
Encoding: 2991 2991 77
Width: 715
GlyphClass: 2
Flags: W
AnchorPoint: "Anchor-0" 345 397 basechar 0
LayerCount: 2
Fore
SplineSet
590 40 m 1,0,-1
 590 400 l 1,1,-1
 640 400 l 1,2,-1
 640 0 l 1,3,-1
 250 0 l 1,4,-1
 250 25 l 1,5,6
 236 8 236 8 215 -1 c 128,-1,7
 194 -10 194 -10 170 -10 c 0,8,9
 129 -10 129 -10 99.5 25 c 128,-1,10
 70 60 70 60 70 110 c 2,11,-1
 70 400 l 1,12,-1
 120 400 l 1,13,-1
 120 110 l 2,14,15
 120 77 120 77 134.5 53.5 c 128,-1,16
 149 30 149 30 170 30 c 0,17,18
 203 30 203 30 226.5 56.5 c 128,-1,19
 250 83 250 83 250 120 c 2,20,-1
 250 400 l 1,21,-1
 300 400 l 1,22,-1
 300 40 l 1,23,-1
 590 40 l 1,24,-1
 590 40 l 1,0,-1
EndSplineSet
EndChar

StartChar: u0BB0
Encoding: 2992 2992 78
Width: 431
GlyphClass: 2
Flags: W
AnchorPoint: "Anchor-0" 252 403 basechar 0
LayerCount: 2
Fore
SplineSet
75 400 m 1,0,-1
 425 400 l 1,1,-1
 425 360 l 1,2,-1
 315 360 l 1,3,-1
 315 0 l 1,4,5
 267 -17 267 -17 233.5 -60 c 128,-1,6
 200 -103 200 -103 190 -160 c 1,7,-1
 145 -150 l 1,8,9
 155 -94 155 -94 186.5 -48 c 128,-1,10
 218 -2 218 -2 265 25 c 1,11,-1
 265 360 l 1,12,-1
 125 360 l 1,13,-1
 125 0 l 1,14,-1
 75 0 l 1,15,-1
 75 400 l 1,16,-1
 75 400 l 1,0,-1
EndSplineSet
EndChar

StartChar: u0BB1
Encoding: 2993 2993 79
Width: 567
GlyphClass: 2
Flags: W
AnchorPoint: "Anchor-0" 274 414 basechar 0
LayerCount: 2
Fore
SplineSet
72 300 m 1,0,1
 72 346 72 346 104 378 c 128,-1,2
 136 410 136 410 182 410 c 0,3,4
 210 410 210 410 233 396.5 c 128,-1,5
 256 383 256 383 267 360 c 1,6,7
 278 383 278 383 305 396.5 c 128,-1,8
 332 410 332 410 367 410 c 0,9,10
 427 410 427 410 469.5 345.5 c 128,-1,11
 512 281 512 281 512 190 c 0,12,13
 512 70 512 70 450.5 -15 c 128,-1,14
 389 -100 389 -100 302 -100 c 2,15,-1
 142 -100 l 2,16,17
 109 -100 109 -100 96 -133.5 c 128,-1,18
 83 -167 83 -167 102 -200 c 1,19,-1
 62 -220 l 1,20,21
 52 -203 52 -203 47 -187.5 c 128,-1,22
 42 -172 42 -172 42 -160 c 0,23,24
 42 -119 42 -119 71.5 -89.5 c 128,-1,25
 101 -60 101 -60 142 -60 c 2,26,-1
 302 -60 l 2,27,28
 368 -60 368 -60 415 13 c 128,-1,29
 462 86 462 86 462 190 c 0,30,31
 462 265 462 265 435.5 317.5 c 128,-1,32
 409 370 409 370 372 370 c 0,33,34
 339 370 339 370 315.5 349.5 c 128,-1,35
 292 329 292 329 292 300 c 2,36,-1
 292 0 l 1,37,-1
 242 0 l 1,38,-1
 242 300 l 2,39,40
 242 329 242 329 224.5 349.5 c 128,-1,41
 207 370 207 370 182 370 c 256,42,43
 157 370 157 370 139.5 349.5 c 128,-1,44
 122 329 122 329 122 300 c 2,45,-1
 122 0 l 1,46,-1
 72 0 l 1,47,-1
 72 300 l 1,48,-1
 72 300 l 1,0,1
EndSplineSet
EndChar

StartChar: u0BB2
Encoding: 2994 2994 80
Width: 692
GlyphClass: 2
Flags: W
AnchorPoint: "Anchor-0" 344 434 basechar 0
LayerCount: 2
Fore
SplineSet
154 100 m 1,0,1
 154 71 154 71 171.5 50.5 c 128,-1,2
 189 30 189 30 214 30 c 256,3,4
 239 30 239 30 256.5 50.5 c 128,-1,5
 274 71 274 71 274 100 c 256,6,7
 274 129 274 129 256.5 149.5 c 128,-1,8
 239 170 239 170 214 170 c 256,9,10
 189 170 189 170 171.5 149.5 c 128,-1,11
 154 129 154 129 154 100 c 1,12,-1
 154 100 l 1,0,1
594 220 m 1,13,14
 594 274 594 274 564.5 322.5 c 128,-1,15
 535 371 535 371 484 400 c 1,16,-1
 514 430 l 1,17,18
 574 395 574 395 609 339 c 128,-1,19
 644 283 644 283 644 220 c 0,20,21
 644 125 644 125 594 57.5 c 128,-1,22
 544 -10 544 -10 474 -10 c 0,23,24
 428 -10 428 -10 396 19.5 c 128,-1,25
 364 49 364 49 364 90 c 2,26,-1
 364 290 l 2,27,28
 364 323 364 323 337.5 346.5 c 128,-1,29
 311 370 311 370 274 370 c 0,30,31
 195 370 195 370 139.5 314.5 c 128,-1,32
 84 259 84 259 84 180 c 0,33,34
 84 134 84 134 94.5 100 c 128,-1,35
 105 66 105 66 124 50 c 1,36,37
 119 56 119 56 116.5 71.5 c 128,-1,38
 114 87 114 87 114 110 c 0,39,40
 114 151 114 151 143.5 180.5 c 128,-1,41
 173 210 173 210 214 210 c 256,42,43
 255 210 255 210 284.5 178 c 128,-1,44
 314 146 314 146 314 100 c 256,45,46
 314 54 314 54 284.5 22 c 128,-1,47
 255 -10 255 -10 214 -10 c 0,48,49
 144 -10 144 -10 94 45.5 c 128,-1,50
 44 101 44 101 44 180 c 0,51,52
 44 275 44 275 111.5 342.5 c 128,-1,53
 179 410 179 410 274 410 c 0,54,55
 332 410 332 410 373 375 c 128,-1,56
 414 340 414 340 414 290 c 2,57,-1
 414 90 l 2,58,59
 414 65 414 65 431.5 47.5 c 128,-1,60
 449 30 449 30 474 30 c 0,61,62
 524 30 524 30 559 85.5 c 128,-1,63
 594 141 594 141 594 220 c 1,64,-1
 594 220 l 1,13,14
EndSplineSet
EndChar

StartChar: u0BB3
Encoding: 2995 2995 81
Width: 752
GlyphClass: 2
Flags: W
AnchorPoint: "Anchor-0" 392 415 basechar 0
LayerCount: 2
Fore
SplineSet
166 120 m 1,0,1
 166 87 166 87 183.5 63.5 c 128,-1,2
 201 40 201 40 226 40 c 256,3,4
 251 40 251 40 268.5 63.5 c 128,-1,5
 286 87 286 87 286 120 c 0,6,7
 286 149 286 149 268.5 169.5 c 128,-1,8
 251 190 251 190 226 190 c 256,9,10
 201 190 201 190 183.5 169.5 c 128,-1,11
 166 149 166 149 166 120 c 1,12,-1
 166 120 l 1,0,1
396 400 m 1,13,-1
 746 400 l 1,14,-1
 746 360 l 1,15,-1
 636 360 l 1,16,-1
 636 0 l 1,17,-1
 586 0 l 1,18,-1
 586 360 l 1,19,-1
 436 360 l 1,20,-1
 436 0 l 1,21,-1
 386 0 l 1,22,-1
 386 200 l 2,23,24
 386 270 386 270 342 320 c 128,-1,25
 298 370 298 370 236 370 c 256,26,27
 174 370 174 370 130 317.5 c 128,-1,28
 86 265 86 265 86 190 c 0,29,30
 86 152 86 152 101.5 118 c 128,-1,31
 117 84 117 84 146 60 c 1,32,33
 136 77 136 77 131 92.5 c 128,-1,34
 126 108 126 108 126 120 c 0,35,36
 126 166 126 166 155.5 198 c 128,-1,37
 185 230 185 230 226 230 c 256,38,39
 267 230 267 230 296.5 198 c 128,-1,40
 326 166 326 166 326 120 c 0,41,42
 326 66 326 66 291 28 c 128,-1,43
 256 -10 256 -10 206 -10 c 0,44,45
 140 -10 140 -10 93 48.5 c 128,-1,46
 46 107 46 107 46 190 c 0,47,48
 46 281 46 281 101.5 345.5 c 128,-1,49
 157 410 157 410 236 410 c 0,50,51
 289 410 289 410 332 388.5 c 128,-1,52
 375 367 375 367 396 330 c 1,53,-1
 396 400 l 1,54,-1
 396 400 l 1,13,-1
EndSplineSet
EndChar

StartChar: u0BB4
Encoding: 2996 2996 82
Width: 671
GlyphClass: 2
Flags: W
AnchorPoint: "Anchor-0" 350 416 basechar 0
LayerCount: 2
Fore
SplineSet
365 300 m 1,0,-1
 365 40 l 1,1,-1
 505 40 l 2,2,3
 534 40 534 40 554.5 72 c 128,-1,4
 575 104 575 104 575 150 c 0,5,6
 575 241 575 241 531 305.5 c 128,-1,7
 487 370 487 370 425 370 c 0,8,9
 400 370 400 370 382.5 349.5 c 128,-1,10
 365 329 365 329 365 300 c 1,11,-1
 365 300 l 1,0,-1
425 410 m 1,12,13
 508 410 508 410 566.5 334 c 128,-1,14
 625 258 625 258 625 150 c 0,15,16
 625 88 625 88 590 44 c 128,-1,17
 555 0 555 0 505 0 c 2,18,-1
 365 0 l 1,19,20
 371 -35 371 -35 396.5 -57.5 c 128,-1,21
 422 -80 422 -80 455 -80 c 2,22,-1
 575 -80 l 1,23,-1
 575 -120 l 1,24,-1
 495 -120 l 2,25,26
 458 -120 458 -120 426 -139 c 128,-1,27
 394 -158 394 -158 375 -190 c 0,28,29
 351 -232 351 -232 310.5 -256 c 128,-1,30
 270 -280 270 -280 225 -280 c 0,31,32
 163 -280 163 -280 119 -245 c 128,-1,33
 75 -210 75 -210 75 -160 c 0,34,35
 75 -119 75 -119 104.5 -89.5 c 128,-1,36
 134 -60 134 -60 175 -60 c 2,37,-1
 255 -60 l 1,38,-1
 255 -100 l 1,39,-1
 175 -100 l 2,40,41
 154 -100 154 -100 139.5 -117.5 c 128,-1,42
 125 -135 125 -135 125 -160 c 0,43,44
 125 -193 125 -193 154.5 -216.5 c 128,-1,45
 184 -240 184 -240 225 -240 c 0,46,47
 253 -240 253 -240 277.5 -226.5 c 128,-1,48
 302 -213 302 -213 315 -190 c 0,49,50
 329 -165 329 -165 349.5 -144.5 c 128,-1,51
 370 -124 370 -124 395 -110 c 1,52,53
 359 -97 359 -97 337 -66.5 c 128,-1,54
 315 -36 315 -36 315 0 c 1,55,-1
 75 0 l 1,56,-1
 75 400 l 1,57,-1
 125 400 l 1,58,-1
 125 40 l 1,59,-1
 315 40 l 1,60,-1
 315 300 l 2,61,62
 315 346 315 346 347 378 c 128,-1,63
 379 410 379 410 425 410 c 1,64,-1
 425 410 l 1,12,13
EndSplineSet
EndChar

StartChar: u0BB5
Encoding: 2997 2997 83
Width: 798
GlyphClass: 2
Flags: W
AnchorPoint: "Anchor-0" 392 417 basechar 0
LayerCount: 2
Fore
SplineSet
163 110 m 1,0,1
 163 77 163 77 183.5 53.5 c 128,-1,2
 204 30 204 30 233 30 c 0,3,4
 266 30 266 30 289.5 53.5 c 128,-1,5
 313 77 313 77 313 110 c 256,6,7
 313 143 313 143 289.5 166.5 c 128,-1,8
 266 190 266 190 233 190 c 0,9,10
 204 190 204 190 183.5 166.5 c 128,-1,11
 163 143 163 143 163 110 c 1,12,-1
 163 110 l 1,0,1
673 40 m 1,13,-1
 673 400 l 1,14,-1
 723 400 l 1,15,-1
 723 0 l 1,16,-1
 393 0 l 1,17,-1
 393 30 l 1,18,19
 417 59 417 59 430 100 c 128,-1,20
 443 141 443 141 443 190 c 0,21,22
 443 265 443 265 390.5 317.5 c 128,-1,23
 338 370 338 370 263 370 c 256,24,25
 188 370 188 370 135.5 317.5 c 128,-1,26
 83 265 83 265 83 190 c 0,27,28
 83 156 83 156 96 122.5 c 128,-1,29
 109 89 109 89 133 60 c 1,30,31
 128 74 128 74 125.5 86.5 c 128,-1,32
 123 99 123 99 123 110 c 0,33,34
 123 160 123 160 155 195 c 128,-1,35
 187 230 187 230 233 230 c 0,36,37
 283 230 283 230 318 195 c 128,-1,38
 353 160 353 160 353 110 c 256,39,40
 353 60 353 60 318 25 c 128,-1,41
 283 -10 283 -10 233 -10 c 0,42,43
 154 -10 154 -10 98.5 48.5 c 128,-1,44
 43 107 43 107 43 190 c 0,45,46
 43 281 43 281 107.5 345.5 c 128,-1,47
 172 410 172 410 263 410 c 0,48,49
 358 410 358 410 425.5 345.5 c 128,-1,50
 493 281 493 281 493 190 c 0,51,52
 493 150 493 150 483 112 c 128,-1,53
 473 74 473 74 453 40 c 1,54,-1
 673 40 l 1,55,-1
 673 40 l 1,13,-1
EndSplineSet
EndChar

StartChar: u0BB6
Encoding: 2998 2998 84
Width: 855
GlyphClass: 2
Flags: W
AnchorPoint: "Anchor-0" 420 405 basechar 0
LayerCount: 2
Fore
SplineSet
562 360 m 1,0,-1
 562 104 l 2,1,2
 562 40 562 40 645 40 c 128,-1,3
 728 40 728 40 728 104 c 2,4,-1
 728 360 l 1,5,-1
 562 360 l 1,0,-1
294 400 m 1,6,-1
 780 400 l 1,7,-1
 780 104 l 2,8,9
 780 0 780 0 640 0 c 0,10,11
 510 0 510 0 510 104 c 2,12,-1
 510 360 l 1,13,-1
 345 360 l 1,14,-1
 345 126 l 2,15,16
 345 0 345 0 186 0 c 0,17,18
 76 0 76 0 76 102 c 2,19,-1
 76 400 l 1,20,-1
 128 400 l 1,21,-1
 128 112 l 2,22,23
 128 40 128 40 197 40 c 0,24,25
 294 39 294 39 294 124 c 2,26,-1
 294 400 l 1,6,-1
EndSplineSet
EndChar

StartChar: u0BB7
Encoding: 2999 2999 85
Width: 933
GlyphClass: 2
Flags: W
AnchorPoint: "Anchor-0" 501 408 basechar 0
LayerCount: 2
Fore
SplineSet
165 110 m 1,0,1
 165 77 165 77 182.5 53.5 c 128,-1,2
 200 30 200 30 225 30 c 0,3,4
 254 30 254 30 274.5 53.5 c 128,-1,5
 295 77 295 77 295 110 c 0,6,7
 295 139 295 139 274.5 159.5 c 128,-1,8
 254 180 254 180 225 180 c 0,9,10
 200 180 200 180 182.5 159.5 c 128,-1,11
 165 139 165 139 165 110 c 1,12,-1
 165 110 l 1,0,1
585 280 m 1,13,14
 585 239 585 239 614.5 209.5 c 128,-1,15
 644 180 644 180 685 180 c 0,16,17
 693 180 693 180 700.5 181.5 c 128,-1,18
 708 183 708 183 715 185 c 1,19,-1
 715 300 l 2,20,21
 715 321 715 321 697.5 335.5 c 128,-1,22
 680 350 680 350 655 350 c 0,23,24
 626 350 626 350 605.5 329.5 c 128,-1,25
 585 309 585 309 585 280 c 1,26,-1
 585 280 l 1,13,14
765 40 m 1,27,-1
 835 40 l 1,28,-1
 835 195 l 1,29,30
 821 178 821 178 803 166.5 c 128,-1,31
 785 155 785 155 765 150 c 1,32,-1
 765 40 l 1,33,-1
 765 40 l 1,27,-1
655 400 m 1,34,35
 701 400 701 400 733 370.5 c 128,-1,36
 765 341 765 341 765 300 c 2,37,-1
 765 200 l 1,38,39
 792 210 792 210 812.5 222.5 c 128,-1,40
 833 235 833 235 845 250 c 1,41,-1
 885 250 l 1,42,-1
 885 0 l 1,43,-1
 765 0 l 1,44,-1
 765 -240 l 1,45,-1
 715 -240 l 1,46,-1
 715 0 l 1,47,-1
 375 0 l 1,48,-1
 375 30 l 1,49,50
 399 59 399 59 412 103 c 128,-1,51
 425 147 425 147 425 200 c 0,52,53
 425 270 425 270 375 320 c 128,-1,54
 325 370 325 370 255 370 c 256,55,56
 185 370 185 370 135 314.5 c 128,-1,57
 85 259 85 259 85 180 c 0,58,59
 85 143 85 143 98 111.5 c 128,-1,60
 111 80 111 80 135 60 c 1,61,62
 130 74 130 74 127.5 86.5 c 128,-1,63
 125 99 125 99 125 110 c 0,64,65
 125 156 125 156 156 188 c 128,-1,66
 187 220 187 220 230 220 c 256,67,68
 273 220 273 220 304 188 c 128,-1,69
 335 156 335 156 335 110 c 0,70,71
 335 60 335 60 300 25 c 128,-1,72
 265 -10 265 -10 215 -10 c 0,73,74
 145 -10 145 -10 95 45.5 c 128,-1,75
 45 101 45 101 45 180 c 0,76,77
 45 275 45 275 106.5 342.5 c 128,-1,78
 168 410 168 410 255 410 c 0,79,80
 346 410 346 410 410.5 348.5 c 128,-1,81
 475 287 475 287 475 200 c 0,82,83
 475 155 475 155 465 114.5 c 128,-1,84
 455 74 455 74 435 40 c 1,85,-1
 715 40 l 1,86,-1
 715 140 l 1,87,88
 712 139 712 139 702.5 139.5 c 128,-1,89
 693 140 693 140 685 140 c 0,90,91
 623 140 623 140 579 181 c 128,-1,92
 535 222 535 222 535 280 c 0,93,94
 535 330 535 330 570 365 c 128,-1,95
 605 400 605 400 655 400 c 1,96,-1
 655 400 l 1,34,35
EndSplineSet
EndChar

StartChar: u0BB8
Encoding: 3000 3000 86
Width: 895
GlyphClass: 2
Flags: W
AnchorPoint: "Anchor-0" 438 435 basechar 0
LayerCount: 2
Fore
SplineSet
175 110 m 1,0,1
 175 77 175 77 192.5 53.5 c 128,-1,2
 210 30 210 30 235 30 c 256,3,4
 260 30 260 30 277.5 53.5 c 128,-1,5
 295 77 295 77 295 110 c 256,6,7
 295 143 295 143 277.5 166.5 c 128,-1,8
 260 190 260 190 235 190 c 256,9,10
 210 190 210 190 192.5 166.5 c 128,-1,11
 175 143 175 143 175 110 c 1,12,-1
 175 110 l 1,0,1
45 180 m 1,13,14
 45 275 45 275 103.5 342.5 c 128,-1,15
 162 410 162 410 245 410 c 0,16,17
 300 410 300 410 344.5 388.5 c 128,-1,18
 389 367 389 367 410 330 c 1,19,20
 419 365 419 365 445.5 387.5 c 128,-1,21
 472 410 472 410 505 410 c 0,22,23
 546 410 546 410 575.5 378 c 128,-1,24
 605 346 605 346 605 300 c 2,25,-1
 605 110 l 2,26,27
 605 77 605 77 625.5 53.5 c 128,-1,28
 646 30 646 30 675 30 c 0,29,30
 725 30 725 30 760 80 c 128,-1,31
 795 130 795 130 795 200 c 0,32,33
 795 261 795 261 768 312 c 128,-1,34
 741 363 741 363 695 390 c 1,35,-1
 730 430 l 1,36,37
 783 399 783 399 814 337.5 c 128,-1,38
 845 276 845 276 845 200 c 0,39,40
 845 113 845 113 795 51.5 c 128,-1,41
 745 -10 745 -10 675 -10 c 0,42,43
 625 -10 625 -10 590 25 c 128,-1,44
 555 60 555 60 555 110 c 2,45,-1
 555 300 l 2,46,47
 555 327 555 327 540.5 346 c 128,-1,48
 526 365 526 365 505 365 c 0,49,50
 480 365 480 365 462.5 340 c 128,-1,51
 445 315 445 315 445 280 c 2,52,-1
 445 0 l 1,53,-1
 395 0 l 1,54,-1
 395 250 l 2,55,56
 395 298 395 298 351 331.5 c 128,-1,57
 307 365 307 365 245 365 c 0,58,59
 179 365 179 365 132 311 c 128,-1,60
 85 257 85 257 85 180 c 0,61,62
 85 136 85 136 101 101 c 128,-1,63
 117 66 117 66 145 50 c 1,64,65
 140 64 140 64 137.5 79 c 128,-1,66
 135 94 135 94 135 110 c 0,67,68
 135 160 135 160 164.5 195 c 128,-1,69
 194 230 194 230 235 230 c 256,70,71
 276 230 276 230 305.5 195 c 128,-1,72
 335 160 335 160 335 110 c 256,73,74
 335 60 335 60 303 25 c 128,-1,75
 271 -10 271 -10 225 -10 c 0,76,77
 150 -10 150 -10 97.5 45.5 c 128,-1,78
 45 101 45 101 45 180 c 1,79,-1
 45 180 l 1,13,14
EndSplineSet
EndChar

StartChar: u0BB9
Encoding: 3001 3001 87
Width: 1021
GlyphClass: 2
Flags: W
AnchorPoint: "Anchor-0" 495 414 basechar 0
LayerCount: 2
Fore
SplineSet
167 110 m 1,0,1
 167 77 167 77 187.5 53.5 c 128,-1,2
 208 30 208 30 237 30 c 256,3,4
 266 30 266 30 286.5 53.5 c 128,-1,5
 307 77 307 77 307 110 c 256,6,7
 307 143 307 143 286.5 166.5 c 128,-1,8
 266 190 266 190 237 190 c 256,9,10
 208 190 208 190 187.5 166.5 c 128,-1,11
 167 143 167 143 167 110 c 1,12,-1
 167 110 l 1,0,1
717 370 m 1,13,14
 733 389 733 389 759 399.5 c 128,-1,15
 785 410 785 410 817 410 c 0,16,17
 879 410 879 410 923 348.5 c 128,-1,18
 967 287 967 287 967 200 c 0,19,20
 967 76 967 76 902.5 -12 c 128,-1,21
 838 -100 838 -100 747 -100 c 2,22,-1
 167 -100 l 2,23,24
 142 -100 142 -100 124.5 -117.5 c 128,-1,25
 107 -135 107 -135 107 -160 c 0,26,27
 107 -168 107 -168 112 -180.5 c 128,-1,28
 117 -193 117 -193 127 -210 c 1,29,-1
 87 -240 l 1,30,31
 72 -223 72 -223 64.5 -202 c 128,-1,32
 57 -181 57 -181 57 -160 c 0,33,34
 57 -119 57 -119 89 -89.5 c 128,-1,35
 121 -60 121 -60 167 -60 c 2,36,-1
 747 -60 l 2,37,38
 817 -60 817 -60 867 16 c 128,-1,39
 917 92 917 92 917 200 c 0,40,41
 917 270 917 270 887.5 320 c 128,-1,42
 858 370 858 370 817 370 c 0,43,44
 784 370 784 370 760.5 352.5 c 128,-1,45
 737 335 737 335 737 310 c 2,46,-1
 737 0 l 1,47,-1
 687 0 l 1,48,-1
 687 310 l 2,49,50
 687 335 687 335 672.5 352.5 c 128,-1,51
 658 370 658 370 637 370 c 256,52,53
 616 370 616 370 601.5 352.5 c 128,-1,54
 587 335 587 335 587 310 c 2,55,-1
 587 0 l 1,56,-1
 367 0 l 1,57,-1
 367 30 l 1,58,59
 391 59 391 59 404 95 c 128,-1,60
 417 131 417 131 417 170 c 0,61,62
 417 261 417 261 373.5 315.5 c 128,-1,63
 330 370 330 370 257 370 c 0,64,65
 182 370 182 370 137 315.5 c 128,-1,66
 92 261 92 261 92 170 c 0,67,68
 92 135 92 135 106.5 103.5 c 128,-1,69
 121 72 121 72 147 50 c 1,70,71
 137 67 137 67 132 82.5 c 128,-1,72
 127 98 127 98 127 110 c 0,73,74
 127 160 127 160 159 195 c 128,-1,75
 191 230 191 230 237 230 c 256,76,77
 283 230 283 230 315 195 c 128,-1,78
 347 160 347 160 347 110 c 256,79,80
 347 60 347 60 309 25 c 128,-1,81
 271 -10 271 -10 217 -10 c 0,82,83
 147 -10 147 -10 97 42.5 c 128,-1,84
 47 95 47 95 47 170 c 0,85,86
 47 279 47 279 104.5 344.5 c 128,-1,87
 162 410 162 410 257 410 c 256,88,89
 352 410 352 410 409.5 344.5 c 128,-1,90
 467 279 467 279 467 170 c 0,91,92
 467 140 467 140 457 107 c 128,-1,93
 447 74 447 74 427 40 c 1,94,-1
 537 40 l 1,95,-1
 537 310 l 2,96,97
 537 351 537 351 566.5 380.5 c 128,-1,98
 596 410 596 410 637 410 c 0,99,100
 659 410 659 410 680 399.5 c 128,-1,101
 701 389 701 389 717 370 c 1,102,-1
 717 370 l 1,13,14
EndSplineSet
EndChar

StartChar: u0BBE
Encoding: 3006 3006 88
Width: 436
GlyphClass: 2
Flags: W
LayerCount: 2
Fore
SplineSet
75 400 m 1,0,-1
 430 400 l 1,1,-1
 430 360 l 1,2,-1
 315 360 l 1,3,-1
 315 0 l 1,4,-1
 265 0 l 1,5,-1
 265 360 l 1,6,-1
 125 360 l 1,7,-1
 125 0 l 1,8,-1
 75 0 l 1,9,-1
 75 400 l 1,10,-1
 75 400 l 1,0,-1
EndSplineSet
EndChar

StartChar: u0BBF
Encoding: 3007 3007 89
Width: 540
GlyphClass: 2
Flags: W
LayerCount: 2
Fore
SplineSet
75 490 m 1,0,1
 75 560 75 560 133.5 610 c 128,-1,2
 192 660 192 660 275 660 c 0,3,4
 354 660 354 660 409.5 613 c 128,-1,5
 465 566 465 566 465 500 c 2,6,-1
 465 0 l 1,7,-1
 415 0 l 1,8,-1
 415 500 l 2,9,10
 415 550 415 550 374 585 c 128,-1,11
 333 620 333 620 275 620 c 0,12,13
 213 620 213 620 169 582 c 128,-1,14
 125 544 125 544 125 490 c 0,15,16
 125 469 125 469 135.5 446 c 128,-1,17
 146 423 146 423 165 400 c 1,18,-1
 105 400 l 1,19,20
 90 426 90 426 82.5 448.5 c 128,-1,21
 75 471 75 471 75 490 c 1,22,-1
 75 490 l 1,0,1
EndSplineSet
EndChar

StartChar: u0BC0
Encoding: 3008 3008 90
Width: 450
GlyphClass: 2
Flags: W
LayerCount: 2
Fore
SplineSet
75 550 m 1,0,1
 75 608 75 608 122 649 c 128,-1,2
 169 690 169 690 235 690 c 0,3,4
 293 690 293 690 334 658 c 128,-1,5
 375 626 375 626 375 580 c 0,6,7
 375 539 375 539 345.5 509.5 c 128,-1,8
 316 480 316 480 275 480 c 256,9,10
 234 480 234 480 204.5 509.5 c 128,-1,11
 175 539 175 539 175 580 c 0,12,13
 175 602 175 602 185.5 620.5 c 128,-1,14
 196 639 196 639 215 650 c 1,15,16
 176 643 176 643 150.5 614.5 c 128,-1,17
 125 586 125 586 125 550 c 0,18,19
 125 510 125 510 154.5 469.5 c 128,-1,20
 184 429 184 429 235 400 c 1,21,-1
 165 400 l 1,22,23
 123 424 123 424 99 464.5 c 128,-1,24
 75 505 75 505 75 550 c 1,25,-1
 75 550 l 1,0,1
225 580 m 1,26,27
 225 555 225 555 239.5 537.5 c 128,-1,28
 254 520 254 520 275 520 c 256,29,30
 296 520 296 520 310.5 537.5 c 128,-1,31
 325 555 325 555 325 580 c 256,32,33
 325 605 325 605 310.5 622.5 c 128,-1,34
 296 640 296 640 275 640 c 256,35,36
 254 640 254 640 239.5 622.5 c 128,-1,37
 225 605 225 605 225 580 c 1,38,-1
 225 580 l 1,26,27
EndSplineSet
EndChar

StartChar: u0BC1
Encoding: 3009 3009 91
Width: 433
GlyphClass: 4
Flags: W
LayerCount: 2
Fore
SplineSet
-169 360 m 1,0,-1
 -169 400 l 1,1,-1
 271 400 l 2,2,3
 325 400 325 400 363 362 c 128,-1,4
 401 324 401 324 401 270 c 256,5,6
 401 216 401 216 363 178 c 128,-1,7
 325 140 325 140 271 140 c 256,8,9
 217 140 217 140 179 178 c 128,-1,10
 141 216 141 216 141 270 c 2,11,-1
 141 360 l 1,12,-1
 -169 360 l 1,13,-1
 -169 360 l 1,0,-1
191 270 m 1,14,15
 191 233 191 233 214.5 206.5 c 128,-1,16
 238 180 238 180 271 180 c 256,17,18
 304 180 304 180 327.5 206.5 c 128,-1,19
 351 233 351 233 351 270 c 256,20,21
 351 307 351 307 327.5 333.5 c 128,-1,22
 304 360 304 360 271 360 c 2,23,-1
 191 360 l 1,24,-1
 191 270 l 1,25,-1
 191 270 l 1,14,15
EndSplineSet
EndChar

StartChar: u0BC2
Encoding: 3010 3010 92
Width: 632
GlyphClass: 4
Flags: W
LayerCount: 2
Fore
SplineSet
-169 400 m 1,0,-1
 101 400 l 1,1,-1
 101 440 l 2,2,3
 101 539 101 539 171.5 609.5 c 128,-1,4
 242 680 242 680 341 680 c 0,5,6
 449 680 449 680 525 589 c 128,-1,7
 601 498 601 498 601 370 c 0,8,9
 601 233 601 233 504.5 136.5 c 128,-1,10
 408 40 408 40 271 40 c 0,11,12
 202 40 202 40 141.5 66 c 128,-1,13
 81 92 81 92 41 140 c 1,14,-1
 71 170 l 1,15,16
 95 128 95 128 148.5 104 c 128,-1,17
 202 80 202 80 271 80 c 0,18,19
 387 80 387 80 469 165 c 128,-1,20
 551 250 551 250 551 370 c 0,21,22
 551 482 551 482 489.5 561 c 128,-1,23
 428 640 428 640 341 640 c 0,24,25
 262 640 262 640 206.5 581.5 c 128,-1,26
 151 523 151 523 151 440 c 2,27,-1
 151 400 l 1,28,-1
 281 400 l 2,29,30
 327 400 327 400 359 370.5 c 128,-1,31
 391 341 391 341 391 300 c 256,32,33
 391 259 391 259 359 229.5 c 128,-1,34
 327 200 327 200 281 200 c 0,35,36
 217 200 217 200 167.5 245.5 c 128,-1,37
 118 291 118 291 106 360 c 1,38,-1
 -169 360 l 1,39,-1
 -169 400 l 1,40,-1
 -169 400 l 1,0,-1
156 360 m 1,41,42
 165 308 165 308 200.5 274 c 128,-1,43
 236 240 236 240 281 240 c 0,44,45
 306 240 306 240 323.5 257.5 c 128,-1,46
 341 275 341 275 341 300 c 256,47,48
 341 325 341 325 323.5 342.5 c 128,-1,49
 306 360 306 360 281 360 c 2,50,-1
 156 360 l 1,51,-1
 156 360 l 1,41,42
EndSplineSet
EndChar

StartChar: u0BC6
Encoding: 3014 3014 93
Width: 649
GlyphClass: 2
Flags: W
LayerCount: 2
Fore
SplineSet
264 125 m 1,0,1
 264 86 264 86 287.5 58 c 128,-1,2
 311 30 311 30 344 30 c 256,3,4
 377 30 377 30 400.5 58 c 128,-1,5
 424 86 424 86 424 125 c 256,6,7
 424 164 424 164 400.5 192 c 128,-1,8
 377 220 377 220 344 220 c 256,9,10
 311 220 311 220 287.5 192 c 128,-1,11
 264 164 264 164 264 125 c 1,12,-1
 264 125 l 1,0,1
44 310 m 1,13,14
 44 455 44 455 135 557.5 c 128,-1,15
 226 660 226 660 354 660 c 0,16,17
 445 660 445 660 509.5 598.5 c 128,-1,18
 574 537 574 537 574 450 c 2,19,-1
 574 0 l 1,20,-1
 524 0 l 1,21,-1
 524 450 l 2,22,23
 524 520 524 520 474 570 c 128,-1,24
 424 620 424 620 354 620 c 0,25,26
 244 620 244 620 166.5 529 c 128,-1,27
 89 438 89 438 89 310 c 0,28,29
 89 207 89 207 134.5 132 c 128,-1,30
 180 57 180 57 249 45 c 1,31,32
 234 62 234 62 226.5 84 c 128,-1,33
 219 106 219 106 219 130 c 0,34,35
 219 184 219 184 255.5 222 c 128,-1,36
 292 260 292 260 344 260 c 256,37,38
 396 260 396 260 432.5 222 c 128,-1,39
 469 184 469 184 469 130 c 0,40,41
 469 61 469 61 431 25.5 c 128,-1,42
 393 -10 393 -10 319 -10 c 0,43,44
 205 -10 205 -10 124.5 83.5 c 128,-1,45
 44 177 44 177 44 310 c 1,46,-1
 44 310 l 1,13,14
EndSplineSet
EndChar

StartChar: u0BC7
Encoding: 3015 3015 94
Width: 592
GlyphClass: 2
Flags: W
LayerCount: 2
Fore
SplineSet
41 330 m 1,0,1
 41 463 41 463 129 556.5 c 128,-1,2
 217 650 217 650 341 650 c 0,3,4
 432 650 432 650 496.5 606 c 128,-1,5
 561 562 561 562 561 500 c 0,6,7
 561 454 561 454 529 422 c 128,-1,8
 497 390 497 390 451 390 c 256,9,10
 405 390 405 390 373 422 c 128,-1,11
 341 454 341 454 341 500 c 0,12,13
 341 536 341 536 363 566.5 c 128,-1,14
 385 597 385 597 421 610 c 1,15,16
 407 615 407 615 387 617.5 c 128,-1,17
 367 620 367 620 341 620 c 0,18,19
 237 620 237 620 164 535 c 128,-1,20
 91 450 91 450 91 330 c 0,21,22
 91 206 91 206 164 118 c 128,-1,23
 237 30 237 30 341 30 c 0,24,25
 367 30 367 30 387 32.5 c 128,-1,26
 407 35 407 35 421 40 c 1,27,28
 385 53 385 53 363 83.5 c 128,-1,29
 341 114 341 114 341 150 c 0,30,31
 341 196 341 196 373 228 c 128,-1,32
 405 260 405 260 451 260 c 256,33,34
 497 260 497 260 529 228 c 128,-1,35
 561 196 561 196 561 150 c 0,36,37
 561 84 561 84 496.5 37 c 128,-1,38
 432 -10 432 -10 341 -10 c 0,39,40
 217 -10 217 -10 129 89.5 c 128,-1,41
 41 189 41 189 41 330 c 1,42,-1
 41 330 l 1,0,1
381 500 m 1,43,44
 381 471 381 471 401.5 450.5 c 128,-1,45
 422 430 422 430 451 430 c 256,46,47
 480 430 480 430 500.5 450.5 c 128,-1,48
 521 471 521 471 521 500 c 0,49,50
 521 533 521 533 500.5 556.5 c 128,-1,51
 480 580 480 580 451 580 c 256,52,53
 422 580 422 580 401.5 556.5 c 128,-1,54
 381 533 381 533 381 500 c 1,55,-1
 381 500 l 1,43,44
381 150 m 1,56,57
 381 117 381 117 401.5 93.5 c 128,-1,58
 422 70 422 70 451 70 c 256,59,60
 480 70 480 70 500.5 93.5 c 128,-1,61
 521 117 521 117 521 150 c 0,62,63
 521 179 521 179 500.5 199.5 c 128,-1,64
 480 220 480 220 451 220 c 256,65,66
 422 220 422 220 401.5 199.5 c 128,-1,67
 381 179 381 179 381 150 c 1,68,-1
 381 150 l 1,56,57
EndSplineSet
EndChar

StartChar: u0BC8
Encoding: 3016 3016 95
Width: 789
GlyphClass: 2
Flags: W
LayerCount: 2
Fore
SplineSet
153 110 m 1,0,1
 153 77 153 77 170.5 53.5 c 128,-1,2
 188 30 188 30 213 30 c 0,3,4
 242 30 242 30 262.5 53.5 c 128,-1,5
 283 77 283 77 283 110 c 0,6,7
 283 139 283 139 265.5 159.5 c 128,-1,8
 248 180 248 180 223 180 c 0,9,10
 194 180 194 180 173.5 159.5 c 128,-1,11
 153 139 153 139 153 110 c 1,12,-1
 153 110 l 1,0,1
408 160 m 1,13,14
 408 106 408 106 421 68 c 128,-1,15
 434 30 434 30 453 30 c 256,16,17
 472 30 472 30 485 68 c 128,-1,18
 498 106 498 106 498 160 c 0,19,20
 498 197 498 197 486.5 230.5 c 128,-1,21
 475 264 475 264 453 290 c 1,22,23
 431 252 431 252 419.5 219 c 128,-1,24
 408 186 408 186 408 160 c 1,25,-1
 408 160 l 1,13,14
43 160 m 1,26,27
 43 264 43 264 116 337 c 128,-1,28
 189 410 189 410 293 410 c 0,29,30
 340 410 340 410 379.5 394.5 c 128,-1,31
 419 379 419 379 443 350 c 1,32,33
 467 379 467 379 501 394.5 c 128,-1,34
 535 410 535 410 573 410 c 0,35,36
 643 410 643 410 693 348.5 c 128,-1,37
 743 287 743 287 743 200 c 0,38,39
 743 144 743 144 714 89 c 128,-1,40
 685 34 685 34 633 -10 c 1,41,-1
 603 30 l 1,42,43
 645 54 645 54 669 99.5 c 128,-1,44
 693 145 693 145 693 200 c 0,45,46
 693 270 693 270 658 320 c 128,-1,47
 623 370 623 370 573 370 c 0,48,49
 553 370 553 370 527.5 357 c 128,-1,50
 502 344 502 344 473 320 c 1,51,52
 506 292 506 292 524.5 250 c 128,-1,53
 543 208 543 208 543 160 c 0,54,55
 543 90 543 90 516.5 40 c 128,-1,56
 490 -10 490 -10 453 -10 c 256,57,58
 416 -10 416 -10 389.5 40 c 128,-1,59
 363 90 363 90 363 160 c 0,60,61
 363 203 363 203 378.5 244 c 128,-1,62
 394 285 394 285 423 320 c 1,63,64
 394 344 394 344 360.5 357 c 128,-1,65
 327 370 327 370 293 370 c 0,66,67
 206 370 206 370 144.5 308.5 c 128,-1,68
 83 247 83 247 83 160 c 0,69,70
 83 132 83 132 96 106 c 128,-1,71
 109 80 109 80 133 60 c 1,72,73
 126 73 126 73 122 85.5 c 128,-1,74
 118 98 118 98 118 110 c 0,75,76
 118 156 118 156 149 188 c 128,-1,77
 180 220 180 220 223 220 c 0,78,79
 264 220 264 220 293.5 188 c 128,-1,80
 323 156 323 156 323 110 c 0,81,82
 323 60 323 60 291 25 c 128,-1,83
 259 -10 259 -10 213 -10 c 0,84,85
 143 -10 143 -10 93 40 c 128,-1,86
 43 90 43 90 43 160 c 1,87,-1
 43 160 l 1,26,27
EndSplineSet
EndChar

StartChar: u0BCA
Encoding: 3018 3018 96
Width: 1045
GlyphClass: 2
Flags: W
LayerCount: 2
Fore
SplineSet
264 125 m 1,0,1
 264 86 264 86 287.5 58 c 128,-1,2
 311 30 311 30 344 30 c 256,3,4
 377 30 377 30 400.5 58 c 128,-1,5
 424 86 424 86 424 125 c 256,6,7
 424 164 424 164 400.5 192 c 128,-1,8
 377 220 377 220 344 220 c 256,9,10
 311 220 311 220 287.5 192 c 128,-1,11
 264 164 264 164 264 125 c 1,12,-1
 264 125 l 1,0,1
44 310 m 1,13,14
 44 455 44 455 135 557.5 c 128,-1,15
 226 660 226 660 354 660 c 0,16,17
 445 660 445 660 509.5 598.5 c 128,-1,18
 574 537 574 537 574 450 c 2,19,-1
 574 0 l 1,20,-1
 524 0 l 1,21,-1
 524 450 l 2,22,23
 524 520 524 520 474 570 c 128,-1,24
 424 620 424 620 354 620 c 0,25,26
 244 620 244 620 166.5 529 c 128,-1,27
 89 438 89 438 89 310 c 0,28,29
 89 207 89 207 134.5 132 c 128,-1,30
 180 57 180 57 249 45 c 1,31,32
 234 62 234 62 226.5 84 c 128,-1,33
 219 106 219 106 219 130 c 0,34,35
 219 184 219 184 255.5 222 c 128,-1,36
 292 260 292 260 344 260 c 256,37,38
 396 260 396 260 432.5 222 c 128,-1,39
 469 184 469 184 469 130 c 0,40,41
 469 61 469 61 431 25.5 c 128,-1,42
 393 -10 393 -10 319 -10 c 0,43,44
 205 -10 205 -10 124.5 83.5 c 128,-1,45
 44 177 44 177 44 310 c 1,46,-1
 44 310 l 1,13,14
684 400 m 1,47,-1
 1039 400 l 1,48,-1
 1039 360 l 1,49,-1
 924 360 l 1,50,-1
 924 0 l 1,51,-1
 874 0 l 1,52,-1
 874 360 l 1,53,-1
 734 360 l 1,54,-1
 734 0 l 1,55,-1
 684 0 l 1,56,-1
 684 400 l 1,57,-1
 684 400 l 1,47,-1
EndSplineSet
EndChar

StartChar: u0BCB
Encoding: 3019 3019 97
Width: 992
GlyphClass: 2
Flags: W
LayerCount: 2
Fore
SplineSet
41 330 m 1,0,1
 41 463 41 463 129 556.5 c 128,-1,2
 217 650 217 650 341 650 c 0,3,4
 432 650 432 650 496.5 606 c 128,-1,5
 561 562 561 562 561 500 c 0,6,7
 561 454 561 454 529 422 c 128,-1,8
 497 390 497 390 451 390 c 256,9,10
 405 390 405 390 373 422 c 128,-1,11
 341 454 341 454 341 500 c 0,12,13
 341 536 341 536 363 566.5 c 128,-1,14
 385 597 385 597 421 610 c 1,15,16
 407 615 407 615 387 617.5 c 128,-1,17
 367 620 367 620 341 620 c 0,18,19
 237 620 237 620 164 535 c 128,-1,20
 91 450 91 450 91 330 c 0,21,22
 91 206 91 206 164 118 c 128,-1,23
 237 30 237 30 341 30 c 0,24,25
 367 30 367 30 387 32.5 c 128,-1,26
 407 35 407 35 421 40 c 1,27,28
 385 53 385 53 363 83.5 c 128,-1,29
 341 114 341 114 341 150 c 0,30,31
 341 196 341 196 373 228 c 128,-1,32
 405 260 405 260 451 260 c 256,33,34
 497 260 497 260 529 228 c 128,-1,35
 561 196 561 196 561 150 c 0,36,37
 561 84 561 84 496.5 37 c 128,-1,38
 432 -10 432 -10 341 -10 c 0,39,40
 217 -10 217 -10 129 89.5 c 128,-1,41
 41 189 41 189 41 330 c 1,42,-1
 41 330 l 1,0,1
381 500 m 1,43,44
 381 471 381 471 401.5 450.5 c 128,-1,45
 422 430 422 430 451 430 c 256,46,47
 480 430 480 430 500.5 450.5 c 128,-1,48
 521 471 521 471 521 500 c 0,49,50
 521 533 521 533 500.5 556.5 c 128,-1,51
 480 580 480 580 451 580 c 256,52,53
 422 580 422 580 401.5 556.5 c 128,-1,54
 381 533 381 533 381 500 c 1,55,-1
 381 500 l 1,43,44
381 150 m 1,56,57
 381 117 381 117 401.5 93.5 c 128,-1,58
 422 70 422 70 451 70 c 256,59,60
 480 70 480 70 500.5 93.5 c 128,-1,61
 521 117 521 117 521 150 c 0,62,63
 521 179 521 179 500.5 199.5 c 128,-1,64
 480 220 480 220 451 220 c 256,65,66
 422 220 422 220 401.5 199.5 c 128,-1,67
 381 179 381 179 381 150 c 1,68,-1
 381 150 l 1,56,57
631 400 m 1,69,-1
 986 400 l 1,70,-1
 986 360 l 1,71,-1
 871 360 l 1,72,-1
 871 0 l 1,73,-1
 821 0 l 1,74,-1
 821 360 l 1,75,-1
 681 360 l 1,76,-1
 681 0 l 1,77,-1
 631 0 l 1,78,-1
 631 400 l 1,79,-1
 631 400 l 1,69,-1
EndSplineSet
EndChar

StartChar: u0BCC
Encoding: 3020 3020 98
Width: 1365
GlyphClass: 2
Flags: W
LayerCount: 2
Fore
SplineSet
264 125 m 1,0,1
 264 86 264 86 287.5 58 c 128,-1,2
 311 30 311 30 344 30 c 256,3,4
 377 30 377 30 400.5 58 c 128,-1,5
 424 86 424 86 424 125 c 256,6,7
 424 164 424 164 400.5 192 c 128,-1,8
 377 220 377 220 344 220 c 256,9,10
 311 220 311 220 287.5 192 c 128,-1,11
 264 164 264 164 264 125 c 1,12,-1
 264 125 l 1,0,1
44 310 m 1,13,14
 44 455 44 455 135 557.5 c 128,-1,15
 226 660 226 660 354 660 c 0,16,17
 445 660 445 660 509.5 598.5 c 128,-1,18
 574 537 574 537 574 450 c 2,19,-1
 574 0 l 1,20,-1
 524 0 l 1,21,-1
 524 450 l 2,22,23
 524 520 524 520 474 570 c 128,-1,24
 424 620 424 620 354 620 c 0,25,26
 244 620 244 620 166.5 529 c 128,-1,27
 89 438 89 438 89 310 c 0,28,29
 89 207 89 207 134.5 132 c 128,-1,30
 180 57 180 57 249 45 c 1,31,32
 234 62 234 62 226.5 84 c 128,-1,33
 219 106 219 106 219 130 c 0,34,35
 219 184 219 184 255.5 222 c 128,-1,36
 292 260 292 260 344 260 c 256,37,38
 396 260 396 260 432.5 222 c 128,-1,39
 469 184 469 184 469 130 c 0,40,41
 469 61 469 61 431 25.5 c 128,-1,42
 393 -10 393 -10 319 -10 c 0,43,44
 205 -10 205 -10 124.5 83.5 c 128,-1,45
 44 177 44 177 44 310 c 1,46,-1
 44 310 l 1,13,14
779 120 m 1,47,48
 779 87 779 87 796.5 63.5 c 128,-1,49
 814 40 814 40 839 40 c 256,50,51
 864 40 864 40 881.5 63.5 c 128,-1,52
 899 87 899 87 899 120 c 0,53,54
 899 149 899 149 881.5 169.5 c 128,-1,55
 864 190 864 190 839 190 c 256,56,57
 814 190 814 190 796.5 169.5 c 128,-1,58
 779 149 779 149 779 120 c 1,59,-1
 779 120 l 1,47,48
1009 400 m 1,60,-1
 1359 400 l 1,61,-1
 1359 360 l 1,62,-1
 1249 360 l 1,63,-1
 1249 0 l 1,64,-1
 1199 0 l 1,65,-1
 1199 360 l 1,66,-1
 1049 360 l 1,67,-1
 1049 0 l 1,68,-1
 999 0 l 1,69,-1
 999 200 l 2,70,71
 999 270 999 270 955 320 c 128,-1,72
 911 370 911 370 849 370 c 256,73,74
 787 370 787 370 743 317.5 c 128,-1,75
 699 265 699 265 699 190 c 0,76,77
 699 152 699 152 714.5 118 c 128,-1,78
 730 84 730 84 759 60 c 1,79,80
 749 77 749 77 744 92.5 c 128,-1,81
 739 108 739 108 739 120 c 0,82,83
 739 166 739 166 768.5 198 c 128,-1,84
 798 230 798 230 839 230 c 256,85,86
 880 230 880 230 909.5 198 c 128,-1,87
 939 166 939 166 939 120 c 0,88,89
 939 66 939 66 904 28 c 128,-1,90
 869 -10 869 -10 819 -10 c 0,91,92
 751 -10 751 -10 702.5 48.5 c 128,-1,93
 654 107 654 107 654 190 c 0,94,95
 654 281 654 281 711 345.5 c 128,-1,96
 768 410 768 410 849 410 c 0,97,98
 902 410 902 410 945 388.5 c 128,-1,99
 988 367 988 367 1009 330 c 1,100,-1
 1009 400 l 1,101,-1
 1009 400 l 1,60,-1
EndSplineSet
EndChar

StartChar: u0BCD
Encoding: 3021 3021 99
Width: 102
GlyphClass: 2
Flags: W
LayerCount: 2
Fore
SplineSet
-247 560 m 1,0,1
 -247 581 -247 581 -232.5 595.5 c 128,-1,2
 -218 610 -218 610 -197 610 c 256,3,4
 -176 610 -176 610 -161.5 595.5 c 128,-1,5
 -147 581 -147 581 -147 560 c 256,6,7
 -147 539 -147 539 -161.5 524.5 c 128,-1,8
 -176 510 -176 510 -197 510 c 256,9,10
 -218 510 -218 510 -232.5 524.5 c 128,-1,11
 -247 539 -247 539 -247 560 c 1,12,-1
 -247 560 l 1,0,1
EndSplineSet
EndChar

StartChar: u0BD7
Encoding: 3031 3031 100
Width: 752
GlyphClass: 2
Flags: W
LayerCount: 2
Fore
SplineSet
166 120 m 1,0,1
 166 87 166 87 183.5 63.5 c 128,-1,2
 201 40 201 40 226 40 c 256,3,4
 251 40 251 40 268.5 63.5 c 128,-1,5
 286 87 286 87 286 120 c 0,6,7
 286 149 286 149 268.5 169.5 c 128,-1,8
 251 190 251 190 226 190 c 256,9,10
 201 190 201 190 183.5 169.5 c 128,-1,11
 166 149 166 149 166 120 c 1,12,-1
 166 120 l 1,0,1
396 400 m 1,13,-1
 746 400 l 1,14,-1
 746 360 l 1,15,-1
 636 360 l 1,16,-1
 636 0 l 1,17,-1
 586 0 l 1,18,-1
 586 360 l 1,19,-1
 436 360 l 1,20,-1
 436 0 l 1,21,-1
 386 0 l 1,22,-1
 386 200 l 2,23,24
 386 270 386 270 342 320 c 128,-1,25
 298 370 298 370 236 370 c 256,26,27
 174 370 174 370 130 317.5 c 128,-1,28
 86 265 86 265 86 190 c 0,29,30
 86 152 86 152 101.5 118 c 128,-1,31
 117 84 117 84 146 60 c 1,32,33
 136 77 136 77 131 92.5 c 128,-1,34
 126 108 126 108 126 120 c 0,35,36
 126 166 126 166 155.5 198 c 128,-1,37
 185 230 185 230 226 230 c 256,38,39
 267 230 267 230 296.5 198 c 128,-1,40
 326 166 326 166 326 120 c 0,41,42
 326 66 326 66 291 28 c 128,-1,43
 256 -10 256 -10 206 -10 c 0,44,45
 140 -10 140 -10 93 48.5 c 128,-1,46
 46 107 46 107 46 190 c 0,47,48
 46 281 46 281 101.5 345.5 c 128,-1,49
 157 410 157 410 236 410 c 0,50,51
 289 410 289 410 332 388.5 c 128,-1,52
 375 367 375 367 396 330 c 1,53,-1
 396 400 l 1,54,-1
 396 400 l 1,13,-1
EndSplineSet
EndChar

StartChar: u0BE7
Encoding: 3047 3047 101
Width: 570
GlyphClass: 2
Flags: W
LayerCount: 2
Fore
SplineSet
200 220 m 1,0,-1
 300 220 l 1,1,-1
 300 360 l 1,2,-1
 200 360 l 1,3,-1
 200 220 l 1,4,-1
 200 220 l 1,0,-1
100 130 m 1,5,6
 100 89 100 89 132 59.5 c 128,-1,7
 164 30 164 30 210 30 c 0,8,9
 247 30 247 30 273.5 53.5 c 128,-1,10
 300 77 300 77 300 110 c 2,11,-1
 300 180 l 1,12,-1
 150 180 l 2,13,14
 129 180 129 180 114.5 165.5 c 128,-1,15
 100 151 100 151 100 130 c 1,16,-1
 100 130 l 1,5,6
150 400 m 1,17,-1
 460 400 l 1,18,-1
 460 360 l 1,19,-1
 350 360 l 1,20,-1
 350 220 l 1,21,-1
 410 220 l 2,22,23
 456 220 456 220 488 188 c 128,-1,24
 520 156 520 156 520 110 c 0,25,26
 520 60 520 60 490.5 25 c 128,-1,27
 461 -10 461 -10 420 -10 c 0,28,29
 409 -10 409 -10 396.5 -7.5 c 128,-1,30
 384 -5 384 -5 370 0 c 1,31,-1
 380 40 l 1,32,33
 389 35 389 35 399 32.5 c 128,-1,34
 409 30 409 30 420 30 c 0,35,36
 441 30 441 30 455.5 53.5 c 128,-1,37
 470 77 470 77 470 110 c 0,38,39
 470 139 470 139 452.5 159.5 c 128,-1,40
 435 180 435 180 410 180 c 2,41,-1
 350 180 l 1,42,-1
 350 110 l 2,43,44
 350 60 350 60 309 25 c 128,-1,45
 268 -10 268 -10 210 -10 c 0,46,47
 144 -10 144 -10 97 31 c 128,-1,48
 50 72 50 72 50 130 c 0,49,50
 50 167 50 167 79.5 193.5 c 128,-1,51
 109 220 109 220 150 220 c 1,52,-1
 150 400 l 1,53,-1
 150 400 l 1,17,-1
EndSplineSet
EndChar

StartChar: u0BE8
Encoding: 3048 3048 102
Width: 590
GlyphClass: 2
Flags: W
LayerCount: 2
Fore
SplineSet
90 280 m 1,0,1
 90 259 90 259 104.5 244.5 c 128,-1,2
 119 230 119 230 140 230 c 256,3,4
 161 230 161 230 175.5 244.5 c 128,-1,5
 190 259 190 259 190 280 c 0,6,7
 190 305 190 305 175.5 322.5 c 128,-1,8
 161 340 161 340 140 340 c 256,9,10
 119 340 119 340 104.5 322.5 c 128,-1,11
 90 305 90 305 90 280 c 1,12,-1
 90 280 l 1,0,1
50 290 m 1,13,14
 50 340 50 340 100 375 c 128,-1,15
 150 410 150 410 220 410 c 0,16,17
 303 410 303 410 361.5 363 c 128,-1,18
 420 316 420 316 420 250 c 0,19,20
 420 188 420 188 370 144 c 128,-1,21
 320 100 320 100 250 100 c 2,22,-1
 140 100 l 2,23,24
 123 100 123 100 111.5 91 c 128,-1,25
 100 82 100 82 100 70 c 256,26,27
 100 58 100 58 111.5 49 c 128,-1,28
 123 40 123 40 140 40 c 2,29,-1
 540 40 l 1,30,-1
 540 0 l 1,31,-1
 140 0 l 2,32,33
 103 0 103 0 76.5 20.5 c 128,-1,34
 50 41 50 41 50 70 c 256,35,36
 50 99 50 99 76.5 119.5 c 128,-1,37
 103 140 103 140 140 140 c 2,38,-1
 250 140 l 2,39,40
 300 140 300 140 335 172 c 128,-1,41
 370 204 370 204 370 250 c 0,42,43
 370 300 370 300 326 335 c 128,-1,44
 282 370 282 370 220 370 c 2,45,-1
 160 370 l 1,46,47
 192 359 192 359 211 334 c 128,-1,48
 230 309 230 309 230 280 c 0,49,50
 230 243 230 243 203.5 216.5 c 128,-1,51
 177 190 177 190 140 190 c 256,52,53
 103 190 103 190 76.5 219.5 c 128,-1,54
 50 249 50 249 50 290 c 1,55,-1
 50 290 l 1,13,14
EndSplineSet
EndChar

StartChar: u0BE9
Encoding: 3049 3049 103
Width: 635
GlyphClass: 2
Flags: W
LayerCount: 2
Fore
SplineSet
50 0 m 1,0,-1
 50 400 l 1,1,-1
 410 400 l 1,2,-1
 410 360 l 1,3,-1
 270 360 l 1,4,-1
 270 215 l 1,5,6
 284 229 284 229 302.5 237 c 128,-1,7
 321 245 321 245 340 245 c 0,8,9
 394 245 394 245 432 211.5 c 128,-1,10
 470 178 470 178 470 130 c 0,11,12
 470 103 470 103 459.5 79.5 c 128,-1,13
 449 56 449 56 430 40 c 1,14,-1
 585 40 l 1,15,-1
 585 0 l 1,16,-1
 220 0 l 1,17,-1
 220 40 l 1,18,-1
 330 40 l 2,19,20
 367 40 367 40 393.5 66.5 c 128,-1,21
 420 93 420 93 420 130 c 0,22,23
 420 159 420 159 396.5 179.5 c 128,-1,24
 373 200 373 200 340 200 c 0,25,26
 323 200 323 200 304.5 189.5 c 128,-1,27
 286 179 286 179 270 160 c 1,28,-1
 270 80 l 1,29,-1
 220 80 l 1,30,-1
 220 360 l 1,31,-1
 100 360 l 1,32,-1
 100 0 l 1,33,-1
 50 0 l 1,34,-1
 50 0 l 1,0,-1
EndSplineSet
EndChar

StartChar: u0BEA
Encoding: 3050 3050 104
Width: 540
GlyphClass: 2
Flags: W
LayerCount: 2
Fore
SplineSet
200 220 m 1,0,-1
 300 220 l 1,1,-1
 300 360 l 1,2,-1
 200 360 l 1,3,-1
 200 220 l 1,4,-1
 200 220 l 1,0,-1
100 130 m 1,5,6
 100 89 100 89 132 59.5 c 128,-1,7
 164 30 164 30 210 30 c 0,8,9
 247 30 247 30 273.5 53.5 c 128,-1,10
 300 77 300 77 300 110 c 2,11,-1
 300 180 l 1,12,-1
 150 180 l 2,13,14
 129 180 129 180 114.5 165.5 c 128,-1,15
 100 151 100 151 100 130 c 1,16,-1
 100 130 l 1,5,6
150 400 m 1,17,-1
 470 400 l 1,18,-1
 470 360 l 1,19,-1
 350 360 l 1,20,-1
 350 220 l 1,21,-1
 440 220 l 1,22,-1
 440 270 l 1,23,-1
 490 270 l 1,24,-1
 490 180 l 1,25,-1
 350 180 l 1,26,-1
 350 110 l 2,27,28
 350 60 350 60 309 25 c 128,-1,29
 268 -10 268 -10 210 -10 c 0,30,31
 144 -10 144 -10 97 31 c 128,-1,32
 50 72 50 72 50 130 c 0,33,34
 50 167 50 167 79.5 193.5 c 128,-1,35
 109 220 109 220 150 220 c 1,36,-1
 150 400 l 1,37,-1
 150 400 l 1,17,-1
EndSplineSet
EndChar

StartChar: u0BEB
Encoding: 3051 3051 105
Width: 730
GlyphClass: 2
Flags: W
LayerCount: 2
Fore
SplineSet
360 -180 m 1,0,1
 472 -180 472 -180 551 -98 c 128,-1,2
 630 -16 630 -16 630 100 c 0,3,4
 630 146 630 146 602 178 c 128,-1,5
 574 210 574 210 535 210 c 0,6,7
 520 210 520 210 503 199.5 c 128,-1,8
 486 189 486 189 470 170 c 1,9,-1
 470 0 l 1,10,-1
 420 0 l 1,11,-1
 420 360 l 1,12,-1
 300 360 l 1,13,-1
 300 0 l 1,14,-1
 250 0 l 1,15,-1
 250 400 l 1,16,-1
 550 400 l 1,17,-1
 550 360 l 1,18,-1
 470 360 l 1,19,-1
 470 220 l 1,20,21
 478 234 478 234 497 242 c 128,-1,22
 516 250 516 250 540 250 c 0,23,24
 598 250 598 250 639 206 c 128,-1,25
 680 162 680 162 680 100 c 0,26,27
 680 -33 680 -33 586.5 -126.5 c 128,-1,28
 493 -220 493 -220 360 -220 c 0,29,30
 232 -220 232 -220 141 -104.5 c 128,-1,31
 50 11 50 11 50 175 c 0,32,33
 50 351 50 351 149.5 475.5 c 128,-1,34
 249 600 249 600 390 600 c 0,35,36
 506 600 506 600 588 524 c 128,-1,37
 670 448 670 448 670 340 c 1,38,-1
 620 340 l 1,39,40
 620 431 620 431 552.5 495.5 c 128,-1,41
 485 560 485 560 390 560 c 0,42,43
 268 560 268 560 181.5 447 c 128,-1,44
 95 334 95 334 95 175 c 0,45,46
 95 28 95 28 172.5 -76 c 128,-1,47
 250 -180 250 -180 360 -180 c 1,48,-1
 360 -180 l 1,0,1
EndSplineSet
EndChar

StartChar: u0BEC
Encoding: 3052 3052 106
Width: 675
GlyphClass: 2
Flags: W
LayerCount: 2
Fore
SplineSet
200 360 m 1,0,-1
 200 220 l 1,1,-1
 300 220 l 1,2,-1
 300 360 l 1,3,-1
 200 360 l 1,4,-1
 200 360 l 1,0,-1
100 130 m 1,5,6
 100 89 100 89 132 59.5 c 128,-1,7
 164 30 164 30 210 30 c 0,8,9
 247 30 247 30 273.5 53.5 c 128,-1,10
 300 77 300 77 300 110 c 2,11,-1
 300 180 l 1,12,-1
 150 180 l 2,13,14
 129 180 129 180 114.5 165.5 c 128,-1,15
 100 151 100 151 100 130 c 1,16,-1
 100 130 l 1,5,6
50 130 m 1,17,18
 50 167 50 167 79.5 193.5 c 128,-1,19
 109 220 109 220 150 220 c 1,20,-1
 150 400 l 1,21,-1
 490 400 l 1,22,-1
 490 360 l 1,23,-1
 350 360 l 1,24,-1
 350 220 l 1,25,-1
 625 220 l 1,26,-1
 625 180 l 1,27,-1
 570 180 l 1,28,-1
 570 0 l 1,29,-1
 520 0 l 1,30,-1
 520 180 l 1,31,-1
 460 180 l 1,32,-1
 460 0 l 1,33,-1
 410 0 l 1,34,-1
 410 180 l 1,35,-1
 350 180 l 1,36,-1
 350 110 l 2,37,38
 350 60 350 60 309 25 c 128,-1,39
 268 -10 268 -10 210 -10 c 0,40,41
 144 -10 144 -10 97 31 c 128,-1,42
 50 72 50 72 50 130 c 1,43,-1
 50 130 l 1,17,18
EndSplineSet
EndChar

StartChar: u0BED
Encoding: 3053 3053 107
Width: 625
GlyphClass: 2
Flags: W
LayerCount: 2
Fore
SplineSet
180 110 m 1,0,1
 180 77 180 77 197.5 53.5 c 128,-1,2
 215 30 215 30 240 30 c 256,3,4
 265 30 265 30 282.5 53.5 c 128,-1,5
 300 77 300 77 300 110 c 0,6,7
 300 139 300 139 282.5 159.5 c 128,-1,8
 265 180 265 180 240 180 c 256,9,10
 215 180 215 180 197.5 159.5 c 128,-1,11
 180 139 180 139 180 110 c 1,12,-1
 180 110 l 1,0,1
460 360 m 1,13,-1
 260 360 l 2,14,15
 190 360 190 360 140 307.5 c 128,-1,16
 90 255 90 255 90 180 c 0,17,18
 90 136 90 136 111.5 98.5 c 128,-1,19
 133 61 133 61 170 40 c 1,20,21
 155 57 155 57 147.5 75 c 128,-1,22
 140 93 140 93 140 110 c 0,23,24
 140 156 140 156 169.5 188 c 128,-1,25
 199 220 199 220 240 220 c 0,26,27
 286 220 286 220 318 188 c 128,-1,28
 350 156 350 156 350 110 c 0,29,30
 350 60 350 60 312 25 c 128,-1,31
 274 -10 274 -10 220 -10 c 0,32,33
 150 -10 150 -10 100 45.5 c 128,-1,34
 50 101 50 101 50 180 c 0,35,36
 50 271 50 271 111.5 335.5 c 128,-1,37
 173 400 173 400 260 400 c 2,38,-1
 575 400 l 1,39,-1
 575 360 l 1,40,-1
 510 360 l 1,41,-1
 510 0 l 1,42,-1
 460 0 l 1,43,-1
 460 360 l 1,44,-1
 460 360 l 1,13,-1
EndSplineSet
EndChar

StartChar: u0BEE
Encoding: 3054 3054 108
Width: 830
GlyphClass: 2
Flags: W
LayerCount: 2
Fore
SplineSet
730 -50 m 1,0,-1
 730 110 l 1,1,-1
 630 110 l 1,2,3
 600 29 600 29 522 -20.5 c 128,-1,4
 444 -70 444 -70 345 -70 c 0,5,6
 277 -70 277 -70 216.5 -49.5 c 128,-1,7
 156 -29 156 -29 110 10 c 0,8,9
 81 34 81 34 65.5 57.5 c 128,-1,10
 50 81 50 81 50 100 c 0,11,12
 50 121 50 121 67.5 135.5 c 128,-1,13
 85 150 85 150 110 150 c 2,14,-1
 275 151 l 1,15,16
 248 161 248 161 231.5 189.5 c 128,-1,17
 215 218 215 218 215 255 c 0,18,19
 215 319 215 319 275 364.5 c 128,-1,20
 335 410 335 410 420 410 c 0,21,22
 515 410 515 410 582.5 351.5 c 128,-1,23
 650 293 650 293 650 210 c 0,24,25
 650 194 650 194 647.5 179 c 128,-1,26
 645 164 645 164 640 150 c 1,27,-1
 730 150 l 1,28,-1
 730 400 l 1,29,-1
 780 400 l 1,30,-1
 780 -50 l 1,31,-1
 730 -50 l 1,32,-1
 730 -50 l 1,0,-1
260 255 m 1,33,34
 260 212 260 212 293.5 181 c 128,-1,35
 327 150 327 150 375 150 c 0,36,37
 421 150 421 150 453 179.5 c 128,-1,38
 485 209 485 209 485 250 c 0,39,40
 485 296 485 296 453 328 c 128,-1,41
 421 360 421 360 375 360 c 0,42,43
 327 360 327 360 293.5 329 c 128,-1,44
 260 298 260 298 260 255 c 1,45,-1
 260 255 l 1,33,34
580 110 m 1,46,-1
 120 110 l 2,47,48
 112 110 112 110 106 104 c 128,-1,49
 100 98 100 98 100 90 c 0,50,51
 100 85 100 85 105 77.5 c 128,-1,52
 110 70 110 70 120 60 c 0,53,54
 163 17 163 17 220.5 -6.5 c 128,-1,55
 278 -30 278 -30 340 -30 c 0,56,57
 425 -30 425 -30 491 8.5 c 128,-1,58
 557 47 557 47 580 110 c 1,59,-1
 580 110 l 1,46,-1
480 150 m 1,60,-1
 590 150 l 1,61,62
 595 164 595 164 597.5 179 c 128,-1,63
 600 194 600 194 600 210 c 0,64,65
 600 273 600 273 559 321 c 128,-1,66
 518 369 518 369 455 380 c 1,67,68
 490 355 490 355 510 320.5 c 128,-1,69
 530 286 530 286 530 250 c 0,70,71
 530 219 530 219 517 192.5 c 128,-1,72
 504 166 504 166 480 150 c 1,73,-1
 480 150 l 1,60,-1
EndSplineSet
EndChar

StartChar: u0BEF
Encoding: 3055 3055 109
Width: 770
GlyphClass: 2
Flags: W
LayerCount: 2
Fore
SplineSet
200 220 m 1,0,-1
 300 220 l 1,1,-1
 300 360 l 1,2,-1
 200 360 l 1,3,-1
 200 220 l 1,4,-1
 200 220 l 1,0,-1
100 130 m 1,5,6
 100 93 100 93 132 66.5 c 128,-1,7
 164 40 164 40 210 40 c 0,8,9
 247 40 247 40 273.5 60.5 c 128,-1,10
 300 81 300 81 300 110 c 2,11,-1
 300 180 l 1,12,-1
 150 180 l 2,13,14
 129 180 129 180 114.5 165.5 c 128,-1,15
 100 151 100 151 100 130 c 1,16,-1
 100 130 l 1,5,6
450 100 m 1,17,18
 450 71 450 71 461.5 50.5 c 128,-1,19
 473 30 473 30 490 30 c 256,20,21
 507 30 507 30 518.5 50.5 c 128,-1,22
 530 71 530 71 530 100 c 0,23,24
 530 126 530 126 513.5 148 c 128,-1,25
 497 170 497 170 470 180 c 1,26,27
 460 163 460 163 455 142.5 c 128,-1,28
 450 122 450 122 450 100 c 1,29,-1
 450 100 l 1,17,18
50 130 m 1,30,31
 50 167 50 167 79.5 193.5 c 128,-1,32
 109 220 109 220 150 220 c 1,33,-1
 150 400 l 1,34,-1
 445 400 l 1,35,-1
 445 360 l 1,36,-1
 350 360 l 1,37,-1
 350 220 l 1,38,-1
 450 220 l 1,39,40
 470 248 470 248 503 264 c 128,-1,41
 536 280 536 280 575 280 c 0,42,43
 635 280 635 280 677.5 239 c 128,-1,44
 720 198 720 198 720 140 c 0,45,46
 720 101 720 101 707 65 c 128,-1,47
 694 29 694 29 670 0 c 1,48,-1
 615 0 l 1,49,50
 642 32 642 32 656 68 c 128,-1,51
 670 104 670 104 670 140 c 0,52,53
 670 181 670 181 642 210.5 c 128,-1,54
 614 240 614 240 575 240 c 0,55,56
 549 240 549 240 528 232 c 128,-1,57
 507 224 507 224 495 210 c 1,58,59
 529 198 529 198 549.5 167.5 c 128,-1,60
 570 137 570 137 570 100 c 0,61,62
 570 54 570 54 546.5 22 c 128,-1,63
 523 -10 523 -10 490 -10 c 256,64,65
 457 -10 457 -10 433.5 22 c 128,-1,66
 410 54 410 54 410 100 c 0,67,68
 410 122 410 122 415 142.5 c 128,-1,69
 420 163 420 163 430 180 c 1,70,-1
 350 180 l 1,71,-1
 350 110 l 2,72,73
 350 60 350 60 309 25 c 128,-1,74
 268 -10 268 -10 210 -10 c 0,75,76
 144 -10 144 -10 97 31 c 128,-1,77
 50 72 50 72 50 130 c 1,78,-1
 50 130 l 1,30,31
EndSplineSet
EndChar

StartChar: u0BF0
Encoding: 3056 3056 110
Width: 538
GlyphClass: 2
Flags: W
LayerCount: 2
Fore
SplineSet
253 40 m 1,0,1
 233 16 233 16 209.5 3 c 128,-1,2
 186 -10 186 -10 163 -10 c 0,3,4
 117 -10 117 -10 85 22 c 128,-1,5
 53 54 53 54 53 100 c 2,6,-1
 53 300 l 1,7,-1
 103 300 l 1,8,-1
 103 100 l 2,9,10
 103 71 103 71 120.5 50.5 c 128,-1,11
 138 30 138 30 163 30 c 256,12,13
 188 30 188 30 205.5 50.5 c 128,-1,14
 223 71 223 71 223 100 c 2,15,-1
 223 300 l 1,16,-1
 273 300 l 1,17,-1
 273 100 l 1,18,19
 284 68 284 68 306 49 c 128,-1,20
 328 30 328 30 353 30 c 0,21,22
 390 30 390 30 416.5 71 c 128,-1,23
 443 112 443 112 443 170 c 0,24,25
 443 249 443 249 396 304.5 c 128,-1,26
 349 360 349 360 283 360 c 2,27,-1
 153 360 l 1,28,-1
 153 400 l 1,29,-1
 283 400 l 2,30,31
 370 400 370 400 431.5 332.5 c 128,-1,32
 493 265 493 265 493 170 c 0,33,34
 493 95 493 95 452 42.5 c 128,-1,35
 411 -10 411 -10 353 -10 c 0,36,37
 318 -10 318 -10 291 3.5 c 128,-1,38
 264 17 264 17 253 40 c 1,39,-1
 253 40 l 1,0,1
EndSplineSet
EndChar

StartChar: u0BF1
Encoding: 3057 3057 111
Width: 557
GlyphClass: 2
Flags: W
LayerCount: 2
Fore
SplineSet
272 360 m 1,0,1
 283 383 283 383 310 396.5 c 128,-1,2
 337 410 337 410 372 410 c 2,3,-1
 552 410 l 1,4,-1
 552 365 l 1,5,-1
 472 365 l 1,6,-1
 472 0 l 1,7,-1
 422 0 l 1,8,-1
 422 365 l 1,9,-1
 372 365 l 2,10,11
 347 365 347 365 325 347 c 128,-1,12
 303 329 303 329 292 300 c 1,13,-1
 292 0 l 1,14,-1
 242 0 l 1,15,-1
 242 300 l 2,16,17
 242 329 242 329 224.5 349.5 c 128,-1,18
 207 370 207 370 182 370 c 256,19,20
 157 370 157 370 139.5 349.5 c 128,-1,21
 122 329 122 329 122 300 c 2,22,-1
 122 0 l 1,23,-1
 72 0 l 1,24,-1
 72 300 l 2,25,26
 72 346 72 346 104 378 c 128,-1,27
 136 410 136 410 182 410 c 0,28,29
 205 410 205 410 228.5 397 c 128,-1,30
 252 384 252 384 272 360 c 1,31,-1
 272 360 l 1,0,1
EndSplineSet
EndChar

StartChar: u0BF2
Encoding: 3058 3058 112
Width: 618
GlyphClass: 2
Flags: W
LayerCount: 2
Fore
SplineSet
178 360 m 1,0,-1
 178 220 l 1,1,-1
 278 220 l 1,2,-1
 278 360 l 1,3,-1
 178 360 l 1,4,-1
 178 360 l 1,0,-1
78 130 m 1,5,6
 78 89 78 89 110 59.5 c 128,-1,7
 142 30 142 30 188 30 c 0,8,9
 225 30 225 30 251.5 53.5 c 128,-1,10
 278 77 278 77 278 110 c 2,11,-1
 278 180 l 1,12,-1
 128 180 l 2,13,14
 107 180 107 180 92.5 165.5 c 128,-1,15
 78 151 78 151 78 130 c 1,16,-1
 78 130 l 1,5,6
28 130 m 1,17,18
 28 167 28 167 57.5 193.5 c 128,-1,19
 87 220 87 220 128 220 c 1,20,-1
 128 400 l 1,21,-1
 468 400 l 1,22,-1
 468 360 l 1,23,-1
 328 360 l 1,24,-1
 328 220 l 1,25,-1
 528 220 l 1,26,-1
 528 180 l 1,27,-1
 418 180 l 1,28,-1
 418 110 l 1,29,30
 430 124 430 124 448.5 132 c 128,-1,31
 467 140 467 140 488 140 c 0,32,33
 534 140 534 140 566 102 c 128,-1,34
 598 64 598 64 598 10 c 0,35,36
 598 -48 598 -48 542.5 -89 c 128,-1,37
 487 -130 487 -130 408 -130 c 2,38,-1
 128 -130 l 2,39,40
 95 -130 95 -130 71.5 -159.5 c 128,-1,41
 48 -189 48 -189 48 -230 c 1,42,-1
 8 -230 l 1,43,44
 8 -172 8 -172 43 -131 c 128,-1,45
 78 -90 78 -90 128 -90 c 2,46,-1
 408 -90 l 2,47,48
 466 -90 466 -90 507 -60.5 c 128,-1,49
 548 -31 548 -31 548 10 c 0,50,51
 548 47 548 47 530.5 73.5 c 128,-1,52
 513 100 513 100 488 100 c 0,53,54
 464 100 464 100 444.5 84.5 c 128,-1,55
 425 69 425 69 418 45 c 1,56,-1
 418 0 l 1,57,-1
 368 0 l 1,58,-1
 368 180 l 1,59,-1
 328 180 l 1,60,-1
 328 110 l 2,61,62
 328 60 328 60 287 25 c 128,-1,63
 246 -10 246 -10 188 -10 c 0,64,65
 122 -10 122 -10 75 31 c 128,-1,66
 28 72 28 72 28 130 c 1,67,-1
 28 130 l 1,17,18
EndSplineSet
EndChar

StartChar: u0BF3
Encoding: 3059 3059 113
Width: 741
GlyphClass: 2
Flags: W
LayerCount: 2
Fore
SplineSet
163 110 m 1,0,1
 163 77 163 77 183.5 53.5 c 128,-1,2
 204 30 204 30 233 30 c 0,3,4
 266 30 266 30 289.5 53.5 c 128,-1,5
 313 77 313 77 313 110 c 256,6,7
 313 143 313 143 289.5 166.5 c 128,-1,8
 266 190 266 190 233 190 c 0,9,10
 204 190 204 190 183.5 166.5 c 128,-1,11
 163 143 163 143 163 110 c 1,12,-1
 163 110 l 1,0,1
43 190 m 1,13,14
 43 281 43 281 107.5 345.5 c 128,-1,15
 172 410 172 410 263 410 c 0,16,17
 358 410 358 410 425.5 345.5 c 128,-1,18
 493 281 493 281 493 190 c 0,19,20
 493 150 493 150 483 112 c 128,-1,21
 473 74 473 74 453 40 c 1,22,-1
 733 40 l 1,23,-1
 733 0 l 1,24,-1
 393 0 l 1,25,-1
 393 30 l 1,26,27
 417 59 417 59 430 100 c 128,-1,28
 443 141 443 141 443 190 c 0,29,30
 443 265 443 265 390.5 317.5 c 128,-1,31
 338 370 338 370 263 370 c 256,32,33
 188 370 188 370 135.5 317.5 c 128,-1,34
 83 265 83 265 83 190 c 0,35,36
 83 156 83 156 96 122.5 c 128,-1,37
 109 89 109 89 133 60 c 1,38,39
 128 74 128 74 125.5 86.5 c 128,-1,40
 123 99 123 99 123 110 c 0,41,42
 123 160 123 160 155 195 c 128,-1,43
 187 230 187 230 233 230 c 0,44,45
 283 230 283 230 318 195 c 128,-1,46
 353 160 353 160 353 110 c 256,47,48
 353 60 353 60 318 25 c 128,-1,49
 283 -10 283 -10 233 -10 c 0,50,51
 154 -10 154 -10 98.5 48.5 c 128,-1,52
 43 107 43 107 43 190 c 1,53,-1
 43 190 l 1,13,14
EndSplineSet
EndChar

StartChar: u0BF4
Encoding: 3060 3060 114
Width: 864
GlyphClass: 2
Flags: W
LayerCount: 2
Fore
SplineSet
365 300 m 1,0,-1
 365 40 l 1,1,-1
 505 40 l 2,2,3
 534 40 534 40 554.5 72 c 128,-1,4
 575 104 575 104 575 150 c 0,5,6
 575 241 575 241 531 305.5 c 128,-1,7
 487 370 487 370 425 370 c 0,8,9
 400 370 400 370 382.5 349.5 c 128,-1,10
 365 329 365 329 365 300 c 1,11,-1
 365 300 l 1,0,-1
415 410 m 1,12,13
 383 429 383 429 364 461 c 128,-1,14
 345 493 345 493 345 530 c 0,15,16
 345 588 345 588 389 629 c 128,-1,17
 433 670 433 670 495 670 c 0,18,19
 515 670 515 670 529.5 668 c 128,-1,20
 544 666 544 666 554 663 c 1,21,22
 581 680 581 680 609.5 689 c 128,-1,23
 638 698 638 698 664 698 c 0,24,25
 695 698 695 698 721.5 684.5 c 128,-1,26
 748 671 748 671 764 648 c 1,27,28
 783 672 783 672 809.5 685 c 128,-1,29
 836 698 836 698 864 698 c 1,30,-1
 864 658 l 1,31,32
 846 658 846 658 828.5 647.5 c 128,-1,33
 811 637 811 637 799 618 c 1,34,35
 812 601 812 601 818.5 586 c 128,-1,36
 825 571 825 571 825 560 c 0,37,38
 825 534 825 534 808.5 516 c 128,-1,39
 792 498 792 498 768 498 c 256,40,41
 744 498 744 498 726.5 516 c 128,-1,42
 709 534 709 534 709 560 c 0,43,44
 709 574 709 574 717 589.5 c 128,-1,45
 725 605 725 605 739 620 c 1,46,47
 724 638 724 638 704.5 648 c 128,-1,48
 685 658 685 658 664 658 c 0,49,50
 644 658 644 658 625.5 653 c 128,-1,51
 607 648 607 648 592 638 c 1,52,53
 618 620 618 620 633 596.5 c 128,-1,54
 648 573 648 573 648 550 c 0,55,56
 648 513 648 513 618 486.5 c 128,-1,57
 588 460 588 460 545 460 c 0,58,59
 512 460 512 460 488.5 483.5 c 128,-1,60
 465 507 465 507 465 540 c 0,61,62
 465 568 465 568 478.5 592.5 c 128,-1,63
 492 617 492 617 515 630 c 1,64,-1
 495 630 l 2,65,66
 451 630 451 630 419.5 600.5 c 128,-1,67
 388 571 388 571 388 530 c 0,68,69
 388 498 388 498 416.5 463.5 c 128,-1,70
 445 429 445 429 495 400 c 1,71,72
 554 379 554 379 589.5 310 c 128,-1,73
 625 241 625 241 625 150 c 0,74,75
 625 88 625 88 590 44 c 128,-1,76
 555 0 555 0 505 0 c 2,77,-1
 75 0 l 1,78,-1
 75 400 l 1,79,-1
 125 400 l 1,80,-1
 125 40 l 1,81,-1
 315 40 l 1,82,-1
 315 300 l 2,83,84
 315 346 315 346 344.5 378 c 128,-1,85
 374 410 374 410 415 410 c 1,86,-1
 415 410 l 1,12,13
505 540 m 1,87,88
 505 523 505 523 516.5 511.5 c 128,-1,89
 528 500 528 500 545 500 c 0,90,91
 570 500 570 500 587.5 514.5 c 128,-1,92
 605 529 605 529 605 550 c 0,93,94
 605 570 605 570 593 587.5 c 128,-1,95
 581 605 581 605 560 615 c 1,96,97
 535 603 535 603 520 583 c 128,-1,98
 505 563 505 563 505 540 c 1,99,-1
 505 540 l 1,87,88
750 560 m 1,100,101
 750 552 750 552 755.5 546 c 128,-1,102
 761 540 761 540 768 540 c 256,103,104
 775 540 775 540 780 546 c 128,-1,105
 785 552 785 552 785 560 c 256,106,107
 785 568 785 568 780.5 576 c 128,-1,108
 776 584 776 584 768 590 c 1,109,110
 760 584 760 584 755 576 c 128,-1,111
 750 568 750 568 750 560 c 1,112,-1
 750 560 l 1,100,101
EndSplineSet
EndChar

StartChar: u0BF5
Encoding: 3061 3061 115
Width: 1465
GlyphClass: 2
Flags: W
LayerCount: 2
Fore
SplineSet
314 110 m 1,0,1
 314 77 314 77 333.5 53.5 c 128,-1,2
 353 30 353 30 380 30 c 256,3,4
 407 30 407 30 426.5 53.5 c 128,-1,5
 446 77 446 77 446 110 c 256,6,7
 446 143 446 143 426.5 166.5 c 128,-1,8
 407 190 407 190 380 190 c 256,9,10
 353 190 353 190 333.5 166.5 c 128,-1,11
 314 143 314 143 314 110 c 1,12,-1
 314 110 l 1,0,1
756 40 m 1,13,-1
 756 400 l 1,14,-1
 1059 400 l 1,15,-1
 1059 360 l 1,16,-1
 956 360 l 1,17,-1
 956 195 l 1,18,19
 970 207 970 207 985.5 213.5 c 128,-1,20
 1001 220 1001 220 1017 220 c 0,21,22
 1059 220 1059 220 1088.5 179 c 128,-1,23
 1118 138 1118 138 1118 80 c 0,24,25
 1118 -61 1118 -61 962 -160.5 c 128,-1,26
 806 -260 806 -260 585 -260 c 0,27,28
 365 -260 365 -260 209 -137 c 128,-1,29
 53 -14 53 -14 53 160 c 0,30,31
 53 342 53 342 226 471 c 128,-1,32
 399 600 399 600 644 600 c 256,33,34
 889 600 889 600 1062 512 c 128,-1,35
 1235 424 1235 424 1235 300 c 2,36,-1
 1235 150 l 2,37,38
 1235 104 1235 104 1256 72 c 128,-1,39
 1277 40 1277 40 1307 40 c 0,40,41
 1344 40 1344 40 1370.5 87 c 128,-1,42
 1397 134 1397 134 1397 200 c 256,43,44
 1397 266 1397 266 1373.5 313 c 128,-1,45
 1350 360 1350 360 1316 360 c 1,46,-1
 1332 400 l 1,47,48
 1375 400 1375 400 1406 341.5 c 128,-1,49
 1437 283 1437 283 1437 200 c 256,50,51
 1437 117 1437 117 1399 58.5 c 128,-1,52
 1361 0 1361 0 1307 0 c 0,53,54
 1257 0 1257 0 1222 44 c 128,-1,55
 1187 88 1187 88 1187 150 c 2,56,-1
 1187 300 l 2,57,58
 1187 408 1187 408 1027.5 484 c 128,-1,59
 868 560 868 560 642 560 c 256,60,61
 416 560 416 560 256.5 443 c 128,-1,62
 97 326 97 326 97 160 c 0,63,64
 97 3 97 3 239.5 -108.5 c 128,-1,65
 382 -220 382 -220 583 -220 c 0,66,67
 785 -220 785 -220 927.5 -132 c 128,-1,68
 1070 -44 1070 -44 1070 80 c 0,69,70
 1070 119 1070 119 1053.5 147 c 128,-1,71
 1037 175 1037 175 1014 175 c 0,72,73
 990 175 990 175 973 157.5 c 128,-1,74
 956 140 956 140 956 115 c 2,75,-1
 956 0 l 1,76,-1
 908 0 l 1,77,-1
 908 360 l 1,78,-1
 805 360 l 1,79,-1
 805 0 l 1,80,-1
 543 0 l 1,81,-1
 543 30 l 1,82,83
 564 58 564 58 575.5 99.5 c 128,-1,84
 587 141 587 141 587 190 c 0,85,86
 587 265 587 265 536.5 317.5 c 128,-1,87
 486 370 486 370 414 370 c 0,88,89
 343 370 343 370 292.5 317.5 c 128,-1,90
 242 265 242 265 242 190 c 0,91,92
 242 153 242 153 252.5 119.5 c 128,-1,93
 263 86 263 86 283 60 c 1,94,95
 279 74 279 74 276.5 86.5 c 128,-1,96
 274 99 274 99 274 110 c 0,97,98
 274 160 274 160 303.5 195 c 128,-1,99
 333 230 333 230 375 230 c 0,100,101
 421 230 421 230 453.5 195 c 128,-1,102
 486 160 486 160 486 110 c 256,103,104
 486 60 486 60 453.5 25 c 128,-1,105
 421 -10 421 -10 375 -10 c 0,106,107
 292 -10 292 -10 242 44.5 c 128,-1,108
 192 99 192 99 192 190 c 256,109,110
 192 281 192 281 257 345.5 c 128,-1,111
 322 410 322 410 414 410 c 256,112,113
 506 410 506 410 571 345.5 c 128,-1,114
 636 281 636 281 636 190 c 0,115,116
 636 150 636 150 627 112 c 128,-1,117
 618 74 618 74 601 40 c 1,118,-1
 756 40 l 1,119,-1
 756 40 l 1,13,-1
EndSplineSet
EndChar

StartChar: u0BF6
Encoding: 3062 3062 116
Width: 644
GlyphClass: 2
Flags: W
LayerCount: 2
Fore
SplineSet
69 110 m 1,0,-1
 69 400 l 1,1,-1
 119 400 l 1,2,-1
 119 110 l 2,3,4
 119 77 119 77 139.5 53.5 c 128,-1,5
 160 30 160 30 189 30 c 0,6,7
 226 30 226 30 252.5 56.5 c 128,-1,8
 279 83 279 83 279 120 c 2,9,-1
 279 400 l 1,10,-1
 329 400 l 1,11,-1
 329 -50 l 1,12,-1
 519 -50 l 1,13,-1
 519 400 l 1,14,-1
 569 400 l 1,15,-1
 569 -90 l 1,16,-1
 329 -90 l 1,17,-1
 329 -150 l 2,18,19
 329 -191 329 -191 301 -220.5 c 128,-1,20
 273 -250 273 -250 234 -250 c 2,21,-1
 164 -250 l 2,22,23
 123 -250 123 -250 93.5 -220.5 c 128,-1,24
 64 -191 64 -191 64 -150 c 256,25,26
 64 -109 64 -109 93.5 -79.5 c 128,-1,27
 123 -50 123 -50 164 -50 c 2,28,-1
 279 -50 l 1,29,-1
 279 30 l 1,30,31
 268 11 268 11 244 0.5 c 128,-1,32
 220 -10 220 -10 189 -10 c 0,33,34
 139 -10 139 -10 104 25 c 128,-1,35
 69 60 69 60 69 110 c 1,36,-1
 69 110 l 1,0,-1
114 -150 m 1,37,38
 114 -175 114 -175 128.5 -192.5 c 128,-1,39
 143 -210 143 -210 164 -210 c 2,40,-1
 234 -210 l 2,41,42
 253 -210 253 -210 266 -192.5 c 128,-1,43
 279 -175 279 -175 279 -150 c 2,44,-1
 279 -90 l 1,45,-1
 164 -90 l 2,46,47
 143 -90 143 -90 128.5 -107.5 c 128,-1,48
 114 -125 114 -125 114 -150 c 1,49,-1
 114 -150 l 1,37,38
EndSplineSet
EndChar

StartChar: u0BF7
Encoding: 3063 3063 117
Width: 1087
GlyphClass: 2
Flags: W
LayerCount: 2
Fore
SplineSet
174 110 m 1,0,1
 174 77 174 77 191.5 53.5 c 128,-1,2
 209 30 209 30 234 30 c 256,3,4
 259 30 259 30 276.5 53.5 c 128,-1,5
 294 77 294 77 294 110 c 0,6,7
 294 139 294 139 276.5 159.5 c 128,-1,8
 259 180 259 180 234 180 c 256,9,10
 209 180 209 180 191.5 159.5 c 128,-1,11
 174 139 174 139 174 110 c 1,12,-1
 174 110 l 1,0,1
44 180 m 1,13,14
 44 271 44 271 105.5 335.5 c 128,-1,15
 167 400 167 400 254 400 c 2,16,-1
 604 400 l 1,17,-1
 604 360 l 1,18,-1
 504 360 l 1,19,-1
 504 118 l 1,20,21
 519 136 519 136 539 151 c 128,-1,22
 559 166 559 166 583 177 c 1,23,24
 596 231 596 231 640 265 c 128,-1,25
 684 299 684 299 739 299 c 0,26,27
 808 299 808 299 857 252 c 128,-1,28
 906 205 906 205 906 139 c 0,29,30
 906 109 906 109 899 81 c 128,-1,31
 892 53 892 53 878 29 c 1,32,-1
 1081 29 l 1,33,-1
 1081 0 l 1,34,-1
 833 0 l 1,35,-1
 833 22 l 1,36,37
 850 43 850 43 859.5 73 c 128,-1,38
 869 103 869 103 869 139 c 0,39,40
 869 193 869 193 831 231.5 c 128,-1,41
 793 270 793 270 739 270 c 0,42,43
 700 270 700 270 667.5 248 c 128,-1,44
 635 226 635 226 619 189 c 1,45,46
 635 193 635 193 650.5 195 c 128,-1,47
 666 197 666 197 681 197 c 0,48,49
 732 197 732 197 768.5 165.5 c 128,-1,50
 805 134 805 134 805 90 c 0,51,52
 805 50 805 50 774.5 21.5 c 128,-1,53
 744 -7 744 -7 701 -7 c 0,54,55
 650 -7 650 -7 614 36 c 128,-1,56
 578 79 578 79 578 139 c 1,57,58
 552 124 552 124 532.5 103.5 c 128,-1,59
 513 83 513 83 504 58 c 1,60,-1
 504 0 l 1,61,-1
 454 0 l 1,62,-1
 454 360 l 1,63,-1
 254 360 l 2,64,65
 184 360 184 360 134 307.5 c 128,-1,66
 84 255 84 255 84 180 c 0,67,68
 84 136 84 136 105.5 98.5 c 128,-1,69
 127 61 127 61 164 40 c 1,70,71
 149 57 149 57 141.5 75 c 128,-1,72
 134 93 134 93 134 110 c 0,73,74
 134 156 134 156 163.5 188 c 128,-1,75
 193 220 193 220 234 220 c 0,76,77
 280 220 280 220 312 188 c 128,-1,78
 344 156 344 156 344 110 c 0,79,80
 344 60 344 60 306 25 c 128,-1,81
 268 -10 268 -10 214 -10 c 0,82,83
 144 -10 144 -10 94 45.5 c 128,-1,84
 44 101 44 101 44 180 c 1,85,-1
 44 180 l 1,13,14
609 152 m 1,86,87
 609 100 609 100 636 63.5 c 128,-1,88
 663 27 663 27 701 27 c 0,89,90
 728 27 728 27 746.5 45.5 c 128,-1,91
 765 64 765 64 765 90 c 0,92,93
 765 121 765 121 740.5 142.5 c 128,-1,94
 716 164 716 164 681 164 c 0,95,96
 663 164 663 164 644.5 161 c 128,-1,97
 626 158 626 158 609 152 c 1,98,-1
 609 152 l 1,86,87
EndSplineSet
EndChar

StartChar: u0BF8
Encoding: 3064 3064 118
Width: 1298
GlyphClass: 2
Flags: W
LayerCount: 2
Fore
SplineSet
50 250 m 1,0,1
 50 374 50 374 138 462 c 128,-1,2
 226 550 226 550 350 550 c 0,3,4
 442 550 442 550 520.5 489.5 c 128,-1,5
 599 429 599 429 635 330 c 1,6,7
 649 335 649 335 665 337.5 c 128,-1,8
 681 340 681 340 700 340 c 0,9,10
 762 340 762 340 806 293 c 128,-1,11
 850 246 850 246 850 180 c 0,12,13
 850 133 850 133 837 96.5 c 128,-1,14
 824 60 824 60 800 40 c 1,15,-1
 990 40 l 1,16,17
 953 57 953 57 931.5 92.5 c 128,-1,18
 910 128 910 128 910 170 c 0,19,20
 910 216 910 216 945 248 c 128,-1,21
 980 280 980 280 1030 280 c 256,22,23
 1080 280 1080 280 1115 248 c 128,-1,24
 1150 216 1150 216 1150 170 c 2,25,-1
 1150 40 l 1,26,-1
 1290 40 l 1,27,-1
 1290 0 l 1,28,-1
 1150 0 l 1,29,-1
 1150 -240 l 1,30,-1
 1100 -240 l 1,31,-1
 1100 0 l 1,32,-1
 710 0 l 1,33,-1
 710 30 l 1,34,35
 751 45 751 45 775.5 86 c 128,-1,36
 800 127 800 127 800 180 c 0,37,38
 800 230 800 230 768 265 c 128,-1,39
 736 300 736 300 690 300 c 0,40,41
 674 300 674 300 663 298.5 c 128,-1,42
 652 297 652 297 645 295 c 1,43,44
 647 288 647 288 648.5 277 c 128,-1,45
 650 266 650 266 650 250 c 0,46,47
 650 146 650 146 612 73 c 128,-1,48
 574 0 574 0 520 0 c 0,49,50
 491 0 491 0 470.5 29.5 c 128,-1,51
 450 59 450 59 450 100 c 0,52,53
 450 175 450 175 487 234 c 128,-1,54
 524 293 524 293 585 315 c 1,55,56
 553 403 553 403 488.5 456.5 c 128,-1,57
 424 510 424 510 350 510 c 0,58,59
 244 510 244 510 169.5 434 c 128,-1,60
 95 358 95 358 95 250 c 0,61,62
 95 215 95 215 106.5 176.5 c 128,-1,63
 118 138 118 138 140 100 c 1,64,65
 135 152 135 152 168 191 c 128,-1,66
 201 230 201 230 250 230 c 0,67,68
 300 230 300 230 335 195 c 128,-1,69
 370 160 370 160 370 110 c 256,70,71
 370 60 370 60 335 25 c 128,-1,72
 300 -10 300 -10 250 -10 c 0,73,74
 167 -10 167 -10 108.5 66 c 128,-1,75
 50 142 50 142 50 250 c 1,76,-1
 50 250 l 1,0,1
180 110 m 1,77,78
 180 77 180 77 200.5 53.5 c 128,-1,79
 221 30 221 30 250 30 c 256,80,81
 279 30 279 30 299.5 53.5 c 128,-1,82
 320 77 320 77 320 110 c 256,83,84
 320 143 320 143 298 166.5 c 128,-1,85
 276 190 276 190 245 190 c 0,86,87
 218 190 218 190 199 166.5 c 128,-1,88
 180 143 180 143 180 110 c 1,89,-1
 180 110 l 1,77,78
500 100 m 1,90,91
 500 75 500 75 506 57.5 c 128,-1,92
 512 40 512 40 520 40 c 0,93,94
 551 40 551 40 573 101.5 c 128,-1,95
 595 163 595 163 595 250 c 2,96,-1
 595 280 l 1,97,98
 552 264 552 264 526 214.5 c 128,-1,99
 500 165 500 165 500 100 c 1,100,-1
 500 100 l 1,90,91
960 170 m 1,101,102
 960 116 960 116 1001 78 c 128,-1,103
 1042 40 1042 40 1100 40 c 1,104,-1
 1100 170 l 2,105,106
 1100 199 1100 199 1079.5 219.5 c 128,-1,107
 1059 240 1059 240 1030 240 c 256,108,109
 1001 240 1001 240 980.5 219.5 c 128,-1,110
 960 199 960 199 960 170 c 1,111,-1
 960 170 l 1,101,102
EndSplineSet
EndChar

StartChar: u0BF9
Encoding: 3065 3065 119
Width: 1002
GlyphClass: 2
Flags: W
LayerCount: 2
Fore
SplineSet
372 -180 m 1,0,1
 484 -180 484 -180 563 -98 c 128,-1,2
 642 -16 642 -16 642 100 c 0,3,4
 642 146 642 146 614 178 c 128,-1,5
 586 210 586 210 547 210 c 0,6,7
 532 210 532 210 515 199.5 c 128,-1,8
 498 189 498 189 482 170 c 1,9,-1
 482 0 l 1,10,-1
 432 0 l 1,11,-1
 432 360 l 1,12,-1
 312 360 l 1,13,-1
 312 0 l 1,14,-1
 262 0 l 1,15,-1
 262 400 l 1,16,-1
 562 400 l 1,17,-1
 562 360 l 1,18,-1
 482 360 l 1,19,-1
 482 220 l 1,20,21
 490 234 490 234 509 242 c 128,-1,22
 528 250 528 250 552 250 c 0,23,24
 610 250 610 250 651 206 c 128,-1,25
 692 162 692 162 692 100 c 0,26,27
 692 -33 692 -33 598.5 -126.5 c 128,-1,28
 505 -220 505 -220 372 -220 c 0,29,30
 244 -220 244 -220 153 -104.5 c 128,-1,31
 62 11 62 11 62 175 c 0,32,33
 62 351 62 351 161.5 475.5 c 128,-1,34
 261 600 261 600 402 600 c 0,35,36
 495 600 495 600 572 545 c 128,-1,37
 649 490 649 490 682 400 c 1,38,39
 696 436 696 436 729 458 c 128,-1,40
 762 480 762 480 802 480 c 0,41,42
 852 480 852 480 887 450.5 c 128,-1,43
 922 421 922 421 922 380 c 1,44,-1
 1002 380 l 1,45,-1
 1002 340 l 1,46,-1
 882 340 l 1,47,48
 882 381 882 381 858.5 410.5 c 128,-1,49
 835 440 835 440 802 440 c 0,50,51
 761 440 761 440 731.5 405 c 128,-1,52
 702 370 702 370 702 320 c 1,53,-1
 652 320 l 1,54,55
 652 419 652 419 579 489.5 c 128,-1,56
 506 560 506 560 402 560 c 0,57,58
 280 560 280 560 193.5 447 c 128,-1,59
 107 334 107 334 107 175 c 0,60,61
 107 28 107 28 184.5 -76 c 128,-1,62
 262 -180 262 -180 372 -180 c 1,63,-1
 372 -180 l 1,0,1
EndSplineSet
EndChar

StartChar: u0BFA
Encoding: 3066 3066 120
Width: 973
GlyphClass: 2
Flags: W
LayerCount: 2
Fore
SplineSet
560 280 m 1,0,1
 560 259 560 259 574.5 244.5 c 128,-1,2
 589 230 589 230 610 230 c 0,3,4
 629 230 629 230 642 244.5 c 128,-1,5
 655 259 655 259 655 280 c 0,6,7
 655 309 655 309 652.5 330 c 128,-1,8
 650 351 650 351 645 365 c 1,9,10
 607 355 607 355 583.5 331.5 c 128,-1,11
 560 308 560 308 560 280 c 1,12,-1
 560 280 l 1,0,1
75 0 m 1,13,-1
 75 400 l 1,14,-1
 315 400 l 1,15,16
 303 411 303 411 296.5 432 c 128,-1,17
 290 453 290 453 290 480 c 0,18,19
 290 528 290 528 338.5 561.5 c 128,-1,20
 387 595 387 595 455 595 c 0,21,22
 530 595 530 595 591.5 543 c 128,-1,23
 653 491 653 491 675 409 c 1,24,-1
 690 410 l 2,25,26
 771 410 771 410 828 363 c 128,-1,27
 885 316 885 316 885 250 c 0,28,29
 885 190 885 190 847.5 134 c 128,-1,30
 810 78 810 78 745 40 c 1,31,-1
 965 40 l 1,32,-1
 965 0 l 1,33,-1
 580 0 l 1,34,35
 697 43 697 43 768.5 111.5 c 128,-1,36
 840 180 840 180 840 250 c 0,37,38
 840 300 840 300 796 335 c 128,-1,39
 752 370 752 370 690 370 c 1,40,41
 696 357 696 357 699 334.5 c 128,-1,42
 702 312 702 312 702 280 c 0,43,44
 702 243 702 243 675 216.5 c 128,-1,45
 648 190 648 190 610 190 c 0,46,47
 571 190 571 190 543 216.5 c 128,-1,48
 515 243 515 243 515 280 c 0,49,50
 515 325 515 325 547.5 359.5 c 128,-1,51
 580 394 580 394 630 403 c 1,52,53
 612 470 612 470 563 512.5 c 128,-1,54
 514 555 514 555 455 555 c 0,55,56
 405 555 405 555 370 533 c 128,-1,57
 335 511 335 511 335 480 c 0,58,59
 335 454 335 454 343 433 c 128,-1,60
 351 412 351 412 365 400 c 1,61,-1
 435 400 l 1,62,-1
 435 360 l 1,63,-1
 295 360 l 1,64,-1
 295 215 l 1,65,66
 307 229 307 229 325.5 237 c 128,-1,67
 344 245 344 245 365 245 c 0,68,69
 419 245 419 245 457 211.5 c 128,-1,70
 495 178 495 178 495 130 c 0,71,72
 495 76 495 76 454 38 c 128,-1,73
 413 0 413 0 355 0 c 2,74,-1
 245 0 l 1,75,-1
 245 40 l 1,76,-1
 355 40 l 2,77,78
 392 40 392 40 418.5 66.5 c 128,-1,79
 445 93 445 93 445 130 c 0,80,81
 445 159 445 159 421.5 179.5 c 128,-1,82
 398 200 398 200 365 200 c 0,83,84
 348 200 348 200 329.5 189.5 c 128,-1,85
 311 179 311 179 295 160 c 1,86,-1
 295 80 l 1,87,-1
 245 80 l 1,88,-1
 245 360 l 1,89,-1
 125 360 l 1,90,-1
 125 0 l 1,91,-1
 75 0 l 1,92,-1
 75 0 l 1,13,-1
EndSplineSet
EndChar

StartChar: afii61664
Encoding: 8204 8204 121
Width: 0
GlyphClass: 2
Flags: W
LayerCount: 2
Fore
SplineSet
1 -295 m 1,0,-1
 0 700 l 1,1,-1
 40 700 l 1,2,-1
 41 -295 l 1,3,-1
 1 -295 l 1,4,-1
 1 -295 l 1,0,-1
EndSplineSet
EndChar

StartChar: afii301
Encoding: 8205 8205 122
Width: 0
GlyphClass: 2
Flags: W
LayerCount: 2
Fore
SplineSet
0 -295 m 1,0,-1
 0 660 l 1,1,-1
 -160 660 l 1,2,-1
 -160 700 l 1,3,-1
 218 700 l 1,4,-1
 218 660 l 1,5,-1
 40 660 l 1,6,-1
 40 -295 l 1,7,-1
 0 -295 l 1,8,-1
 0 -295 l 1,0,-1
EndSplineSet
EndChar

StartChar: endash
Encoding: 8211 8211 123
Width: 500
GlyphClass: 2
Flags: W
LayerCount: 2
Fore
SplineSet
0 200 m 1,0,-1
 0 240 l 1,1,-1
 450 240 l 1,2,-1
 450 200 l 1,3,-1
 0 200 l 1,4,-1
 0 200 l 1,0,-1
EndSplineSet
EndChar

StartChar: emdash
Encoding: 8212 8212 124
Width: 1000
GlyphClass: 2
Flags: W
LayerCount: 2
Fore
SplineSet
0 200 m 1,0,-1
 0 240 l 1,1,-1
 1000 240 l 1,2,-1
 1000 200 l 1,3,-1
 0 200 l 1,4,-1
 0 200 l 1,0,-1
EndSplineSet
EndChar

StartChar: quoteleft
Encoding: 8216 8216 125
Width: 235
GlyphClass: 2
Flags: W
LayerCount: 2
Fore
SplineSet
75 420 m 1,0,1
 75 462 75 462 94 496.5 c 128,-1,2
 113 531 113 531 145 550 c 1,3,-1
 160 525 l 1,4,5
 139 513 139 513 127 490 c 128,-1,6
 115 467 115 467 115 440 c 1,7,8
 132 440 132 440 143.5 428.5 c 128,-1,9
 155 417 155 417 155 400 c 256,10,11
 155 383 155 383 144.5 371.5 c 128,-1,12
 134 360 134 360 120 360 c 0,13,14
 101 360 101 360 88 377.5 c 128,-1,15
 75 395 75 395 75 420 c 1,16,-1
 75 420 l 1,0,1
EndSplineSet
EndChar

StartChar: quoteright
Encoding: 8217 8217 126
Width: 230
GlyphClass: 2
Flags: W
LayerCount: 2
Fore
SplineSet
75 500 m 1,0,1
 75 517 75 517 86.5 528.5 c 128,-1,2
 98 540 98 540 115 540 c 256,3,4
 132 540 132 540 143.5 519.5 c 128,-1,5
 155 499 155 499 155 470 c 0,6,7
 155 438 155 438 136 408.5 c 128,-1,8
 117 379 117 379 85 360 c 1,9,-1
 75 380 l 1,10,11
 94 391 94 391 104.5 412.5 c 128,-1,12
 115 434 115 434 115 460 c 1,13,14
 98 460 98 460 86.5 471.5 c 128,-1,15
 75 483 75 483 75 500 c 1,16,-1
 75 500 l 1,0,1
EndSplineSet
EndChar

StartChar: quotedblleft
Encoding: 8220 8220 127
Width: 370
GlyphClass: 2
Flags: W
LayerCount: 2
Fore
SplineSet
75 420 m 1,0,1
 75 462 75 462 94 496.5 c 128,-1,2
 113 531 113 531 145 550 c 1,3,-1
 160 525 l 1,4,5
 139 513 139 513 127 490 c 128,-1,6
 115 467 115 467 115 440 c 1,7,8
 132 440 132 440 143.5 428.5 c 128,-1,9
 155 417 155 417 155 400 c 256,10,11
 155 383 155 383 144.5 371.5 c 128,-1,12
 134 360 134 360 120 360 c 0,13,14
 101 360 101 360 88 377.5 c 128,-1,15
 75 395 75 395 75 420 c 1,16,-1
 75 420 l 1,0,1
210 420 m 1,17,18
 210 462 210 462 229 496.5 c 128,-1,19
 248 531 248 531 280 550 c 1,20,-1
 295 525 l 1,21,22
 274 513 274 513 262 490 c 128,-1,23
 250 467 250 467 250 440 c 1,24,25
 267 440 267 440 278.5 428.5 c 128,-1,26
 290 417 290 417 290 400 c 256,27,28
 290 383 290 383 279.5 371.5 c 128,-1,29
 269 360 269 360 255 360 c 0,30,31
 236 360 236 360 223 377.5 c 128,-1,32
 210 395 210 395 210 420 c 1,33,-1
 210 420 l 1,17,18
EndSplineSet
EndChar

StartChar: quotedblright
Encoding: 8221 8221 128
Width: 355
GlyphClass: 2
Flags: W
LayerCount: 2
Fore
SplineSet
75 500 m 1,0,1
 75 517 75 517 86.5 528.5 c 128,-1,2
 98 540 98 540 115 540 c 256,3,4
 132 540 132 540 143.5 519.5 c 128,-1,5
 155 499 155 499 155 470 c 0,6,7
 155 438 155 438 136 408.5 c 128,-1,8
 117 379 117 379 85 360 c 1,9,-1
 75 380 l 1,10,11
 94 391 94 391 104.5 412.5 c 128,-1,12
 115 434 115 434 115 460 c 1,13,14
 98 460 98 460 86.5 471.5 c 128,-1,15
 75 483 75 483 75 500 c 1,16,-1
 75 500 l 1,0,1
200 500 m 1,17,18
 200 517 200 517 211.5 528.5 c 128,-1,19
 223 540 223 540 240 540 c 256,20,21
 257 540 257 540 268.5 519.5 c 128,-1,22
 280 499 280 499 280 470 c 0,23,24
 280 438 280 438 261 408.5 c 128,-1,25
 242 379 242 379 210 360 c 1,26,-1
 200 380 l 1,27,28
 219 391 219 391 229.5 412.5 c 128,-1,29
 240 434 240 434 240 460 c 1,30,31
 223 460 223 460 211.5 471.5 c 128,-1,32
 200 483 200 483 200 500 c 1,33,-1
 200 500 l 1,17,18
EndSplineSet
EndChar

StartChar: ellipsis
Encoding: 8230 8230 129
Width: 793
GlyphClass: 2
Flags: W
LayerCount: 2
Fore
SplineSet
168 50 m 1,0,-1
 168 0 l 1,1,-1
 75 0 l 1,2,-1
 75 50 l 1,3,-1
 168 50 l 1,4,-1
 168 50 l 1,0,-1
443 50 m 1,5,-1
 443 0 l 1,6,-1
 350 0 l 1,7,-1
 350 50 l 1,8,-1
 443 50 l 1,9,-1
 443 50 l 1,5,-1
718 50 m 1,10,-1
 718 0 l 1,11,-1
 625 0 l 1,12,-1
 625 50 l 1,13,-1
 718 50 l 1,14,-1
 718 50 l 1,10,-1
EndSplineSet
EndChar

StartChar: minus
Encoding: 8722 8722 130
Width: 400
GlyphClass: 2
Flags: W
LayerCount: 2
Fore
SplineSet
75 200 m 1,0,-1
 75 240 l 1,1,-1
 325 240 l 1,2,-1
 325 200 l 1,3,-1
 75 200 l 1,4,-1
 75 200 l 1,0,-1
EndSplineSet
EndChar

StartChar: uni25CC
Encoding: 9676 9676 131
Width: 636
GlyphClass: 2
Flags: W
LayerCount: 2
Fore
SplineSet
286 413 m 1,0,1
 286 426 286 426 295.5 435.5 c 128,-1,2
 305 445 305 445 318 445 c 0,3,4
 332 445 332 445 341.5 435.5 c 128,-1,5
 351 426 351 426 351 413 c 0,6,7
 351 399 351 399 341.5 389.5 c 128,-1,8
 332 380 332 380 318 380 c 0,9,10
 305 380 305 380 295.5 389.5 c 128,-1,11
 286 399 286 399 286 413 c 1,12,-1
 286 413 l 1,0,1
286 -9 m 1,13,14
 286 5 286 5 295.5 14.5 c 128,-1,15
 305 24 305 24 318 24 c 0,16,17
 332 24 332 24 341.5 14.5 c 128,-1,18
 351 5 351 5 351 -9 c 0,19,20
 351 -22 351 -22 341.5 -31.5 c 128,-1,21
 332 -41 332 -41 318 -41 c 0,22,23
 305 -41 305 -41 295.5 -31.5 c 128,-1,24
 286 -22 286 -22 286 -9 c 1,25,-1
 286 -9 l 1,13,14
75 202 m 1,26,27
 75 215 75 215 84.5 224.5 c 128,-1,28
 94 234 94 234 108 234 c 0,29,30
 121 234 121 234 130.5 224.5 c 128,-1,31
 140 215 140 215 140 202 c 256,32,33
 140 189 140 189 130.5 179.5 c 128,-1,34
 121 170 121 170 108 170 c 0,35,36
 94 170 94 170 84.5 179.5 c 128,-1,37
 75 189 75 189 75 202 c 1,38,-1
 75 202 l 1,26,27
496 202 m 1,39,40
 496 215 496 215 505.5 224.5 c 128,-1,41
 515 234 515 234 529 234 c 0,42,43
 542 234 542 234 551.5 224.5 c 128,-1,44
 561 215 561 215 561 202 c 256,45,46
 561 189 561 189 551.5 179.5 c 128,-1,47
 542 170 542 170 529 170 c 0,48,49
 515 170 515 170 505.5 179.5 c 128,-1,50
 496 189 496 189 496 202 c 1,51,-1
 496 202 l 1,39,40
103 97 m 1,52,53
 103 110 103 110 112.5 119.5 c 128,-1,54
 122 129 122 129 136 129 c 0,55,56
 149 129 149 129 158.5 119.5 c 128,-1,57
 168 110 168 110 168 97 c 0,58,59
 168 83 168 83 158.5 73.5 c 128,-1,60
 149 64 149 64 136 64 c 0,61,62
 122 64 122 64 112.5 73.5 c 128,-1,63
 103 83 103 83 103 97 c 1,64,-1
 103 97 l 1,52,53
468 307 m 1,65,66
 468 321 468 321 477.5 330.5 c 128,-1,67
 487 340 487 340 500 340 c 256,68,69
 513 340 513 340 522.5 330.5 c 128,-1,70
 532 321 532 321 532 307 c 0,71,72
 532 294 532 294 522.5 284.5 c 128,-1,73
 513 275 513 275 500 275 c 256,74,75
 487 275 487 275 477.5 284.5 c 128,-1,76
 468 294 468 294 468 307 c 1,77,-1
 468 307 l 1,65,66
391 385 m 1,78,79
 391 398 391 398 400.5 407.5 c 128,-1,80
 410 417 410 417 424 417 c 0,81,82
 437 417 437 417 446.5 407.5 c 128,-1,83
 456 398 456 398 456 385 c 0,84,85
 456 371 456 371 446.5 361.5 c 128,-1,86
 437 352 437 352 424 352 c 0,87,88
 410 352 410 352 400.5 361.5 c 128,-1,89
 391 371 391 371 391 385 c 1,90,-1
 391 385 l 1,78,79
181 19 m 1,91,92
 181 33 181 33 190.5 43 c 128,-1,93
 200 53 200 53 213 53 c 256,94,95
 226 53 226 53 235.5 43 c 128,-1,96
 245 33 245 33 245 19 c 0,97,98
 245 6 245 6 235.5 -3.5 c 128,-1,99
 226 -13 226 -13 213 -13 c 256,100,101
 200 -13 200 -13 190.5 -3.5 c 128,-1,102
 181 6 181 6 181 19 c 1,103,-1
 181 19 l 1,91,92
103 307 m 1,104,105
 103 321 103 321 112.5 330.5 c 128,-1,106
 122 340 122 340 136 340 c 0,107,108
 149 340 149 340 158.5 330.5 c 128,-1,109
 168 321 168 321 168 307 c 0,110,111
 168 294 168 294 158.5 284.5 c 128,-1,112
 149 275 149 275 136 275 c 0,113,114
 122 275 122 275 112.5 284.5 c 128,-1,115
 103 294 103 294 103 307 c 1,116,-1
 103 307 l 1,104,105
468 97 m 1,117,118
 468 110 468 110 477.5 119.5 c 128,-1,119
 487 129 487 129 500 129 c 256,120,121
 513 129 513 129 522.5 119.5 c 128,-1,122
 532 110 532 110 532 97 c 0,123,124
 532 83 532 83 522.5 73.5 c 128,-1,125
 513 64 513 64 500 64 c 256,126,127
 487 64 487 64 477.5 73.5 c 128,-1,128
 468 83 468 83 468 97 c 1,129,-1
 468 97 l 1,117,118
181 385 m 1,130,131
 181 398 181 398 190.5 407.5 c 128,-1,132
 200 417 200 417 213 417 c 256,133,134
 226 417 226 417 235.5 407.5 c 128,-1,135
 245 398 245 398 245 385 c 0,136,137
 245 371 245 371 235.5 361.5 c 128,-1,138
 226 352 226 352 213 352 c 256,139,140
 200 352 200 352 190.5 361.5 c 128,-1,141
 181 371 181 371 181 385 c 1,142,-1
 181 385 l 1,130,131
391 19 m 1,143,144
 391 33 391 33 400.5 43 c 128,-1,145
 410 53 410 53 424 53 c 0,146,147
 437 53 437 53 446.5 43 c 128,-1,148
 456 33 456 33 456 19 c 0,149,150
 456 6 456 6 446.5 -3.5 c 128,-1,151
 437 -13 437 -13 424 -13 c 0,152,153
 410 -13 410 -13 400.5 -3.5 c 128,-1,154
 391 6 391 6 391 19 c 1,155,-1
 391 19 l 1,143,144
EndSplineSet
EndChar

StartChar: u0B95_u0BBF.abvs
Encoding: 65537 -1 132
Width: 683
GlyphClass: 2
Flags: W
LayerCount: 2
Fore
SplineSet
178 220 m 1,0,-1
 278 220 l 1,1,-1
 278 360 l 1,2,-1
 178 360 l 1,3,-1
 178 220 l 1,4,-1
 178 220 l 1,0,-1
78 130 m 1,5,6
 78 89 78 89 110 59.5 c 128,-1,7
 142 30 142 30 188 30 c 0,8,9
 225 30 225 30 251.5 53.5 c 128,-1,10
 278 77 278 77 278 110 c 2,11,-1
 278 180 l 1,12,-1
 128 180 l 2,13,14
 107 180 107 180 92.5 165.5 c 128,-1,15
 78 151 78 151 78 130 c 1,16,-1
 78 130 l 1,5,6
128 400 m 1,17,-1
 288 400 l 1,18,19
 269 423 269 423 258.5 451.5 c 128,-1,20
 248 480 248 480 248 510 c 0,21,22
 248 572 248 572 300.5 616 c 128,-1,23
 353 660 353 660 428 660 c 256,24,25
 503 660 503 660 555.5 604.5 c 128,-1,26
 608 549 608 549 608 470 c 2,27,-1
 608 0 l 1,28,-1
 558 0 l 1,29,-1
 558 470 l 2,30,31
 558 532 558 532 520 576 c 128,-1,32
 482 620 482 620 428 620 c 256,33,34
 374 620 374 620 336 588 c 128,-1,35
 298 556 298 556 298 510 c 0,36,37
 298 475 298 475 314 445.5 c 128,-1,38
 330 416 330 416 358 400 c 1,39,-1
 478 400 l 1,40,-1
 478 360 l 1,41,-1
 328 360 l 1,42,-1
 328 220 l 1,43,-1
 388 220 l 2,44,45
 434 220 434 220 466 188 c 128,-1,46
 498 156 498 156 498 110 c 0,47,48
 498 60 498 60 468.5 25 c 128,-1,49
 439 -10 439 -10 398 -10 c 0,50,51
 387 -10 387 -10 374.5 -7.5 c 128,-1,52
 362 -5 362 -5 348 0 c 1,53,-1
 358 40 l 1,54,55
 367 35 367 35 377 32.5 c 128,-1,56
 387 30 387 30 398 30 c 0,57,58
 419 30 419 30 433.5 53.5 c 128,-1,59
 448 77 448 77 448 110 c 0,60,61
 448 139 448 139 430.5 159.5 c 128,-1,62
 413 180 413 180 388 180 c 2,63,-1
 328 180 l 1,64,-1
 328 110 l 2,65,66
 328 60 328 60 287 25 c 128,-1,67
 246 -10 246 -10 188 -10 c 0,68,69
 122 -10 122 -10 75 31 c 128,-1,70
 28 72 28 72 28 130 c 0,71,72
 28 167 28 167 57.5 193.5 c 128,-1,73
 87 220 87 220 128 220 c 1,74,-1
 128 400 l 1,75,-1
 128 400 l 1,17,-1
EndSplineSet
Ligature2: "'abvs' Above Base Substitutions in Tamil lookup 0 subtable" u0B95 u0BBF
EndChar

StartChar: u0B99_u0BBF.abvs
Encoding: 65538 -1 133
Width: 870
GlyphClass: 2
Flags: W
LayerCount: 2
Fore
SplineSet
75 400 m 1,0,-1
 380 400 l 1,1,-1
 380 360 l 1,2,-1
 295 360 l 1,3,-1
 295 215 l 1,4,5
 315 232 315 232 335.5 241 c 128,-1,6
 356 250 356 250 375 250 c 0,7,8
 425 250 425 250 460 215 c 128,-1,9
 495 180 495 180 495 130 c 0,10,11
 495 105 495 105 483 81.5 c 128,-1,12
 471 58 471 58 450 40 c 1,13,-1
 605 40 l 1,14,-1
 605 260 l 1,15,16
 591 250 591 250 575.5 245 c 128,-1,17
 560 240 560 240 545 240 c 0,18,19
 487 240 487 240 446 292.5 c 128,-1,20
 405 345 405 345 405 420 c 0,21,22
 405 524 405 524 462 597 c 128,-1,23
 519 670 519 670 600 670 c 256,24,25
 681 670 681 670 738 608.5 c 128,-1,26
 795 547 795 547 795 460 c 2,27,-1
 795 0 l 1,28,-1
 745 0 l 1,29,-1
 745 465 l 2,30,31
 745 529 745 529 701 574.5 c 128,-1,32
 657 620 657 620 595 620 c 0,33,34
 537 620 537 620 496 561.5 c 128,-1,35
 455 503 455 503 455 420 c 0,36,37
 455 364 455 364 481.5 324.5 c 128,-1,38
 508 285 508 285 545 285 c 0,39,40
 562 285 562 285 577.5 293 c 128,-1,41
 593 301 593 301 605 315 c 1,42,-1
 605 400 l 1,43,-1
 655 400 l 1,44,-1
 655 0 l 1,45,-1
 245 0 l 1,46,-1
 245 40 l 1,47,-1
 355 40 l 2,48,49
 392 40 392 40 418.5 66.5 c 128,-1,50
 445 93 445 93 445 130 c 0,51,52
 445 159 445 159 421.5 179.5 c 128,-1,53
 398 200 398 200 365 200 c 0,54,55
 348 200 348 200 329.5 189.5 c 128,-1,56
 311 179 311 179 295 160 c 1,57,-1
 295 80 l 1,58,-1
 245 80 l 1,59,-1
 245 360 l 1,60,-1
 125 360 l 1,61,-1
 125 0 l 1,62,-1
 75 0 l 1,63,-1
 75 400 l 1,64,-1
 75 400 l 1,0,-1
EndSplineSet
Ligature2: "'abvs' Above Base Substitutions in Tamil lookup 0 subtable" u0B99 u0BBF
EndChar

StartChar: u0B9A_u0BBF.abvs
Encoding: 65539 -1 134
Width: 653
GlyphClass: 2
Flags: W
LayerCount: 2
Fore
SplineSet
178 220 m 1,0,-1
 278 220 l 1,1,-1
 278 360 l 1,2,-1
 178 360 l 1,3,-1
 178 220 l 1,4,-1
 178 220 l 1,0,-1
78 130 m 1,5,6
 78 89 78 89 110 59.5 c 128,-1,7
 142 30 142 30 188 30 c 0,8,9
 225 30 225 30 251.5 53.5 c 128,-1,10
 278 77 278 77 278 110 c 2,11,-1
 278 180 l 1,12,-1
 128 180 l 2,13,14
 107 180 107 180 92.5 165.5 c 128,-1,15
 78 151 78 151 78 130 c 1,16,-1
 78 130 l 1,5,6
128 400 m 1,17,-1
 268 400 l 1,18,19
 244 420 244 420 231 449 c 128,-1,20
 218 478 218 478 218 510 c 0,21,22
 218 572 218 572 268 616 c 128,-1,23
 318 660 318 660 388 660 c 0,24,25
 467 660 467 660 522.5 601.5 c 128,-1,26
 578 543 578 543 578 460 c 2,27,-1
 578 0 l 1,28,-1
 528 0 l 1,29,-1
 528 460 l 2,30,31
 528 526 528 526 487 573 c 128,-1,32
 446 620 446 620 388 620 c 0,33,34
 338 620 338 620 303 588 c 128,-1,35
 268 556 268 556 268 510 c 0,36,37
 268 475 268 475 284 445.5 c 128,-1,38
 300 416 300 416 328 400 c 1,39,-1
 448 400 l 1,40,-1
 448 360 l 1,41,-1
 328 360 l 1,42,-1
 328 220 l 1,43,-1
 448 220 l 1,44,-1
 448 180 l 1,45,-1
 328 180 l 1,46,-1
 328 110 l 2,47,48
 328 60 328 60 287 25 c 128,-1,49
 246 -10 246 -10 188 -10 c 0,50,51
 122 -10 122 -10 75 31 c 128,-1,52
 28 72 28 72 28 130 c 0,53,54
 28 167 28 167 57.5 193.5 c 128,-1,55
 87 220 87 220 128 220 c 1,56,-1
 128 400 l 1,57,-1
 128 400 l 1,17,-1
EndSplineSet
Ligature2: "'abvs' Above Base Substitutions in Tamil lookup 0 subtable" u0B9A u0BBF
EndChar

StartChar: u0B9C_u0BBF.abvs
Encoding: 65540 -1 135
Width: 847
GlyphClass: 2
Flags: W
LayerCount: 2
Fore
SplineSet
82 200 m 1,0,1
 82 175 82 175 102.5 157.5 c 128,-1,2
 123 140 123 140 152 140 c 0,3,4
 177 140 177 140 194.5 157.5 c 128,-1,5
 212 175 212 175 212 200 c 256,6,7
 212 225 212 225 194.5 242.5 c 128,-1,8
 177 260 177 260 152 260 c 0,9,10
 123 260 123 260 102.5 242.5 c 128,-1,11
 82 225 82 225 82 200 c 1,12,-1
 82 200 l 1,0,1
357 330 m 1,13,14
 380 363 380 363 409 382.5 c 128,-1,15
 438 402 438 402 467 405 c 1,16,17
 435 424 435 424 416 458.5 c 128,-1,18
 397 493 397 493 397 535 c 0,19,20
 397 587 397 587 447 623.5 c 128,-1,21
 497 660 497 660 567 660 c 0,22,23
 652 660 652 660 712 604.5 c 128,-1,24
 772 549 772 549 772 470 c 2,25,-1
 772 0 l 1,26,-1
 722 0 l 1,27,-1
 722 465 l 2,28,29
 722 529 722 529 676.5 574.5 c 128,-1,30
 631 620 631 620 567 620 c 0,31,32
 515 620 515 620 478.5 593.5 c 128,-1,33
 442 567 442 567 442 530 c 0,34,35
 442 491 442 491 466.5 458 c 128,-1,36
 491 425 491 425 532 410 c 0,37,38
 586 390 586 390 619 338 c 128,-1,39
 652 286 652 286 652 220 c 0,40,41
 652 141 652 141 599.5 85.5 c 128,-1,42
 547 30 547 30 472 30 c 2,43,-1
 192 30 l 2,44,45
 151 30 151 30 121.5 -8 c 128,-1,46
 92 -46 92 -46 92 -100 c 0,47,48
 92 -158 92 -158 121.5 -199 c 128,-1,49
 151 -240 151 -240 192 -240 c 0,50,51
 226 -240 226 -240 260.5 -213 c 128,-1,52
 295 -186 295 -186 322 -140 c 0,53,54
 360 -75 360 -75 418.5 -37.5 c 128,-1,55
 477 0 477 0 542 0 c 0,56,57
 583 0 583 0 612.5 -44 c 128,-1,58
 642 -88 642 -88 642 -150 c 0,59,60
 642 -206 642 -206 612.5 -245.5 c 128,-1,61
 583 -285 583 -285 542 -285 c 0,62,63
 492 -285 492 -285 457 -242.5 c 128,-1,64
 422 -200 422 -200 422 -140 c 1,65,-1
 447 -140 l 1,66,67
 455 -183 455 -183 473 -211.5 c 128,-1,68
 491 -240 491 -240 512 -240 c 0,69,70
 545 -240 545 -240 568.5 -213.5 c 128,-1,71
 592 -187 592 -187 592 -150 c 0,72,73
 592 -104 592 -104 571.5 -72 c 128,-1,74
 551 -40 551 -40 522 -40 c 0,75,76
 480 -40 480 -40 438 -69.5 c 128,-1,77
 396 -99 396 -99 367 -150 c 0,78,79
 332 -210 332 -210 285 -245 c 128,-1,80
 238 -280 238 -280 192 -280 c 0,81,82
 130 -280 130 -280 86 -227.5 c 128,-1,83
 42 -175 42 -175 42 -100 c 0,84,85
 42 -30 42 -30 86 20 c 128,-1,86
 130 70 130 70 192 70 c 2,87,-1
 472 70 l 2,88,89
 526 70 526 70 564 114 c 128,-1,90
 602 158 602 158 602 220 c 256,91,92
 602 282 602 282 570 326 c 128,-1,93
 538 370 538 370 492 370 c 256,94,95
 446 370 446 370 414 338 c 128,-1,96
 382 306 382 306 382 260 c 2,97,-1
 382 110 l 1,98,-1
 332 110 l 1,99,-1
 332 260 l 2,100,101
 332 306 332 306 297 338 c 128,-1,102
 262 370 262 370 212 370 c 0,103,104
 163 370 163 370 126.5 341.5 c 128,-1,105
 90 313 90 313 82 270 c 1,106,107
 94 284 94 284 112.5 292 c 128,-1,108
 131 300 131 300 152 300 c 0,109,110
 193 300 193 300 222.5 270.5 c 128,-1,111
 252 241 252 241 252 200 c 256,112,113
 252 159 252 159 222.5 129.5 c 128,-1,114
 193 100 193 100 152 100 c 0,115,116
 102 100 102 100 72 131.5 c 128,-1,117
 42 163 42 163 42 215 c 0,118,119
 42 303 42 303 88.5 356.5 c 128,-1,120
 135 410 135 410 212 410 c 0,121,122
 258 410 258 410 297 388.5 c 128,-1,123
 336 367 336 367 357 330 c 1,124,-1
 357 330 l 1,13,14
EndSplineSet
Ligature2: "'abvs' Above Base Substitutions in Tamil lookup 0 subtable" u0B9C u0BBF
EndChar

StartChar: u0B9E_u0BBF.abvs
Encoding: 65541 -1 136
Width: 1050
GlyphClass: 2
Flags: W
LayerCount: 2
Fore
SplineSet
310 110 m 1,0,1
 310 77 310 77 330.5 53.5 c 128,-1,2
 351 30 351 30 380 30 c 256,3,4
 409 30 409 30 429.5 53.5 c 128,-1,5
 450 77 450 77 450 110 c 256,6,7
 450 143 450 143 429.5 166.5 c 128,-1,8
 409 190 409 190 380 190 c 256,9,10
 351 190 351 190 330.5 166.5 c 128,-1,11
 310 143 310 143 310 110 c 1,12,-1
 310 110 l 1,0,1
60 160 m 1,13,14
 60 236 60 236 78 298 c 128,-1,15
 96 360 96 360 130 400 c 1,16,-1
 170 380 l 1,17,18
 139 349 139 349 122 291.5 c 128,-1,19
 105 234 105 234 105 160 c 0,20,21
 105 3 105 3 220.5 -108.5 c 128,-1,22
 336 -220 336 -220 500 -220 c 0,23,24
 628 -220 628 -220 719 -132 c 128,-1,25
 810 -44 810 -44 810 80 c 0,26,27
 810 123 810 123 783.5 154 c 128,-1,28
 757 185 757 185 720 185 c 0,29,30
 703 185 703 185 687 174.5 c 128,-1,31
 671 164 671 164 660 145 c 1,32,-1
 660 0 l 1,33,-1
 610 0 l 1,34,-1
 610 360 l 1,35,-1
 430 360 l 2,36,37
 345 360 345 360 285 304.5 c 128,-1,38
 225 249 225 249 225 170 c 0,39,40
 225 137 225 137 240.5 105.5 c 128,-1,41
 256 74 256 74 285 50 c 1,42,43
 278 63 278 63 274 78 c 128,-1,44
 270 93 270 93 270 110 c 0,45,46
 270 160 270 160 302 195 c 128,-1,47
 334 230 334 230 380 230 c 256,48,49
 426 230 426 230 458 195 c 128,-1,50
 490 160 490 160 490 110 c 256,51,52
 490 60 490 60 458 25 c 128,-1,53
 426 -10 426 -10 380 -10 c 0,54,55
 289 -10 289 -10 234.5 39 c 128,-1,56
 180 88 180 88 180 170 c 0,57,58
 180 265 180 265 253 332.5 c 128,-1,59
 326 400 326 400 430 400 c 2,60,-1
 620 400 l 1,61,62
 603 417 603 417 594 440.5 c 128,-1,63
 585 464 585 464 585 490 c 0,64,65
 585 560 585 560 643.5 610 c 128,-1,66
 702 660 702 660 785 660 c 0,67,68
 864 660 864 660 919.5 613 c 128,-1,69
 975 566 975 566 975 500 c 2,70,-1
 975 0 l 1,71,-1
 925 0 l 1,72,-1
 925 500 l 2,73,74
 925 550 925 550 884 585 c 128,-1,75
 843 620 843 620 785 620 c 0,76,77
 723 620 723 620 679 582 c 128,-1,78
 635 544 635 544 635 490 c 0,79,80
 635 461 635 461 645.5 437 c 128,-1,81
 656 413 656 413 675 400 c 1,82,-1
 820 400 l 1,83,-1
 820 360 l 1,84,-1
 660 360 l 1,85,-1
 660 200 l 1,86,87
 672 214 672 214 687.5 222 c 128,-1,88
 703 230 703 230 720 230 c 0,89,90
 778 230 778 230 819 186 c 128,-1,91
 860 142 860 142 860 80 c 0,92,93
 860 -61 860 -61 754.5 -160.5 c 128,-1,94
 649 -260 649 -260 500 -260 c 0,95,96
 318 -260 318 -260 189 -137 c 128,-1,97
 60 -14 60 -14 60 160 c 1,98,-1
 60 160 l 1,13,14
EndSplineSet
Ligature2: "'abvs' Above Base Substitutions in Tamil lookup 0 subtable" u0B9E u0BBF
EndChar

StartChar: u0B9F_u0BBF.abvs
Encoding: 65542 -1 137
Width: 663
GlyphClass: 2
Flags: W
LayerCount: 2
Fore
SplineSet
75 0 m 1,0,-1
 75 400 l 1,1,-1
 125 400 l 1,2,-1
 125 40 l 1,3,-1
 295 40 l 1,4,5
 258 61 258 61 236.5 101.5 c 128,-1,6
 215 142 215 142 215 190 c 0,7,8
 215 242 215 242 250 278.5 c 128,-1,9
 285 315 285 315 335 315 c 256,10,11
 385 315 385 315 420 278.5 c 128,-1,12
 455 242 455 242 455 190 c 2,13,-1
 455 40 l 1,14,-1
 655 40 l 1,15,-1
 655 0 l 1,16,-1
 455 0 l 1,17,-1
 455 -250 l 1,18,-1
 405 -250 l 1,19,-1
 405 0 l 1,20,-1
 75 0 l 1,21,-1
 75 0 l 1,0,-1
265 190 m 1,22,23
 265 133 265 133 296 90.5 c 128,-1,24
 327 48 327 48 375 40 c 1,25,-1
 405 40 l 1,26,-1
 405 190 l 2,27,28
 405 223 405 223 384.5 246.5 c 128,-1,29
 364 270 364 270 335 270 c 256,30,31
 306 270 306 270 285.5 246.5 c 128,-1,32
 265 223 265 223 265 190 c 1,33,-1
 265 190 l 1,22,23
EndSplineSet
Ligature2: "'abvs' Above Base Substitutions in Tamil lookup 0 subtable" u0B9F u0BBF
EndChar

StartChar: u0BA3_u0BBF.abvs
Encoding: 65543 -1 138
Width: 1239
GlyphClass: 2
Flags: W
LayerCount: 2
Fore
SplineSet
154 110 m 1,0,1
 154 77 154 77 171.5 53.5 c 128,-1,2
 189 30 189 30 214 30 c 256,3,4
 239 30 239 30 256.5 53.5 c 128,-1,5
 274 77 274 77 274 110 c 256,6,7
 274 143 274 143 256.5 166.5 c 128,-1,8
 239 190 239 190 214 190 c 256,9,10
 189 190 189 190 171.5 166.5 c 128,-1,11
 154 143 154 143 154 110 c 1,12,-1
 154 110 l 1,0,1
394 160 m 1,13,14
 394 106 394 106 408.5 68 c 128,-1,15
 423 30 423 30 444 30 c 256,16,17
 465 30 465 30 479.5 68 c 128,-1,18
 494 106 494 106 494 160 c 0,19,20
 494 197 494 197 481 231.5 c 128,-1,21
 468 266 468 266 444 295 c 1,22,23
 420 266 420 266 407 231.5 c 128,-1,24
 394 197 394 197 394 160 c 1,25,-1
 394 160 l 1,13,14
634 160 m 1,26,27
 634 106 634 106 648.5 68 c 128,-1,28
 663 30 663 30 684 30 c 256,29,30
 705 30 705 30 719.5 68 c 128,-1,31
 734 106 734 106 734 160 c 0,32,33
 734 199 734 199 721 235 c 128,-1,34
 708 271 708 271 684 300 c 1,35,36
 660 271 660 271 647 235 c 128,-1,37
 634 199 634 199 634 160 c 1,38,-1
 634 160 l 1,26,27
794 400 m 1,39,-1
 884 400 l 1,40,41
 855 424 855 424 839.5 453 c 128,-1,42
 824 482 824 482 824 510 c 0,43,44
 824 572 824 572 871 616 c 128,-1,45
 918 660 918 660 984 660 c 0,46,47
 1059 660 1059 660 1111.5 613 c 128,-1,48
 1164 566 1164 566 1164 500 c 2,49,-1
 1164 0 l 1,50,-1
 1114 0 l 1,51,-1
 1114 500 l 2,52,53
 1114 550 1114 550 1076 585 c 128,-1,54
 1038 620 1038 620 984 620 c 0,55,56
 938 620 938 620 906 588 c 128,-1,57
 874 556 874 556 874 510 c 0,58,59
 874 478 874 478 893 448.5 c 128,-1,60
 912 419 912 419 944 400 c 1,61,-1
 1054 400 l 1,62,-1
 1054 360 l 1,63,-1
 934 360 l 1,64,-1
 934 0 l 1,65,-1
 884 0 l 1,66,-1
 884 360 l 1,67,-1
 794 360 l 2,68,69
 776 360 776 360 755.5 353.5 c 128,-1,70
 735 347 735 347 714 335 c 1,71,72
 748 295 748 295 766 249.5 c 128,-1,73
 784 204 784 204 784 160 c 0,74,75
 784 90 784 90 754.5 40 c 128,-1,76
 725 -10 725 -10 684 -10 c 256,77,78
 643 -10 643 -10 613.5 40 c 128,-1,79
 584 90 584 90 584 160 c 0,80,81
 584 217 584 217 601 263 c 128,-1,82
 618 309 618 309 649 335 c 1,83,84
 629 352 629 352 607 361 c 128,-1,85
 585 370 585 370 564 370 c 256,86,87
 543 370 543 370 520 359.5 c 128,-1,88
 497 349 497 349 474 330 c 1,89,90
 507 302 507 302 525.5 257.5 c 128,-1,91
 544 213 544 213 544 160 c 0,92,93
 544 90 544 90 514.5 40 c 128,-1,94
 485 -10 485 -10 444 -10 c 256,95,96
 403 -10 403 -10 373.5 40 c 128,-1,97
 344 90 344 90 344 160 c 0,98,99
 344 207 344 207 361 252 c 128,-1,100
 378 297 378 297 409 335 c 1,101,102
 389 352 389 352 359.5 361 c 128,-1,103
 330 370 330 370 294 370 c 0,104,105
 207 370 207 370 145.5 311.5 c 128,-1,106
 84 253 84 253 84 170 c 0,107,108
 84 125 84 125 98.5 88.5 c 128,-1,109
 113 52 113 52 139 30 c 1,110,111
 127 51 127 51 120.5 71.5 c 128,-1,112
 114 92 114 92 114 110 c 0,113,114
 114 160 114 160 143.5 195 c 128,-1,115
 173 230 173 230 214 230 c 256,116,117
 255 230 255 230 284.5 195 c 128,-1,118
 314 160 314 160 314 110 c 256,119,120
 314 60 314 60 279 25 c 128,-1,121
 244 -10 244 -10 194 -10 c 0,122,123
 132 -10 132 -10 88 42.5 c 128,-1,124
 44 95 44 95 44 170 c 0,125,126
 44 269 44 269 117 339.5 c 128,-1,127
 190 410 190 410 294 410 c 0,128,129
 341 410 341 410 379.5 398.5 c 128,-1,130
 418 387 418 387 444 365 c 1,131,132
 470 387 470 387 501 398.5 c 128,-1,133
 532 410 532 410 564 410 c 0,134,135
 599 410 599 410 631 398.5 c 128,-1,136
 663 387 663 387 689 365 c 1,137,138
 709 382 709 382 736 391 c 128,-1,139
 763 400 763 400 794 400 c 1,140,-1
 794 400 l 1,39,-1
EndSplineSet
Ligature2: "'abvs' Above Base Substitutions in Tamil lookup 0 subtable" u0BA3 u0BBF
EndChar

StartChar: u0BA4_u0BBF.abvs
Encoding: 65544 -1 139
Width: 683
GlyphClass: 2
Flags: W
LayerCount: 2
Fore
SplineSet
178 360 m 1,0,-1
 178 220 l 1,1,-1
 278 220 l 1,2,-1
 278 360 l 1,3,-1
 178 360 l 1,4,-1
 178 360 l 1,0,-1
78 130 m 1,5,6
 78 89 78 89 110 59.5 c 128,-1,7
 142 30 142 30 188 30 c 0,8,9
 225 30 225 30 251.5 53.5 c 128,-1,10
 278 77 278 77 278 110 c 2,11,-1
 278 180 l 1,12,-1
 128 180 l 2,13,14
 107 180 107 180 92.5 165.5 c 128,-1,15
 78 151 78 151 78 130 c 1,16,-1
 78 130 l 1,5,6
128 400 m 1,17,-1
 288 400 l 1,18,19
 269 423 269 423 258.5 451.5 c 128,-1,20
 248 480 248 480 248 510 c 0,21,22
 248 572 248 572 298 616 c 128,-1,23
 348 660 348 660 418 660 c 0,24,25
 497 660 497 660 552.5 601.5 c 128,-1,26
 608 543 608 543 608 460 c 2,27,-1
 608 0 l 1,28,-1
 558 0 l 1,29,-1
 558 460 l 2,30,31
 558 526 558 526 517 573 c 128,-1,32
 476 620 476 620 418 620 c 0,33,34
 368 620 368 620 333 588 c 128,-1,35
 298 556 298 556 298 510 c 0,36,37
 298 478 298 478 311 449 c 128,-1,38
 324 420 324 420 348 400 c 1,39,-1
 468 400 l 1,40,-1
 468 360 l 1,41,-1
 328 360 l 1,42,-1
 328 220 l 1,43,-1
 368 220 l 2,44,45
 426 220 426 220 467 185 c 128,-1,46
 508 150 508 150 508 100 c 0,47,48
 508 17 508 17 452.5 -41.5 c 128,-1,49
 397 -100 397 -100 318 -100 c 2,50,-1
 128 -100 l 2,51,52
 103 -100 103 -100 85.5 -120.5 c 128,-1,53
 68 -141 68 -141 68 -170 c 0,54,55
 68 -190 68 -190 78.5 -208.5 c 128,-1,56
 89 -227 89 -227 108 -240 c 1,57,-1
 78 -275 l 1,58,59
 50 -259 50 -259 34 -231 c 128,-1,60
 18 -203 18 -203 18 -170 c 0,61,62
 18 -124 18 -124 50 -92 c 128,-1,63
 82 -60 82 -60 128 -60 c 2,64,-1
 318 -60 l 2,65,66
 376 -60 376 -60 417 -13 c 128,-1,67
 458 34 458 34 458 100 c 0,68,69
 458 133 458 133 431.5 156.5 c 128,-1,70
 405 180 405 180 368 180 c 2,71,-1
 328 180 l 1,72,-1
 328 110 l 2,73,74
 328 60 328 60 287 25 c 128,-1,75
 246 -10 246 -10 188 -10 c 0,76,77
 122 -10 122 -10 75 31 c 128,-1,78
 28 72 28 72 28 130 c 0,79,80
 28 167 28 167 57.5 193.5 c 128,-1,81
 87 220 87 220 128 220 c 1,82,-1
 128 400 l 1,83,-1
 128 400 l 1,17,-1
EndSplineSet
Ligature2: "'abvs' Above Base Substitutions in Tamil lookup 0 subtable" u0BA4 u0BBF
EndChar

StartChar: u0BA8_u0BBF.abvs
Encoding: 65545 -1 140
Width: 690
GlyphClass: 2
Flags: W
LayerCount: 2
Fore
SplineSet
75 400 m 1,0,-1
 255 400 l 1,1,2
 240 426 240 426 232.5 448.5 c 128,-1,3
 225 471 225 471 225 490 c 0,4,5
 225 560 225 560 283.5 610 c 128,-1,6
 342 660 342 660 425 660 c 0,7,8
 504 660 504 660 559.5 613 c 128,-1,9
 615 566 615 566 615 500 c 2,10,-1
 615 0 l 1,11,-1
 565 0 l 1,12,-1
 565 500 l 2,13,14
 565 550 565 550 524 585 c 128,-1,15
 483 620 483 620 425 620 c 0,16,17
 363 620 363 620 319 582 c 128,-1,18
 275 544 275 544 275 490 c 0,19,20
 275 469 275 469 285.5 446 c 128,-1,21
 296 423 296 423 315 400 c 1,22,-1
 435 400 l 1,23,-1
 435 360 l 1,24,-1
 285 360 l 1,25,-1
 285 230 l 1,26,27
 302 245 302 245 323 252.5 c 128,-1,28
 344 260 344 260 365 260 c 0,29,30
 419 260 419 260 457 213 c 128,-1,31
 495 166 495 166 495 100 c 0,32,33
 495 17 495 17 439.5 -41.5 c 128,-1,34
 384 -100 384 -100 305 -100 c 2,35,-1
 115 -100 l 2,36,37
 90 -100 90 -100 72.5 -120.5 c 128,-1,38
 55 -141 55 -141 55 -170 c 0,39,40
 55 -188 55 -188 68 -209 c 128,-1,41
 81 -230 81 -230 105 -250 c 1,42,-1
 70 -290 l 1,43,44
 39 -264 39 -264 22 -232.5 c 128,-1,45
 5 -201 5 -201 5 -170 c 0,46,47
 5 -124 5 -124 37 -92 c 128,-1,48
 69 -60 69 -60 115 -60 c 2,49,-1
 305 -60 l 2,50,51
 363 -60 363 -60 404 -13 c 128,-1,52
 445 34 445 34 445 100 c 0,53,54
 445 146 445 146 421.5 178 c 128,-1,55
 398 210 398 210 365 210 c 0,56,57
 341 210 341 210 319.5 196.5 c 128,-1,58
 298 183 298 183 285 160 c 1,59,-1
 285 0 l 1,60,-1
 235 0 l 1,61,-1
 235 360 l 1,62,-1
 125 360 l 1,63,-1
 125 0 l 1,64,-1
 75 0 l 1,65,-1
 75 400 l 1,66,-1
 75 400 l 1,0,-1
EndSplineSet
Ligature2: "'abvs' Above Base Substitutions in Tamil lookup 0 subtable" u0BA8 u0BBF
EndChar

StartChar: u0BA9_u0BBF.abvs
Encoding: 65546 -1 141
Width: 997
GlyphClass: 2
Flags: W
LayerCount: 2
Fore
SplineSet
152 110 m 1,0,1
 152 77 152 77 172.5 53.5 c 128,-1,2
 193 30 193 30 222 30 c 256,3,4
 251 30 251 30 271.5 53.5 c 128,-1,5
 292 77 292 77 292 110 c 256,6,7
 292 143 292 143 271.5 166.5 c 128,-1,8
 251 190 251 190 222 190 c 256,9,10
 193 190 193 190 172.5 166.5 c 128,-1,11
 152 143 152 143 152 110 c 1,12,-1
 152 110 l 1,0,1
422 160 m 1,13,14
 422 106 422 106 436.5 68 c 128,-1,15
 451 30 451 30 472 30 c 256,16,17
 493 30 493 30 507.5 68 c 128,-1,18
 522 106 522 106 522 160 c 0,19,20
 522 199 522 199 509 235 c 128,-1,21
 496 271 496 271 472 300 c 1,22,23
 448 271 448 271 435 235 c 128,-1,24
 422 199 422 199 422 160 c 1,25,-1
 422 160 l 1,13,14
592 400 m 1,26,-1
 632 400 l 1,27,28
 613 423 613 423 602.5 449 c 128,-1,29
 592 475 592 475 592 500 c 0,30,31
 592 566 592 566 639 613 c 128,-1,32
 686 660 686 660 752 660 c 0,33,34
 822 660 822 660 872 607.5 c 128,-1,35
 922 555 922 555 922 480 c 2,36,-1
 922 0 l 1,37,-1
 872 0 l 1,38,-1
 872 480 l 2,39,40
 872 538 872 538 837 579 c 128,-1,41
 802 620 802 620 752 620 c 0,42,43
 706 620 706 620 674 585 c 128,-1,44
 642 550 642 550 642 500 c 0,45,46
 642 472 642 472 655 446 c 128,-1,47
 668 420 668 420 692 400 c 1,48,-1
 802 400 l 1,49,-1
 802 360 l 1,50,-1
 722 360 l 1,51,-1
 722 0 l 1,52,-1
 672 0 l 1,53,-1
 672 360 l 1,54,-1
 592 360 l 2,55,56
 566 360 566 360 542.5 352.5 c 128,-1,57
 519 345 519 345 502 330 c 1,58,59
 535 302 535 302 553.5 257.5 c 128,-1,60
 572 213 572 213 572 160 c 0,61,62
 572 90 572 90 542.5 40 c 128,-1,63
 513 -10 513 -10 472 -10 c 256,64,65
 431 -10 431 -10 401.5 40 c 128,-1,66
 372 90 372 90 372 160 c 0,67,68
 372 211 372 211 390.5 254 c 128,-1,69
 409 297 409 297 442 325 c 1,70,71
 416 347 416 347 380 358.5 c 128,-1,72
 344 370 344 370 302 370 c 0,73,74
 211 370 211 370 146.5 311.5 c 128,-1,75
 82 253 82 253 82 170 c 0,76,77
 82 138 82 138 92.5 112 c 128,-1,78
 103 86 103 86 122 70 c 1,79,80
 117 79 117 79 114.5 89 c 128,-1,81
 112 99 112 99 112 110 c 0,82,83
 112 160 112 160 144 195 c 128,-1,84
 176 230 176 230 222 230 c 256,85,86
 268 230 268 230 300 195 c 128,-1,87
 332 160 332 160 332 110 c 256,88,89
 332 60 332 60 300 25 c 128,-1,90
 268 -10 268 -10 222 -10 c 0,91,92
 147 -10 147 -10 94.5 42.5 c 128,-1,93
 42 95 42 95 42 170 c 0,94,95
 42 269 42 269 118 339.5 c 128,-1,96
 194 410 194 410 302 410 c 0,97,98
 355 410 355 410 399 397 c 128,-1,99
 443 384 443 384 472 360 c 1,100,101
 495 379 495 379 526 389.5 c 128,-1,102
 557 400 557 400 592 400 c 1,103,-1
 592 400 l 1,26,-1
EndSplineSet
Ligature2: "'abvs' Above Base Substitutions in Tamil lookup 0 subtable" u0BA9 u0BBF
EndChar

StartChar: u0BAA_u0BBF.abvs
Encoding: 65547 -1 142
Width: 760
GlyphClass: 2
Flags: W
LayerCount: 2
Fore
SplineSet
495 40 m 1,0,-1
 495 280 l 1,1,2
 483 266 483 266 462 258 c 128,-1,3
 441 250 441 250 415 250 c 0,4,5
 357 250 357 250 316 300 c 128,-1,6
 275 350 275 350 275 420 c 0,7,8
 275 519 275 519 342.5 589.5 c 128,-1,9
 410 660 410 660 505 660 c 0,10,11
 580 660 580 660 632.5 607.5 c 128,-1,12
 685 555 685 555 685 480 c 2,13,-1
 685 0 l 1,14,-1
 635 0 l 1,15,-1
 635 480 l 2,16,17
 635 538 635 538 597 579 c 128,-1,18
 559 620 559 620 505 620 c 0,19,20
 430 620 430 620 377.5 561.5 c 128,-1,21
 325 503 325 503 325 420 c 0,22,23
 325 366 325 366 351.5 328 c 128,-1,24
 378 290 378 290 415 290 c 0,25,26
 437 290 437 290 458 300.5 c 128,-1,27
 479 311 479 311 495 330 c 1,28,-1
 495 400 l 1,29,-1
 545 400 l 1,30,-1
 545 0 l 1,31,-1
 75 0 l 1,32,-1
 75 400 l 1,33,-1
 125 400 l 1,34,-1
 125 40 l 1,35,-1
 495 40 l 1,36,-1
 495 40 l 1,0,-1
EndSplineSet
Ligature2: "'abvs' Above Base Substitutions in Tamil lookup 0 subtable" u0BAA u0BBF
EndChar

StartChar: u0BAE_u0BBF.abvs
Encoding: 65548 -1 143
Width: 820
GlyphClass: 2
Flags: W
LayerCount: 2
Fore
SplineSet
365 300 m 1,0,-1
 365 40 l 1,1,-1
 505 40 l 2,2,3
 534 40 534 40 554.5 72 c 128,-1,4
 575 104 575 104 575 150 c 0,5,6
 575 241 575 241 531 305.5 c 128,-1,7
 487 370 487 370 425 370 c 0,8,9
 400 370 400 370 382.5 349.5 c 128,-1,10
 365 329 365 329 365 300 c 1,11,-1
 365 300 l 1,0,-1
425 410 m 1,12,-1
 435 410 l 1,13,14
 420 431 420 431 412.5 456.5 c 128,-1,15
 405 482 405 482 405 510 c 0,16,17
 405 568 405 568 452 609 c 128,-1,18
 499 650 499 650 565 650 c 0,19,20
 640 650 640 650 692.5 597.5 c 128,-1,21
 745 545 745 545 745 470 c 2,22,-1
 745 0 l 1,23,-1
 695 0 l 1,24,-1
 695 470 l 2,25,26
 695 528 695 528 657 569 c 128,-1,27
 619 610 619 610 565 610 c 0,28,29
 519 610 519 610 487 580.5 c 128,-1,30
 455 551 455 551 455 510 c 0,31,32
 455 480 455 480 465.5 451.5 c 128,-1,33
 476 423 476 423 495 400 c 1,34,35
 554 372 554 372 589.5 304.5 c 128,-1,36
 625 237 625 237 625 150 c 0,37,38
 625 88 625 88 590 44 c 128,-1,39
 555 0 555 0 505 0 c 2,40,-1
 75 0 l 1,41,-1
 75 400 l 1,42,-1
 125 400 l 1,43,-1
 125 40 l 1,44,-1
 315 40 l 1,45,-1
 315 300 l 2,46,47
 315 346 315 346 347 378 c 128,-1,48
 379 410 379 410 425 410 c 1,49,-1
 425 410 l 1,12,-1
EndSplineSet
Ligature2: "'abvs' Above Base Substitutions in Tamil lookup 0 subtable" u0BAE u0BBF
EndChar

StartChar: u0BAF_u0BBF.abvs
Encoding: 65549 -1 144
Width: 855
GlyphClass: 2
Flags: W
LayerCount: 2
Fore
SplineSet
590 40 m 1,0,-1
 590 280 l 1,1,2
 576 266 576 266 555 258 c 128,-1,3
 534 250 534 250 510 250 c 0,4,5
 460 250 460 250 425 300 c 128,-1,6
 390 350 390 350 390 420 c 0,7,8
 390 519 390 519 451.5 589.5 c 128,-1,9
 513 660 513 660 600 660 c 0,10,11
 675 660 675 660 727.5 607.5 c 128,-1,12
 780 555 780 555 780 480 c 2,13,-1
 780 0 l 1,14,-1
 730 0 l 1,15,-1
 730 480 l 2,16,17
 730 538 730 538 692 579 c 128,-1,18
 654 620 654 620 600 620 c 0,19,20
 534 620 534 620 487 561.5 c 128,-1,21
 440 503 440 503 440 420 c 0,22,23
 440 366 440 366 460.5 328 c 128,-1,24
 481 290 481 290 510 290 c 0,25,26
 534 290 534 290 555 299 c 128,-1,27
 576 308 576 308 590 325 c 1,28,-1
 590 400 l 1,29,-1
 640 400 l 1,30,-1
 640 0 l 1,31,-1
 250 0 l 1,32,-1
 250 30 l 1,33,34
 234 11 234 11 213 0.5 c 128,-1,35
 192 -10 192 -10 170 -10 c 0,36,37
 129 -10 129 -10 99.5 25 c 128,-1,38
 70 60 70 60 70 110 c 2,39,-1
 70 400 l 1,40,-1
 120 400 l 1,41,-1
 120 110 l 2,42,43
 120 77 120 77 134.5 53.5 c 128,-1,44
 149 30 149 30 170 30 c 0,45,46
 203 30 203 30 226.5 56.5 c 128,-1,47
 250 83 250 83 250 120 c 2,48,-1
 250 400 l 1,49,-1
 300 400 l 1,50,-1
 300 40 l 1,51,-1
 590 40 l 1,52,-1
 590 40 l 1,0,-1
EndSplineSet
Ligature2: "'abvs' Above Base Substitutions in Tamil lookup 0 subtable" u0BAF u0BBF
EndChar

StartChar: u0BB0_u0BBF.abvs
Encoding: 65550 -1 145
Width: 600
GlyphClass: 2
Flags: W
LayerCount: 2
Fore
SplineSet
75 400 m 1,0,-1
 245 400 l 1,1,2
 217 416 217 416 201 445.5 c 128,-1,3
 185 475 185 475 185 510 c 0,4,5
 185 572 185 572 233.5 616 c 128,-1,6
 282 660 282 660 350 660 c 0,7,8
 422 660 422 660 473.5 607.5 c 128,-1,9
 525 555 525 555 525 480 c 2,10,-1
 525 0 l 1,11,-1
 475 0 l 1,12,-1
 475 480 l 2,13,14
 475 538 475 538 438.5 579 c 128,-1,15
 402 620 402 620 350 620 c 0,16,17
 302 620 302 620 268.5 588 c 128,-1,18
 235 556 235 556 235 510 c 0,19,20
 235 478 235 478 254 448.5 c 128,-1,21
 273 419 273 419 305 400 c 1,22,-1
 415 400 l 1,23,-1
 415 360 l 1,24,-1
 315 360 l 1,25,-1
 315 0 l 1,26,-1
 265 0 l 1,27,-1
 265 360 l 1,28,-1
 125 360 l 1,29,-1
 125 0 l 1,30,-1
 75 0 l 1,31,-1
 75 400 l 1,32,-1
 75 400 l 1,0,-1
EndSplineSet
Ligature2: "'abvs' Above Base Substitutions in Tamil lookup 0 subtable" u0BB0 u0BBF
EndChar

StartChar: u0BB1_u0BBF.abvs
Encoding: 65551 -1 146
Width: 717
GlyphClass: 2
Flags: W
LayerCount: 2
Fore
SplineSet
272 360 m 1,0,1
 284 380 284 380 303 391 c 128,-1,2
 322 402 322 402 342 400 c 1,3,4
 313 424 313 424 297.5 454 c 128,-1,5
 282 484 282 484 282 515 c 0,6,7
 282 575 282 575 332 617.5 c 128,-1,8
 382 660 382 660 452 660 c 0,9,10
 531 660 531 660 586.5 607.5 c 128,-1,11
 642 555 642 555 642 480 c 2,12,-1
 642 0 l 1,13,-1
 592 0 l 1,14,-1
 592 480 l 2,15,16
 592 538 592 538 551 579 c 128,-1,17
 510 620 510 620 452 620 c 0,18,19
 402 620 402 620 367 589 c 128,-1,20
 332 558 332 558 332 515 c 0,21,22
 332 483 332 483 353.5 452 c 128,-1,23
 375 421 375 421 412 400 c 0,24,25
 458 373 458 373 485 317 c 128,-1,26
 512 261 512 261 512 190 c 0,27,28
 512 70 512 70 450.5 -15 c 128,-1,29
 389 -100 389 -100 302 -100 c 2,30,-1
 142 -100 l 2,31,32
 121 -100 121 -100 106 -118.5 c 128,-1,33
 91 -137 91 -137 91 -163 c 0,34,35
 91 -172 91 -172 94 -181.5 c 128,-1,36
 97 -191 97 -191 102 -200 c 1,37,-1
 62 -220 l 1,38,39
 52 -203 52 -203 47 -187.5 c 128,-1,40
 42 -172 42 -172 42 -160 c 0,41,42
 42 -119 42 -119 71.5 -89.5 c 128,-1,43
 101 -60 101 -60 142 -60 c 2,44,-1
 302 -60 l 2,45,46
 368 -60 368 -60 415 13 c 128,-1,47
 462 86 462 86 462 190 c 0,48,49
 462 265 462 265 435.5 317.5 c 128,-1,50
 409 370 409 370 372 370 c 0,51,52
 339 370 339 370 315.5 348 c 128,-1,53
 292 326 292 326 292 295 c 2,54,-1
 292 0 l 1,55,-1
 242 0 l 1,56,-1
 242 300 l 2,57,58
 242 329 242 329 224.5 349.5 c 128,-1,59
 207 370 207 370 182 370 c 256,60,61
 157 370 157 370 139.5 349.5 c 128,-1,62
 122 329 122 329 122 300 c 2,63,-1
 122 0 l 1,64,-1
 72 0 l 1,65,-1
 72 300 l 2,66,67
 72 346 72 346 104 378 c 128,-1,68
 136 410 136 410 182 410 c 0,69,70
 205 410 205 410 228.5 397 c 128,-1,71
 252 384 252 384 272 360 c 1,72,-1
 272 360 l 1,0,1
EndSplineSet
Ligature2: "'abvs' Above Base Substitutions in Tamil lookup 0 subtable" u0BB1 u0BBF
EndChar

StartChar: u0BB2_u0BBF.abvs
Encoding: 65552 -1 147
Width: 849
GlyphClass: 2
Flags: W
LayerCount: 2
Fore
SplineSet
154 100 m 1,0,1
 154 71 154 71 171.5 50.5 c 128,-1,2
 189 30 189 30 214 30 c 256,3,4
 239 30 239 30 256.5 50.5 c 128,-1,5
 274 71 274 71 274 100 c 256,6,7
 274 129 274 129 256.5 149.5 c 128,-1,8
 239 170 239 170 214 170 c 256,9,10
 189 170 189 170 171.5 149.5 c 128,-1,11
 154 129 154 129 154 100 c 1,12,-1
 154 100 l 1,0,1
594 175 m 1,13,14
 594 220 594 220 570.5 266.5 c 128,-1,15
 547 313 547 313 504 355 c 256,16,17
 461 397 461 397 437.5 440 c 128,-1,18
 414 483 414 483 414 520 c 0,19,20
 414 580 414 580 464 622.5 c 128,-1,21
 514 665 514 665 584 665 c 0,22,23
 663 665 663 665 718.5 611 c 128,-1,24
 774 557 774 557 774 480 c 2,25,-1
 774 0 l 1,26,-1
 724 0 l 1,27,-1
 724 480 l 2,28,29
 724 538 724 538 683 579 c 128,-1,30
 642 620 642 620 584 620 c 0,31,32
 534 620 534 620 499 590.5 c 128,-1,33
 464 561 464 561 464 520 c 0,34,35
 464 492 464 492 487.5 454.5 c 128,-1,36
 511 417 511 417 554 375 c 0,37,38
 595 336 595 336 617 284 c 128,-1,39
 639 232 639 232 639 175 c 0,40,41
 639 98 639 98 590.5 44 c 128,-1,42
 542 -10 542 -10 474 -10 c 0,43,44
 428 -10 428 -10 396 19.5 c 128,-1,45
 364 49 364 49 364 90 c 2,46,-1
 364 290 l 2,47,48
 364 323 364 323 337.5 346.5 c 128,-1,49
 311 370 311 370 274 370 c 0,50,51
 195 370 195 370 139.5 314.5 c 128,-1,52
 84 259 84 259 84 180 c 0,53,54
 84 134 84 134 94.5 100 c 128,-1,55
 105 66 105 66 124 50 c 1,56,57
 119 56 119 56 116.5 71.5 c 128,-1,58
 114 87 114 87 114 110 c 0,59,60
 114 151 114 151 143.5 180.5 c 128,-1,61
 173 210 173 210 214 210 c 256,62,63
 255 210 255 210 284.5 178 c 128,-1,64
 314 146 314 146 314 100 c 256,65,66
 314 54 314 54 284.5 22 c 128,-1,67
 255 -10 255 -10 214 -10 c 0,68,69
 144 -10 144 -10 94 45.5 c 128,-1,70
 44 101 44 101 44 180 c 0,71,72
 44 275 44 275 111.5 342.5 c 128,-1,73
 179 410 179 410 274 410 c 0,74,75
 332 410 332 410 373 375 c 128,-1,76
 414 340 414 340 414 290 c 2,77,-1
 414 90 l 2,78,79
 414 65 414 65 431.5 47.5 c 128,-1,80
 449 30 449 30 474 30 c 0,81,82
 524 30 524 30 559 72.5 c 128,-1,83
 594 115 594 115 594 175 c 1,84,-1
 594 175 l 1,13,14
EndSplineSet
Ligature2: "'abvs' Above Base Substitutions in Tamil lookup 0 subtable" u0BB2 u0BBF
EndChar

StartChar: u0BB3_u0BBF.abvs
Encoding: 65553 -1 148
Width: 921
GlyphClass: 2
Flags: W
LayerCount: 2
Fore
SplineSet
166 120 m 1,0,1
 166 87 166 87 183.5 63.5 c 128,-1,2
 201 40 201 40 226 40 c 256,3,4
 251 40 251 40 268.5 63.5 c 128,-1,5
 286 87 286 87 286 120 c 0,6,7
 286 149 286 149 268.5 169.5 c 128,-1,8
 251 190 251 190 226 190 c 256,9,10
 201 190 201 190 183.5 169.5 c 128,-1,11
 166 149 166 149 166 120 c 1,12,-1
 166 120 l 1,0,1
396 400 m 1,13,-1
 566 400 l 1,14,15
 542 429 542 429 529 458.5 c 128,-1,16
 516 488 516 488 516 515 c 0,17,18
 516 575 516 575 564.5 617.5 c 128,-1,19
 613 660 613 660 681 660 c 256,20,21
 749 660 749 660 797.5 607.5 c 128,-1,22
 846 555 846 555 846 480 c 2,23,-1
 846 0 l 1,24,-1
 796 0 l 1,25,-1
 796 480 l 2,26,27
 796 538 796 538 762.5 579 c 128,-1,28
 729 620 729 620 681 620 c 256,29,30
 633 620 633 620 599.5 589 c 128,-1,31
 566 558 566 558 566 515 c 0,32,33
 566 484 566 484 581.5 454 c 128,-1,34
 597 424 597 424 626 400 c 1,35,-1
 746 400 l 1,36,-1
 746 360 l 1,37,-1
 636 360 l 1,38,-1
 636 0 l 1,39,-1
 586 0 l 1,40,-1
 586 360 l 1,41,-1
 436 360 l 1,42,-1
 436 0 l 1,43,-1
 386 0 l 1,44,-1
 386 200 l 2,45,46
 386 270 386 270 342 320 c 128,-1,47
 298 370 298 370 236 370 c 256,48,49
 174 370 174 370 130 317.5 c 128,-1,50
 86 265 86 265 86 190 c 0,51,52
 86 150 86 150 100.5 116 c 128,-1,53
 115 82 115 82 141 60 c 1,54,55
 134 73 134 73 130 88 c 128,-1,56
 126 103 126 103 126 120 c 0,57,58
 126 166 126 166 155.5 198 c 128,-1,59
 185 230 185 230 226 230 c 256,60,61
 267 230 267 230 296.5 198 c 128,-1,62
 326 166 326 166 326 120 c 0,63,64
 326 68 326 68 291 31.5 c 128,-1,65
 256 -5 256 -5 206 -5 c 0,66,67
 140 -5 140 -5 93 52 c 128,-1,68
 46 109 46 109 46 190 c 0,69,70
 46 281 46 281 101.5 345.5 c 128,-1,71
 157 410 157 410 236 410 c 0,72,73
 289 410 289 410 332 388.5 c 128,-1,74
 375 367 375 367 396 330 c 1,75,-1
 396 400 l 1,76,-1
 396 400 l 1,13,-1
EndSplineSet
Ligature2: "'abvs' Above Base Substitutions in Tamil lookup 0 subtable" u0BB3 u0BBF
EndChar

StartChar: u0BB4_u0BBF.abvs
Encoding: 65554 -1 149
Width: 820
GlyphClass: 2
Flags: W
LayerCount: 2
Fore
SplineSet
365 300 m 1,0,-1
 365 40 l 1,1,-1
 505 40 l 2,2,3
 534 40 534 40 554.5 72 c 128,-1,4
 575 104 575 104 575 150 c 0,5,6
 575 241 575 241 531 305.5 c 128,-1,7
 487 370 487 370 425 370 c 0,8,9
 400 370 400 370 382.5 349.5 c 128,-1,10
 365 329 365 329 365 300 c 1,11,-1
 365 300 l 1,0,-1
425 410 m 1,12,-1
 435 410 l 1,13,14
 420 431 420 431 412.5 456.5 c 128,-1,15
 405 482 405 482 405 510 c 0,16,17
 405 568 405 568 452 609 c 128,-1,18
 499 650 499 650 565 650 c 0,19,20
 640 650 640 650 692.5 597.5 c 128,-1,21
 745 545 745 545 745 470 c 2,22,-1
 745 0 l 1,23,-1
 695 0 l 1,24,-1
 695 470 l 2,25,26
 695 528 695 528 657 569 c 128,-1,27
 619 610 619 610 565 610 c 0,28,29
 519 610 519 610 487 580.5 c 128,-1,30
 455 551 455 551 455 510 c 0,31,32
 455 480 455 480 465.5 451.5 c 128,-1,33
 476 423 476 423 495 400 c 1,34,35
 554 372 554 372 589.5 304.5 c 128,-1,36
 625 237 625 237 625 150 c 0,37,38
 625 88 625 88 590 44 c 128,-1,39
 555 0 555 0 505 0 c 2,40,-1
 365 0 l 1,41,42
 371 -35 371 -35 396.5 -57.5 c 128,-1,43
 422 -80 422 -80 455 -80 c 2,44,-1
 575 -80 l 1,45,-1
 575 -120 l 1,46,-1
 495 -120 l 2,47,48
 458 -120 458 -120 426 -139 c 128,-1,49
 394 -158 394 -158 375 -190 c 0,50,51
 351 -232 351 -232 310.5 -256 c 128,-1,52
 270 -280 270 -280 225 -280 c 0,53,54
 163 -280 163 -280 119 -245 c 128,-1,55
 75 -210 75 -210 75 -160 c 0,56,57
 75 -119 75 -119 104.5 -89.5 c 128,-1,58
 134 -60 134 -60 175 -60 c 2,59,-1
 255 -60 l 1,60,-1
 255 -100 l 1,61,-1
 175 -100 l 2,62,63
 154 -100 154 -100 139.5 -117.5 c 128,-1,64
 125 -135 125 -135 125 -160 c 0,65,66
 125 -193 125 -193 154.5 -216.5 c 128,-1,67
 184 -240 184 -240 225 -240 c 0,68,69
 253 -240 253 -240 277.5 -226.5 c 128,-1,70
 302 -213 302 -213 315 -190 c 0,71,72
 329 -165 329 -165 349.5 -144.5 c 128,-1,73
 370 -124 370 -124 395 -110 c 1,74,75
 359 -97 359 -97 337 -66.5 c 128,-1,76
 315 -36 315 -36 315 0 c 1,77,-1
 75 0 l 1,78,-1
 75 400 l 1,79,-1
 125 400 l 1,80,-1
 125 40 l 1,81,-1
 315 40 l 1,82,-1
 315 300 l 2,83,84
 315 346 315 346 347 378 c 128,-1,85
 379 410 379 410 425 410 c 1,86,-1
 425 410 l 1,12,-1
EndSplineSet
Ligature2: "'abvs' Above Base Substitutions in Tamil lookup 0 subtable" u0BB4 u0BBF
EndChar

StartChar: u0BB5_u0BBF.abvs
Encoding: 65555 -1 150
Width: 948
GlyphClass: 2
Flags: W
LayerCount: 2
Fore
SplineSet
163 110 m 1,0,1
 163 77 163 77 183.5 53.5 c 128,-1,2
 204 30 204 30 233 30 c 0,3,4
 266 30 266 30 289.5 53.5 c 128,-1,5
 313 77 313 77 313 110 c 256,6,7
 313 143 313 143 289.5 166.5 c 128,-1,8
 266 190 266 190 233 190 c 0,9,10
 204 190 204 190 183.5 166.5 c 128,-1,11
 163 143 163 143 163 110 c 1,12,-1
 163 110 l 1,0,1
673 40 m 1,13,-1
 673 285 l 1,14,15
 660 278 660 278 647.5 274 c 128,-1,16
 635 270 635 270 623 270 c 0,17,18
 565 270 565 270 524 320 c 128,-1,19
 483 370 483 370 483 440 c 0,20,21
 483 531 483 531 544.5 595.5 c 128,-1,22
 606 660 606 660 693 660 c 0,23,24
 768 660 768 660 820.5 607.5 c 128,-1,25
 873 555 873 555 873 480 c 2,26,-1
 873 0 l 1,27,-1
 823 0 l 1,28,-1
 823 480 l 2,29,30
 823 538 823 538 785 579 c 128,-1,31
 747 620 747 620 693 620 c 0,32,33
 627 620 627 620 580 567.5 c 128,-1,34
 533 515 533 515 533 440 c 0,35,36
 533 386 533 386 559.5 348 c 128,-1,37
 586 310 586 310 623 310 c 0,38,39
 631 310 631 310 643.5 315 c 128,-1,40
 656 320 656 320 673 330 c 1,41,-1
 673 400 l 1,42,-1
 723 400 l 1,43,-1
 723 0 l 1,44,-1
 393 0 l 1,45,-1
 393 30 l 1,46,47
 417 59 417 59 430 100 c 128,-1,48
 443 141 443 141 443 190 c 0,49,50
 443 265 443 265 390.5 317.5 c 128,-1,51
 338 370 338 370 263 370 c 0,52,53
 193 370 193 370 143 317.5 c 128,-1,54
 93 265 93 265 93 190 c 0,55,56
 93 150 93 150 103.5 116.5 c 128,-1,57
 114 83 114 83 133 60 c 1,58,59
 128 74 128 74 125.5 86.5 c 128,-1,60
 123 99 123 99 123 110 c 0,61,62
 123 160 123 160 155 195 c 128,-1,63
 187 230 187 230 233 230 c 0,64,65
 283 230 283 230 318 195 c 128,-1,66
 353 160 353 160 353 110 c 256,67,68
 353 60 353 60 318 25 c 128,-1,69
 283 -10 283 -10 233 -10 c 0,70,71
 154 -10 154 -10 98.5 48.5 c 128,-1,72
 43 107 43 107 43 190 c 0,73,74
 43 281 43 281 107.5 345.5 c 128,-1,75
 172 410 172 410 263 410 c 0,76,77
 358 410 358 410 425.5 345.5 c 128,-1,78
 493 281 493 281 493 190 c 0,79,80
 493 150 493 150 483 112 c 128,-1,81
 473 74 473 74 453 40 c 1,82,-1
 673 40 l 1,83,-1
 673 40 l 1,13,-1
EndSplineSet
Ligature2: "'abvs' Above Base Substitutions in Tamil lookup 0 subtable" u0BB5 u0BBF
EndChar

StartChar: u0BB7_u0BBF.abvs
Encoding: 65556 -1 151
Width: 1090
GlyphClass: 2
Flags: W
LayerCount: 2
Fore
SplineSet
165 110 m 1,0,1
 165 77 165 77 182.5 53.5 c 128,-1,2
 200 30 200 30 225 30 c 0,3,4
 254 30 254 30 274.5 53.5 c 128,-1,5
 295 77 295 77 295 110 c 0,6,7
 295 139 295 139 274.5 159.5 c 128,-1,8
 254 180 254 180 225 180 c 0,9,10
 200 180 200 180 182.5 159.5 c 128,-1,11
 165 139 165 139 165 110 c 1,12,-1
 165 110 l 1,0,1
580 280 m 1,13,14
 580 239 580 239 611 209.5 c 128,-1,15
 642 180 642 180 685 180 c 0,16,17
 693 180 693 180 700.5 181.5 c 128,-1,18
 708 183 708 183 715 185 c 1,19,-1
 715 300 l 2,20,21
 715 321 715 321 697.5 335.5 c 128,-1,22
 680 350 680 350 655 350 c 0,23,24
 624 350 624 350 602 329.5 c 128,-1,25
 580 309 580 309 580 280 c 1,26,-1
 580 280 l 1,13,14
765 40 m 1,27,-1
 835 40 l 1,28,-1
 835 195 l 1,29,30
 821 178 821 178 803 166.5 c 128,-1,31
 785 155 785 155 765 150 c 1,32,-1
 765 40 l 1,33,-1
 765 40 l 1,27,-1
670 400 m 1,34,35
 648 426 648 426 636.5 452 c 128,-1,36
 625 478 625 478 625 500 c 0,37,38
 625 566 625 566 680.5 613 c 128,-1,39
 736 660 736 660 815 660 c 0,40,41
 898 660 898 660 956.5 598.5 c 128,-1,42
 1015 537 1015 537 1015 450 c 2,43,-1
 1015 0 l 1,44,-1
 965 0 l 1,45,-1
 965 450 l 2,46,47
 965 520 965 520 921 570 c 128,-1,48
 877 620 877 620 815 620 c 0,49,50
 757 620 757 620 716 585 c 128,-1,51
 675 550 675 550 675 500 c 0,52,53
 675 462 675 462 720 400 c 128,-1,54
 765 338 765 338 765 300 c 2,55,-1
 765 200 l 1,56,57
 792 210 792 210 812.5 222.5 c 128,-1,58
 833 235 833 235 845 250 c 1,59,-1
 885 250 l 1,60,-1
 885 0 l 1,61,-1
 765 0 l 1,62,-1
 765 -240 l 1,63,-1
 715 -240 l 1,64,-1
 715 0 l 1,65,-1
 375 0 l 1,66,-1
 375 30 l 1,67,68
 399 59 399 59 412 103 c 128,-1,69
 425 147 425 147 425 200 c 0,70,71
 425 270 425 270 375 320 c 128,-1,72
 325 370 325 370 255 370 c 256,73,74
 185 370 185 370 135 314.5 c 128,-1,75
 85 259 85 259 85 180 c 0,76,77
 85 143 85 143 98 111.5 c 128,-1,78
 111 80 111 80 135 60 c 1,79,80
 130 74 130 74 127.5 86.5 c 128,-1,81
 125 99 125 99 125 110 c 0,82,83
 125 156 125 156 156 188 c 128,-1,84
 187 220 187 220 230 220 c 256,85,86
 273 220 273 220 304 188 c 128,-1,87
 335 156 335 156 335 110 c 0,88,89
 335 60 335 60 300 25 c 128,-1,90
 265 -10 265 -10 215 -10 c 0,91,92
 145 -10 145 -10 95 45.5 c 128,-1,93
 45 101 45 101 45 180 c 0,94,95
 45 275 45 275 106.5 342.5 c 128,-1,96
 168 410 168 410 255 410 c 0,97,98
 346 410 346 410 410.5 348.5 c 128,-1,99
 475 287 475 287 475 200 c 0,100,101
 475 155 475 155 465 114.5 c 128,-1,102
 455 74 455 74 435 40 c 1,103,-1
 715 40 l 1,104,-1
 715 140 l 1,105,106
 712 139 712 139 702.5 139.5 c 128,-1,107
 693 140 693 140 685 140 c 0,108,109
 623 140 623 140 579 181 c 128,-1,110
 535 222 535 222 535 280 c 0,111,112
 535 330 535 330 574.5 365 c 128,-1,113
 614 400 614 400 670 400 c 1,114,-1
 670 400 l 1,34,35
EndSplineSet
Ligature2: "'abvs' Above Base Substitutions in Tamil lookup 0 subtable" u0BB7 u0BBF
EndChar

